<?xml version="1.0" encoding="UTF-8"?>
<svg id="Layer_2" data-name="Layer 2" xmlns="http://www.w3.org/2000/svg" xmlns:xlink="http://www.w3.org/1999/xlink" viewBox="0 0 523.4 121.56">
  <defs>
    <style>
      .cls-1 {
        fill: url(#linear-gradient-3);
      }

      .cls-2 {
        fill: url(#linear-gradient-2);
      }

      .cls-3 {
        fill: url(#linear-gradient);
      }

      .cls-4 {
        fill: #fff;
      }
    </style>
    <linearGradient id="linear-gradient" x1="86.84" y1="73.8" x2="103.1" y2="116.78" gradientUnits="userSpaceOnUse">
      <stop offset="0" stop-color="#b99aff"/>
      <stop offset="1" stop-color="#5427ff"/>
    </linearGradient>
    <linearGradient id="linear-gradient-2" x1="70.39" y1="7.99" x2="99.65" y2="67.23" xlink:href="#linear-gradient"/>
    <linearGradient id="linear-gradient-3" x1="-.7" y1="60.61" x2="52.4" y2="60.97" gradientUnits="userSpaceOnUse">
      <stop offset="0" stop-color="#a890ff"/>
      <stop offset="1" stop-color="#431dff"/>
    </linearGradient>
  </defs>
  <g id="Layer_1-2" data-name="Layer 1">
    <g>
      <g>
        <path class="cls-4" d="M217.87,18.1h22.48l35.83,84.76h-25.01l-6.13-15.03h-32.46l-6.01,15.03h-24.53l35.83-84.76ZM238.31,69.67l-9.38-23.93-9.5,23.93h18.88Z"/>
        <path class="cls-4" d="M270.64,61.02v-.24c0-24.53,18.88-43.76,44.36-43.76,17.19,0,28.25,7.21,35.71,17.55l-17.55,13.59c-4.81-6.01-10.34-9.86-18.4-9.86-11.78,0-20.08,9.98-20.08,22.24v.24c0,12.62,8.3,22.48,20.08,22.48,8.78,0,13.95-4.09,19-10.22l17.55,12.5c-7.94,10.94-18.64,19-37.27,19-24.05,0-43.4-18.4-43.4-43.52Z"/>
        <path class="cls-4" d="M358.63,18.7h23.32v34.15l28.98-34.15h27.65l-31.86,36.19,32.94,47.97h-28.01l-21.16-31.26-8.54,9.5v21.76h-23.32V18.7Z"/>
        <path class="cls-4" d="M432.75,61.02v-.24c0-24.17,19.48-43.76,45.45-43.76s45.21,19.36,45.21,43.52v.24c0,24.17-19.48,43.76-45.45,43.76s-45.21-19.36-45.21-43.52ZM499.6,61.02v-.24c0-12.14-8.78-22.72-21.64-22.72s-21.28,10.34-21.28,22.48v.24c0,12.14,8.78,22.72,21.52,22.72s21.4-10.34,21.4-22.48Z"/>
      </g>
      <g>
        <path class="cls-3" d="M156.9,42.3v36.81c0,2.83-1.27,5.27-3.85,6.96-32.23,21.12-56.63,29.99-65.17,32.46-11.77,3.41-18.01,3.05-19.03,2.98-21.5-1.55-57.71-31.15-57.71-31.15,0,0,29.55,7.22,97.82-25.28,12.8-6.09,27.09-12.67,43.7-20.37,0,0,3.63-1.57,4.24-2.4Z"/>
        <path class="cls-2" d="M155.19,41.05c.19-.16.43-.37.54-.51.15-.19.28-.38.36-.61.22-.62.15-1.39-.2-1.96-.63-1.04-1.69-1.73-2.85-2.49C120.82,14.37,96.42,5.49,87.88,3.02,76.11-.38,69.87-.03,68.85.05,47.36,1.6,11.14,31.2,11.14,31.2c0,0,29.55-7.22,97.82,25.28,2.2,1.05,4.44,2.11,6.73,3.18l37.3-17.3s1.88-1.06,2.21-1.32Z"/>
        <path class="cls-1" d="M45.74,60.75c.04-7.85,1.02-15.71,2.83-23.48,0,0,.24-.97.24-.97-13.44-3.16-23.36-3.83-29.31-3.83-4.91,0-7.52.45-8.41.64-1.6.35-2.73,1.63-3.54,2.7C2.75,42.18,0,51.27,0,60.75H0c0,9.47,2.75,18.57,7.56,24.94.81,1.07,1.94,2.34,3.54,2.7.89.19,3.5.64,8.41.64,5.95,0,15.86-.67,29.31-3.83,0,0-.24-.97-.24-.97-1.81-7.77-2.79-15.63-2.83-23.48Z"/>
      </g>
    </g>
  </g>
</svg>