<?xml version="1.0" encoding="UTF-8" standalone="no"?>
<!-- Created with Inkscape (http://www.inkscape.org/) -->

<svg
   xmlns:dc="http://purl.org/dc/elements/1.1/"
   xmlns:cc="http://creativecommons.org/ns#"
   xmlns:rdf="http://www.w3.org/1999/02/22-rdf-syntax-ns#"
   xmlns:svg="http://www.w3.org/2000/svg"
   xmlns="http://www.w3.org/2000/svg"
   version="1.1"
   width="126.43"
   height="129.42999"
   id="svg2"
   xml:space="preserve"><metadata
     id="metadata8"><rdf:RDF><cc:Work
         rdf:about=""><dc:format>image/svg+xml</dc:format><dc:type
           rdf:resource="http://purl.org/dc/dcmitype/StillImage" /><dc:title></dc:title></cc:Work></rdf:RDF></metadata><defs
     id="defs6"><clipPath
       id="clipPath16"><path
         d="m 0,0 640.346,0 0,820.346 L 0,820.346 0,0 z"
         id="path18" /></clipPath><clipPath
       id="clipPath28"><path
         d="M 0,820.346 0,711.609 c 5.75,-4.801 11.422,-9.696 17.047,-14.646 l 0,0 0.03,-0.025 c 8.08,-6.025 16.426,-10.503 24.664,-11.451 l 0,0 c 8.289,-0.954 16.44,1.652 24.062,9.817 l 0,0 0.026,0.032 c 11.643,14.889 25.844,29.805 39.877,44.543 l 0,0 c 3.669,3.854 7.328,7.696 10.915,11.512 l 0,0 0.027,0.032 c 6.879,8.703 10.614,16.475 10.361,22.971 l 0,0 c -0.256,6.571 -4.536,11.799 -13.692,15.328 l 0,0 c -17.359,9.464 -31.236,19.826 -45.429,30.422 l 0,0 c -0.09,0.067 -0.181,0.135 -0.271,0.202 l 0,0 -67.617,0 z"
         id="path30" /></clipPath><clipPath
       id="clipPath42"><path
         d="m 0,29.491 640.346,0 0,790.854 L 0,820.345 0,29.491 z"
         id="path44" /></clipPath><clipPath
       id="clipPath56"><path
         d="m 145.563,765.66 c -6.557,-1.196 -12.832,-5.272 -18.342,-12.458 l 0,0 -0.02,-0.028 c -6.502,-9.917 -13.609,-19.225 -21.159,-28.082 l 0,0 C 98.488,716.227 90.485,707.807 82.198,699.671 l 0,0 -0.026,-0.028 C 74.375,690.62 70.423,683.438 71.288,676.846 l 0,0 c 0.865,-6.599 6.538,-12.507 17.987,-18.962 l 0,0 0.024,-0.011 c 11.572,-5.658 22.749,-11.868 33.666,-18.439 l 0,0 c 10.913,-6.569 21.557,-13.495 32.073,-20.589 l 0,0 0.035,-0.02 c 8.783,-4.942 17.632,-8.315 25.924,-8.201 l 0,0 c 8.344,0.113 16.095,3.74 22.608,12.811 l 0,0 0.025,0.035 c 9.644,16.261 21.819,32.869 33.849,49.277 l 0,0 c 3.153,4.302 6.298,8.591 9.355,12.816 l 0,0 0.022,0.035 c 5.709,9.512 8.42,17.698 7.337,24.11 l 0,0 c -1.094,6.484 -6.011,11.123 -15.545,13.451 l 0,0 c -18.427,7.167 -33.514,15.666 -48.942,24.358 l 0,0 c -7.576,4.267 -15.234,8.582 -23.432,12.819 l 0,0 c -5.451,3.755 -11.064,5.698 -16.566,5.698 l 0,0 c -1.39,0 -2.774,-0.124 -4.145,-0.374"
         id="path58" /></clipPath><clipPath
       id="clipPath70"><path
         d="M 50.766,646.745 C 44.622,646.114 38.38,642.817 32.451,636.609 l 0,0 -0.022,-0.025 c -5.477,-6.602 -9.748,-13.166 -13.885,-19.526 l 0,0 C 12.991,608.524 7.679,600.359 0,592.982 l 0,0 0,-45.697 c 3.518,-2.109 7.051,-4.185 10.565,-6.248 l 0,0 c 14.849,-8.721 29.333,-17.228 42.557,-28.222 l 0,0 0.033,-0.027 c 7.427,-5.168 15.11,-8.9 22.716,-9.387 l 0,0 c 0.55,-0.036 1.1,-0.054 1.649,-0.054 l 0,0 0.068,0 c 7.057,0.01 13.999,2.934 20.548,10.213 l 0,0 0.024,0.032 c 8.478,11.151 18.206,20.946 28.221,31.03 l 0,0 c 6.098,6.141 12.305,12.39 18.424,19.144 l 0,0 0.026,0.03 c 6.397,8.329 9.888,15.657 9.692,21.628 l 0,0 c -0.199,6.058 -4.129,10.685 -12.581,13.512 l 0,0 c -11.51,5.691 -23.972,12.388 -36.161,19.32 l 0,0 c -13.043,7.417 -25.777,15.105 -36.698,22.113 l 0,0 c -5.021,4.261 -10.501,6.49 -16.122,6.49 l 0,0 c -0.729,0 -1.461,-0.038 -2.195,-0.114"
         id="path72" /></clipPath><clipPath
       id="clipPath84"><path
         d="m 156.031,820.346 c -1.537,-3.685 -2.074,-7.041 -1.496,-10.201 l 0,0 c 1.2,-6.547 7.165,-12.16 18.927,-18.024 l 0,0 0.026,-0.011 c 11.862,-5.071 23.338,-10.703 34.559,-16.703 l 0,0 c 11.212,-5.995 22.198,-12.374 33.077,-18.935 l 0,0 0.034,-0.018 c 9.024,-4.49 18.034,-7.408 26.308,-6.875 l 0,0 c 8.327,0.537 15.886,4.554 21.93,13.945 l 0,0 0.021,0.036 c 8.81,16.737 20.123,33.936 31.301,50.931 l 0,0 c 1.288,1.959 2.575,3.915 3.848,5.855 l 0,0 -168.535,0 z"
         id="path86" /></clipPath><clipPath
       id="clipPath98"><path
         d="m 275.355,702.67 c -5.666,-2.162 -10.63,-6.912 -14.52,-14.28 l 0,0 -0.014,-0.032 c -6.203,-14.197 -19.827,-31.555 -31.604,-46.56 l 0,0 c -4.617,-5.881 -8.951,-11.404 -12.453,-16.246 l 0,0 -0.022,-0.034 c -5.623,-9.292 -9.182,-16.558 -7.725,-22.16 l 0,0 c 1.464,-5.628 7.922,-9.444 22.31,-11.73 l 0,0 c 11.272,-3.32 21.06,-6.318 30.652,-9.673 l 0,0 c 9.596,-3.357 19.01,-7.077 29.543,-11.845 l 0,0 0.035,-0.012 c 8.655,-3.102 17.129,-4.782 24.57,-3.412 l 0,0 c 7.493,1.38 13.915,5.83 18.388,14.989 l 0,0 0.014,0.04 c 4.998,13.004 14.524,30.633 23.403,47.065 l 0,0 c 4.952,9.163 9.702,17.955 13.359,25.374 l 0,0 0.017,0.038 c 3.675,9.418 5.193,17.186 3.573,22.79 l 0,0 c -1.647,5.691 -6.456,9.128 -15.416,9.765 l 0,0 c -7.613,1.561 -14.238,2.785 -20.389,3.922 l 0,0 c -15.112,2.793 -27.377,5.059 -44.608,10.548 l 0,0 c -4.025,1.871 -7.941,2.811 -11.667,2.811 l 0,0 c -2.582,0 -5.074,-0.452 -7.446,-1.358"
         id="path100" /></clipPath><clipPath
       id="clipPath112"><path
         d="M 182.517,578.53 C 176.2,576.319 169.8,571.522 163.744,564.008 l 0,0 -0.015,-0.019 c -9.215,-12.816 -17.619,-19.962 -26.963,-27.906 l 0,0 c -5.546,-4.715 -11.423,-9.712 -18.006,-16.346 l 0,0 -0.021,-0.021 c -8.449,-9.6 -12.962,-16.534 -12.858,-22.115 l 0,0 c 0.105,-5.668 4.876,-9.841 15.003,-13.838 l 0,0 0.032,-0.012 c 8.442,-2.644 18.535,-4.28 28.768,-5.937 l 0,0 c 14.708,-2.382 29.706,-4.811 40.391,-10.352 l 0,0 0.045,-0.021 c 7.725,-3.039 15.864,-4.789 23.891,-3.429 l 0,0 c 8.035,1.362 15.936,5.834 23.162,15.23 l 0,0 c 8.531,9.345 15.202,15.814 21.826,22.237 l 0,0 c 7.401,7.178 14.744,14.298 24.534,25.279 l 0,0 0.011,0.015 c 8.453,10.298 12.224,17.933 11.714,23.152 l 0,0 c -0.523,5.361 -5.396,8.165 -14.209,8.674 l 0,0 c -4.298,0.889 -8.938,1.82 -13.726,2.782 l 0,0 c -22.249,4.47 -47.743,9.592 -65.821,15.796 l 0,0 c -3.458,1.845 -7.112,2.783 -10.866,2.783 l 0,0 c -2.667,0 -5.385,-0.473 -8.119,-1.43"
         id="path114" /></clipPath><clipPath
       id="clipPath126"><path
         d="m 327.637,820.346 c -0.261,-0.595 -0.513,-1.204 -0.756,-1.828 l 0,0 -0.012,-0.033 c -3.475,-11.33 -7.704,-22.251 -12.486,-32.87 l 0,0 c -4.782,-10.619 -10.118,-20.937 -15.807,-31.063 l 0,0 -0.017,-0.036 c -4.97,-10.839 -6.761,-18.838 -4.093,-24.927 l 0,0 c 2.673,-6.095 9.768,-10.187 22.563,-13.191 l 0,0 0.028,-0.006 c 8.114,-1.41 12.855,-2.049 16.325,-2.517 l 0,0 c 7.341,-0.99 8.948,-1.206 25.363,-6.478 l 0,0 0.037,-0.011 c 9.814,-2.295 19.252,-3.065 27.184,-0.644 l 0,0 c 7.981,2.437 14.413,8.083 18.137,18.611 l 0,0 0.011,0.041 c 4.724,18.295 11.785,37.644 18.761,56.763 l 0,0 c 1.848,5.065 3.692,10.117 5.41,14.916 l 0,0 0.011,0.04 c 2.527,9.584 3.052,17.482 1.117,23.233 l 0,0 -101.776,0 z"
         id="path128" /></clipPath><clipPath
       id="clipPath140"><path
         d="m 440.847,820.346 c -2.408,-3.747 -4.099,-8.42 -4.942,-14.011 l 0,0 -0.004,-0.035 c -1.156,-15.188 -7.164,-30.021 -13.067,-44.593 l 0,0 c -3.268,-8.066 -6.502,-16.053 -8.874,-23.995 l 0,0 -0.01,-0.039 c -0.954,-4.516 -1.424,-8.377 -1.476,-11.675 l 0,0 0,-1.169 c 0.17,-10.751 5.092,-15.111 12.193,-16.611 l 0,0 c 5.627,-1.189 12.604,-0.534 19.649,0.128 l 0,0 c 5.73,0.538 11.506,1.081 16.578,0.628 l 0,0 0.037,-0.003 c 10.077,-0.082 18.836,0.889 25.692,4.643 l 0,0 c 6.893,3.775 11.835,10.332 14.215,21.403 l 0,0 10e-4,0.011 c 2.022,10.817 4.948,20.527 7.851,30.156 l 0,0 c 3.677,12.2 7.316,24.273 9.043,38.354 l 0,0 0,0.013 c 0.276,2.844 0.421,5.389 0.437,7.667 l 0,0 0,0.839 c -0.024,3.321 -0.34,6.049 -0.946,8.289 l 0,0 -76.377,0 z"
         id="path142" /></clipPath><clipPath
       id="clipPath154"><path
         d="m 528.555,820.346 c -2.285,-4.221 -3.77,-9.127 -4.285,-14.628 l 0,0 -0.002,-0.032 c -0.31,-11.913 -4.231,-25.26 -8.083,-38.373 l 0,0 c -2.133,-7.258 -4.244,-14.446 -5.716,-21.29 l 0,0 -0.005,-0.032 c -1.954,-13.471 0.449,-18.489 5.119,-19.165 l 0,0 c 4.728,-0.686 11.701,3.288 18.766,7.314 l 0,0 c 4.229,2.41 8.491,4.839 12.265,6.267 l 0,0 0.032,0.012 c 7.479,3.461 14.028,7.873 19.052,13.72 l 0,0 c 5.032,5.855 8.528,13.14 9.889,22.332 l 0,0 0.002,0.012 c 1.117,8.975 2.879,16.908 4.614,24.719 l 0,0 c 1.4,6.301 2.783,12.526 3.798,19.144 l 0,0 -55.446,0 z"
         id="path156" /></clipPath><clipPath
       id="clipPath168"><path
         d="m 457.046,684.561 c -10.223,-1.999 -23.288,-4.553 -36.589,-1.187 l 0,0 -0.002,0 c -7.319,1.822 -13.946,1.14 -19.339,-2.097 l 0,0 c -5.192,-3.115 -9.222,-8.586 -11.604,-16.454 l 0,0 -0.007,-0.036 c -3.015,-13.47 -10.338,-25.992 -17.531,-38.293 l 0,0 c -3.986,-6.819 -7.933,-13.57 -11.093,-20.378 l 0,0 -0.015,-0.036 c -2.113,-5.744 -3.115,-10.37 -3.226,-14.104 l 0,0 0,-1.363 c 0.216,-6.922 3.786,-10.487 9.028,-12.416 l 0,0 c 4.901,-1.804 11.253,-2.125 17.665,-2.449 l 0,0 c 5.204,-0.264 10.45,-0.529 14.943,-1.597 l 0,0 0.04,-0.008 c 4.19,-0.644 8.157,-1.047 11.869,-1.047 l 0,0 c 4.291,0 8.242,0.539 11.809,1.868 l 0,0 c 6.688,2.493 11.984,7.74 15.568,17.376 l 0,0 0.005,0.014 c 3.367,9.863 10.445,22.443 17.676,35.297 l 0,0 c 8.441,15.003 17.092,30.38 20.362,42.366 l 0,0 0.003,0.01 c 0.809,3.29 1.201,5.965 1.217,8.124 l 0,0 0,0.282 c -0.036,4.62 -1.857,6.802 -5.049,7.586 l 0,0 c -0.947,0.233 -2.013,0.334 -3.188,0.334 l 0,0 c -3.37,0 -7.633,-0.834 -12.542,-1.792"
         id="path170" /></clipPath><clipPath
       id="clipPath182"><path
         d="m 535.947,703.723 c -5.755,-2.393 -12.587,-5.232 -20.275,-7.741 l 0,0 -0.002,0 c -6.818,-2.248 -13.171,-6.061 -18.548,-11.209 l 0,0 c -5.177,-4.954 -9.449,-11.148 -12.36,-18.374 l 0,0 -0.009,-0.026 c -3.744,-11.164 -10.397,-21.253 -17.292,-31.71 l 0,0 c -4.544,-6.891 -9.193,-13.942 -13.197,-21.577 l 0,0 -0.013,-0.024 c -5.487,-12.074 -5.342,-17.399 -1.999,-18.917 l 0,0 c 4.135,-1.879 13.153,2.489 22.302,6.921 l 0,0 c 4.98,2.413 9.999,4.845 14.227,6.276 l 0,0 0.026,0.01 c 1.155,0.467 1.954,0.788 2.716,1.094 l 0,0 c 15.705,6.312 27.519,11.059 35.471,28.443 l 0,0 0.004,0.009 c 3.879,8.941 8.107,16.896 12.27,24.728 l 0,0 c 5.215,9.809 10.329,19.428 14.575,30.665 l 0,0 0.003,0.009 c 3.798,10.71 3.722,15.395 0.449,16.556 l 0,0 c -0.522,0.186 -1.124,0.272 -1.805,0.272 l 0,0 c -3.534,0 -9.168,-2.341 -16.543,-5.405"
         id="path184" /></clipPath><clipPath
       id="clipPath196"><path
         d="m 368.873,553.84 c -12.594,-2.104 -25.671,-4.288 -33.353,-2.948 l 0,0 c -5.224,1.48 -11.193,0.743 -17.194,-2.057 l 0,0 c -5.807,-2.709 -11.649,-7.352 -16.874,-13.783 l 0,0 -0.014,-0.018 c -7.781,-10.609 -19.593,-20.923 -31.072,-30.946 l 0,0 c -7.089,-6.191 -14.052,-12.271 -19.871,-18.246 l 0,0 -0.016,-0.019 c -7.516,-8.565 -8.404,-13.395 -5.446,-15.992 l 0,0 c 4.294,-3.767 16.929,-2.354 28.805,-1.026 l 0,0 c 8.587,0.96 16.772,1.874 20.905,0.756 l 0,0 0.045,-0.009 c 6.833,-1.138 13.271,-1.361 19.745,0.667 l 0,0 c 6.471,2.026 12.954,6.295 19.865,14.136 l 0,0 0.003,0.007 c 7.055,8.29 18.942,18.006 30.993,27.855 l 0,0 c 13.364,10.922 26.93,22.01 34.426,31.591 l 0,0 0.005,0.005 c 2.547,3.372 3.738,5.965 3.828,7.927 l 0,0 0,0.468 c -0.061,1.266 -0.622,2.247 -1.605,2.989 l 0,0 c -1.64,1.238 -4.512,1.724 -8.204,1.724 l 0,0 c -6.53,-0.001 -15.62,-1.519 -24.971,-3.081"
         id="path198" /></clipPath><clipPath
       id="clipPath210"><path
         d="m 483.046,593.882 c -7.249,-5.917 -18.163,-14.823 -31.792,-23.299 l 0,0 c -8.26,-3.136 -18.686,-8.175 -28.07,-14.746 l 0,0 c -7.271,-5.092 -13.922,-11.108 -18.465,-17.877 l 0,0 -0.011,-0.017 c -6.538,-10.715 -15.223,-18.837 -24.364,-27.387 l 0,0 c -7.481,-6.997 -15.268,-14.28 -22.451,-23.501 l 0,0 0.001,0 c -1.295,-1.538 -1.959,-2.62 -2.065,-3.292 l 0,0 -0.019,-0.156 0,-0.238 c 0.132,-1.437 2.738,-0.749 7.159,1.565 l 0,0 c 4.27,2.234 10.394,5.965 17.632,10.673 l 0,0 c 33.557,21.828 91.22,64.778 99.288,77.217 l 0,0 0.015,0.025 c 10.931,19.302 15.09,26.98 13.475,27.895 l 0,0 c -0.107,0.06 -0.235,0.09 -0.383,0.09 l 0,0 c -1.431,0 -4.791,-2.742 -9.95,-6.952"
         id="path212" /></clipPath><clipPath
       id="clipPath224"><path
         d="m 84.248,481.785 c -8.387,-1.267 -18.32,-4.778 -28.765,-11.197 l 0,0 -0.011,-0.009 c -5.159,-3.388 -8.292,-5.471 -10.156,-6.714 l 0,0 c -0.834,0.083 -4.482,-1.406 -15.024,-7.09 l 0,0 -0.013,-0.007 C 15.436,448.122 6.304,441.795 2.69,436.504 l 0,0 C 1.617,434.932 1.012,433.455 0.869,432.04 l 0,0 0,-1.287 c 0.314,-3.042 2.875,-5.824 7.636,-8.675 l 0,0 0.047,-0.024 c 6.68,-3.06 15.674,-5.243 24.792,-7.456 l 0,0 c 13.082,-3.176 26.42,-6.413 33.324,-12.34 l 0,0 0.065,-0.047 c 5.702,-3.401 12.681,-5.585 21.634,-4.768 l 0,0 c 8.902,0.811 19.754,4.597 33.237,13.12 l 0,0 c 15.39,8.759 16.337,8.917 17.217,9.064 l 0,0 c 0.993,0.165 1.91,0.318 18.53,9.92 l 0,0 0.007,0.005 c 15.302,9.303 24.288,15.785 27.399,20.213 l 0,0 c 0.704,1.003 1.136,1.906 1.301,2.717 l 0,0 0,1.402 c -0.525,2.241 -3.758,3.59 -9.558,4.292 l 0,0 c -7.658,2.303 -16.773,4.424 -26.095,6.593 l 0,0 c -16.598,3.862 -33.859,7.879 -44.632,13.332 l 0,0 c -3.008,2.678 -8.077,4.237 -14.528,4.237 l 0,0 c -2.183,0 -4.524,-0.179 -6.997,-0.553"
         id="path226" /></clipPath><clipPath
       id="clipPath238"><path
         d="m 265.657,459.203 c -12.42,-1.481 -24.912,-2.971 -31.556,-2.002 l 0,0 -0.036,0.003 c -5.415,0.37 -12.341,-1.12 -20.259,-4.385 l 0,0 c -7.644,-3.152 -16.222,-7.96 -25.26,-14.344 l 0,0 -0.011,-0.009 c -12.146,-9.085 -19.229,-11.43 -26.878,-13.963 l 0,0 c -6.816,-2.256 -14.078,-4.66 -25.709,-12.036 l 0,0 -0.012,-0.008 c -12.843,-8.672 -16.595,-13.269 -15.088,-15.501 l 0,0 c 2.024,-2.996 13.735,-1.183 25.388,0.621 l 0,0 c 9.625,1.489 19.212,2.973 22.888,1.785 l 0,0 0.08,-0.019 c 7.226,-1.001 13.447,-0.952 21.014,1.034 l 0,0 c 7.528,1.976 16.378,5.873 28.878,12.571 l 0,0 c 9.335,3.731 17.616,6.434 25.204,8.91 l 0,0 c 18.254,5.957 32.521,10.613 48.088,25.205 l 0,0 c 8.356,6.154 10.689,9.92 9.068,12.122 l 0,0 c -1.229,1.67 -4.88,2.281 -9.937,2.281 l 0,0 c -6.875,0 -16.348,-1.13 -25.862,-2.265"
         id="path240" /></clipPath><clipPath
       id="clipPath252"><path
         d="m 0,447.373 c 0.354,0.215 0.707,0.429 1.06,0.644 l 0,0 c 8.811,5.357 17.552,10.671 29.533,19.204 l 0,0 0.015,0.01 c 10.528,8.166 15.9,14.775 16.561,19.978 l 0,0 c 0.679,5.34 -3.448,9.154 -11.923,11.606 l 0,0 c -4.057,1.849 -8.346,3.775 -12.772,5.763 l 0,0 C 15.203,507.843 7.561,511.275 0,514.789 l 0,0 0,-67.416 z"
         id="path254" /></clipPath><clipPath
       id="clipPath266"><path
         d="m 0,379.525 c 2.213,0.565 4.372,1.108 6.528,1.649 l 0,0 c 8.72,2.192 17.371,4.366 29.277,8.011 l 0,0 0.014,0.004 c 10.495,3.564 15.841,6.705 16.484,9.47 l 0,0 c 0.679,2.917 -3.484,5.268 -12.028,7.121 l 0,0 c -4.459,1.354 -8.537,2.578 -12.765,3.847 l 0,0 C 18.619,412.295 9.174,415.13 0,417.997 l 0,0 0,-38.472 z"
         id="path268" /></clipPath><clipPath
       id="clipPath280"><path
         d="m 609.956,800.956 -0.104,-0.004 c -2.062,-0.149 -4.638,-4.92 -8.474,-12.026 l 0,0 c -3.661,-6.784 -8.498,-15.743 -14.985,-24.793 l 0,0 c -4.705,-5.322 -8.686,-11.324 -11.604,-17.574 l 0,0 c -2.823,-6.044 -4.654,-12.319 -5.191,-18.435 l 0,0 0,-0.028 c -0.222,-8.1 -3.785,-16.878 -7.498,-26.023 l 0,0 c -3.107,-7.656 -6.319,-15.57 -7.796,-23.625 l 0,0 -0.075,-0.407 0.39,-0.133 c 8.012,-2.758 19.949,24.927 32.044,52.979 l 0,0 1.777,4.118 c 9.662,22.372 20.582,40.213 24.327,46.333 l 0,0 c 0.897,1.465 1.402,2.29 1.415,2.496 l 0,0 0,0.064 c -0.886,12.179 -2.092,17.058 -4.225,17.058 l 0,0 -10e-4,0 z"
         id="path282" /></clipPath><clipPath
       id="clipPath294"><path
         d="m 110.277,393.68 c -4.731,-0.41 -10.979,-0.95 -17.801,-0.675 l 0,0 c -4.356,0.626 -8.816,0.646 -13.044,0.031 l 0,0 c -4.089,-0.595 -7.964,-1.783 -11.318,-3.588 l 0,0 -0.024,-0.014 c -4.221,-2.611 -9.935,-3.744 -15.888,-4.923 l 0,0 c -5.006,-0.992 -10.181,-2.019 -14.851,-3.993 l 0,0 -0.381,-0.161 0.102,-0.398 c 1.334,-5.229 19.725,-1.991 38.362,1.288 l 0,0 2.722,0.479 c 14.795,2.594 27.674,3.008 32.089,3.149 l 0,0 c 1.088,0.034 1.699,0.054 1.849,0.139 l 0,0 0.054,0.036 c 6.178,4.735 8.263,7.08 7.357,8.263 l 0,0 c -0.43,0.56 -1.524,0.756 -3.165,0.756 l 0,0 c -1.56,0 -3.616,-0.178 -6.063,-0.389"
         id="path296" /></clipPath><clipPath
       id="clipPath1472"><path
         d="m 0,0 640.346,0 0,820.346 L 0,820.346 0,0 z"
         id="path1474" /></clipPath><clipPath
       id="clipPath3738"><path
         d="m 0,740.841 640.346,0 0,79.505 -640.346,0 0,-79.505 z"
         id="path3740" /></clipPath><clipPath
       id="clipPath3752"><path
         d="m 0,740.841 148.721,0 0,79.505 -148.721,0 0,-79.505 z"
         id="path3754" /></clipPath><clipPath
       id="clipPath3766"><path
         d="m 0,740.841 137.816,0 0,79.505 -137.816,0 0,-79.505 z"
         id="path3768" /></clipPath><clipPath
       id="clipPath3780"><path
         d="m 551.329,755.132 42.246,0 0,42.951 -42.246,0 0,-42.951 z"
         id="path3782" /></clipPath><clipPath
       id="clipPath3852"><path
         d="m 0,0 640.346,0 0,820.346 L 0,820.346 0,0 z"
         id="path3854" /></clipPath><clipPath
       id="clipPath3868"><path
         d="m 0,0 640.346,0 0,820.346 L 0,820.346 0,0 z"
         id="path3870" /></clipPath></defs><g
     transform="matrix(1.25,0,0,-1.25,0,129.43001)"
     id="g10"><g
       id="g12"><g
         clip-path="url(#clipPath16)"
         id="g14"><g
           transform="translate(-23.326294,843.6727)"
           id="g20"><path
             d="m 0,0 686.999,0 0,-866.999 L 0,-866.999 0,0 z"
             id="path22"
             style="fill:none;stroke:#231f20;stroke-width:0.5;stroke-linecap:butt;stroke-linejoin:miter;stroke-miterlimit:2.61299992;stroke-opacity:1;stroke-dasharray:none" /></g></g></g><g
       transform="matrix(2.3557994,0,0,2.4141133,-1297.485,-1823.9366)"
       id="g3776"><g
         clip-path="url(#clipPath3780)"
         id="g3778"><g
           transform="translate(554.50751,775.91431)"
           id="g3784"><path
             d="M 0,0 2.049,0.143 2.007,0.744 2.424,0.773 2.536,-0.834 2.119,-0.863 2.077,-0.264 0.029,-0.407 0,0 z M 0.111,-1.373 2.546,-0.945 2.617,-1.346 1.659,-1.515 1.798,-2.306 2.756,-2.137 2.828,-2.54 0.393,-2.97 0.322,-2.566 1.386,-2.378 1.247,-1.588 0.182,-1.776 0.111,-1.373 z M 0.564,-3.511 2.952,-2.871 3.341,-4.324 2.937,-4.433 2.654,-3.374 2.125,-3.515 2.388,-4.5 1.986,-4.607 1.722,-3.623 1.072,-3.797 1.366,-4.892 0.963,-5 0.564,-3.511 z m 0.899,-2.648 2.222,1.084 0.174,-0.359 -1.12,-1.468 1.484,0.723 0.167,-0.342 -2.221,-1.084 -0.181,0.37 1.091,1.44 L 1.63,-6.501 1.463,-6.159 z M 2.434,-8.079 4.53,-6.77 5.328,-8.045 4.972,-8.267 4.392,-7.337 3.927,-7.628 4.466,-8.491 4.114,-8.712 3.574,-7.848 3.003,-8.205 3.604,-9.166 3.251,-9.387 2.434,-8.079 z m 1.39,-2.026 1.549,1.986 0.275,-0.316 -1.082,-1.343 1.525,0.833 0.32,-0.367 -1.07,-1.402 1.508,0.898 0.27,-0.311 -2.189,-1.25 -0.286,0.329 1.129,1.517 -1.658,-0.909 -0.291,0.335 z m 2.298,-2.346 1.621,1.866 0.308,-0.268 -1.622,-1.866 -0.307,0.268 z m 0.687,-0.618 1.453,1.999 0.322,-0.234 -0.299,-1.822 0.97,1.335 0.309,-0.224 -1.453,-2 -0.333,0.242 0.287,1.784 -0.948,-1.304 -0.308,0.224 z m 3.06,0.894 0.64,-0.384 c 0.162,-0.098 0.273,-0.19 0.334,-0.275 0.061,-0.086 0.1,-0.192 0.117,-0.32 0.019,-0.127 0.006,-0.271 -0.036,-0.432 -0.043,-0.161 -0.125,-0.342 -0.247,-0.545 -0.111,-0.184 -0.227,-0.33 -0.35,-0.441 -0.122,-0.11 -0.24,-0.186 -0.351,-0.227 -0.111,-0.041 -0.223,-0.054 -0.337,-0.04 -0.115,0.015 -0.242,0.064 -0.384,0.149 l -0.659,0.396 1.273,2.119 z m 0.134,-0.569 -0.843,-1.403 0.263,-0.158 c 0.113,-0.067 0.201,-0.107 0.264,-0.115 l 0.182,0.021 0.203,0.155 c 0.076,0.079 0.16,0.195 0.251,0.347 0.094,0.156 0.158,0.287 0.19,0.39 0.033,0.104 0.043,0.196 0.028,0.275 l -0.105,0.203 c -0.042,0.042 -0.133,0.105 -0.274,0.19 l -0.159,0.095 z m 0.479,-2.563 1.045,2.241 0.37,-0.173 -1.045,-2.24 -0.37,0.172 z m 2.549,-0.96 -0.421,0.145 0.016,0.589 -0.766,0.264 -0.34,-0.477 -0.412,0.141 1.551,2.081 0.41,-0.141 -0.038,-2.602 z m -0.394,1.17 0.035,0.958 -0.558,-0.778 0.523,-0.18 z m 3.107,-1.725 -0.437,0.085 -0.066,0.586 -0.795,0.154 -0.271,-0.519 -0.427,0.082 1.246,2.276 0.426,-0.082 0.324,-2.582 z m -0.553,1.104 -0.098,0.954 -0.445,-0.848 0.543,-0.106 z m 0.857,-0.269 0.402,0.013 c 0.018,-0.319 0.151,-0.489 0.399,-0.511 0.123,-0.011 0.223,0.013 0.299,0.071 0.077,0.058 0.119,0.135 0.127,0.23 l -0.025,0.146 -0.104,0.107 c -0.048,0.03 -0.166,0.082 -0.355,0.159 -0.169,0.068 -0.291,0.136 -0.366,0.204 -0.075,0.069 -0.133,0.155 -0.171,0.26 -0.039,0.105 -0.053,0.214 -0.043,0.329 0.012,0.135 0.052,0.253 0.123,0.356 0.07,0.101 0.162,0.175 0.274,0.221 0.113,0.045 0.247,0.061 0.405,0.047 0.238,-0.021 0.418,-0.101 0.54,-0.242 0.122,-0.14 0.176,-0.33 0.163,-0.571 l -0.41,0.014 c -0.007,0.134 -0.037,0.23 -0.092,0.288 -0.055,0.057 -0.137,0.091 -0.247,0.1 -0.109,0.01 -0.196,-0.006 -0.259,-0.046 l -0.105,-0.164 0.066,-0.176 c 0.05,-0.051 0.17,-0.112 0.358,-0.184 0.2,-0.077 0.343,-0.153 0.428,-0.226 0.086,-0.074 0.148,-0.164 0.187,-0.272 0.039,-0.108 0.052,-0.236 0.039,-0.383 -0.018,-0.215 -0.1,-0.388 -0.244,-0.522 -0.145,-0.134 -0.357,-0.189 -0.637,-0.165 -0.494,0.044 -0.746,0.349 -0.752,0.917 m 1.909,-0.123 0.397,0.062 c 0.056,-0.314 0.209,-0.468 0.459,-0.459 0.123,0.004 0.219,0.04 0.287,0.108 0.069,0.067 0.102,0.148 0.098,0.243 l -0.041,0.142 -0.117,0.093 c -0.052,0.024 -0.175,0.062 -0.371,0.115 -0.177,0.047 -0.306,0.099 -0.389,0.158 -0.083,0.059 -0.151,0.138 -0.202,0.237 -0.051,0.099 -0.078,0.206 -0.083,0.322 -0.004,0.134 0.022,0.257 0.079,0.367 0.058,0.11 0.14,0.195 0.245,0.253 0.106,0.059 0.238,0.091 0.397,0.097 0.239,0.008 0.426,-0.05 0.565,-0.175 0.138,-0.124 0.215,-0.307 0.231,-0.547 l -0.408,-0.036 c -0.023,0.132 -0.065,0.224 -0.127,0.274 -0.061,0.051 -0.147,0.074 -0.257,0.07 -0.11,-0.003 -0.194,-0.029 -0.251,-0.077 l -0.084,-0.176 0.087,-0.166 c 0.056,-0.045 0.181,-0.091 0.378,-0.14 0.207,-0.052 0.358,-0.11 0.452,-0.172 0.093,-0.062 0.167,-0.145 0.219,-0.247 0.051,-0.102 0.08,-0.227 0.085,-0.376 0.008,-0.214 -0.052,-0.397 -0.179,-0.547 -0.127,-0.151 -0.331,-0.231 -0.612,-0.241 -0.496,-0.017 -0.783,0.255 -0.858,0.818 m 1.659,1.727 0.4,0.078 0.256,-1.314 c 0.04,-0.205 0.07,-0.336 0.092,-0.396 0.038,-0.104 0.097,-0.178 0.175,-0.224 0.078,-0.045 0.172,-0.057 0.281,-0.036 0.092,0.018 0.164,0.053 0.215,0.106 l 0.086,0.195 c 0.007,0.078 -0.013,0.237 -0.059,0.479 l -0.262,1.343 0.403,0.078 0.248,-1.275 c 0.063,-0.325 0.091,-0.564 0.085,-0.715 -0.007,-0.153 -0.062,-0.285 -0.167,-0.399 -0.105,-0.114 -0.257,-0.19 -0.456,-0.228 -0.207,-0.041 -0.377,-0.035 -0.508,0.017 -0.13,0.051 -0.235,0.14 -0.314,0.265 -0.079,0.124 -0.153,0.369 -0.224,0.732 l -0.251,1.294 z m 2.599,-2.028 -0.681,2.376 0.828,0.238 c 0.212,0.061 0.37,0.082 0.473,0.066 0.103,-0.017 0.199,-0.069 0.286,-0.158 0.09,-0.089 0.154,-0.207 0.197,-0.353 0.053,-0.186 0.052,-0.349 -0.005,-0.488 -0.057,-0.139 -0.163,-0.247 -0.319,-0.322 0.102,-0.037 0.191,-0.083 0.266,-0.139 0.076,-0.056 0.188,-0.164 0.337,-0.322 l 0.369,-0.396 -0.468,-0.134 -0.435,0.435 c -0.155,0.157 -0.258,0.255 -0.309,0.291 l -0.145,0.064 c -0.046,0.006 -0.114,-0.004 -0.205,-0.03 l -0.081,-0.023 0.284,-0.993 -0.392,-0.112 z m -0.001,1.484 0.292,0.084 c 0.178,0.051 0.289,0.091 0.334,0.121 l 0.091,0.128 -0.009,0.203 -0.098,0.169 -0.15,0.06 c -0.04,0.001 -0.148,-0.024 -0.325,-0.074 l -0.308,-0.088 0.173,-0.603 z m 3.738,-0.095 -0.403,-0.188 -0.398,0.435 -0.734,-0.342 0.086,-0.58 -0.394,-0.184 -0.33,2.574 0.393,0.183 1.78,-1.898 z m -1.096,0.568 -0.641,0.714 0.14,-0.948 0.501,0.234 z m 1.388,-0.421 -1.273,2.119 0.341,0.206 1.561,-0.988 -0.85,1.415 0.327,0.196 1.273,-2.119 -0.353,-0.212 -1.53,0.961 0.831,-1.382 -0.327,-0.196 z m 2.302,2.615 0.405,0.131 c 0.126,-0.255 0.173,-0.476 0.142,-0.666 -0.032,-0.189 -0.13,-0.35 -0.293,-0.483 -0.206,-0.166 -0.436,-0.221 -0.691,-0.167 -0.295,0.063 -0.568,0.251 -0.819,0.56 -0.266,0.329 -0.4,0.644 -0.401,0.949 -0.002,0.265 0.105,0.485 0.322,0.661 0.176,0.143 0.373,0.202 0.589,0.178 0.154,-0.018 0.32,-0.095 0.495,-0.231 l -0.24,-0.347 c -0.104,0.088 -0.208,0.136 -0.314,0.143 -0.104,0.007 -0.198,-0.023 -0.279,-0.089 -0.116,-0.094 -0.17,-0.221 -0.161,-0.382 0.009,-0.16 0.107,-0.357 0.296,-0.591 0.196,-0.242 0.372,-0.385 0.526,-0.429 0.155,-0.045 0.289,-0.02 0.403,0.072 0.084,0.068 0.13,0.16 0.139,0.274 0.008,0.115 -0.031,0.254 -0.119,0.417 m 1.265,-0.162 -1.717,1.778 1.082,1.046 0.291,-0.302 -0.789,-0.761 0.381,-0.394 0.732,0.708 0.29,-0.3 -0.733,-0.707 0.468,-0.485 0.815,0.788 0.289,-0.3 -1.109,-1.071 z m 1.992,3.569 0.364,0.218 c 0.18,-0.219 0.276,-0.424 0.289,-0.616 0.011,-0.192 -0.048,-0.371 -0.177,-0.536 -0.163,-0.209 -0.375,-0.315 -0.636,-0.319 -0.302,-0.004 -0.61,0.116 -0.924,0.362 -0.332,0.26 -0.534,0.538 -0.604,0.834 -0.062,0.258 -0.007,0.496 0.165,0.716 0.14,0.179 0.318,0.281 0.534,0.306 0.155,0.018 0.332,-0.02 0.535,-0.113 l -0.157,-0.392 c -0.121,0.062 -0.233,0.085 -0.337,0.068 -0.104,-0.016 -0.188,-0.066 -0.252,-0.149 -0.092,-0.118 -0.116,-0.254 -0.071,-0.408 0.044,-0.155 0.185,-0.325 0.422,-0.509 0.245,-0.192 0.448,-0.292 0.608,-0.301 0.16,-0.008 0.286,0.046 0.377,0.162 0.066,0.085 0.091,0.184 0.073,0.298 -0.018,0.114 -0.087,0.24 -0.209,0.379 m 0.128,0.701 c -0.255,0.147 -0.443,0.306 -0.564,0.477 -0.122,0.17 -0.188,0.34 -0.199,0.508 -0.01,0.168 0.035,0.339 0.134,0.513 0.146,0.251 0.359,0.4 0.643,0.448 0.283,0.047 0.602,-0.031 0.956,-0.236 0.358,-0.206 0.59,-0.452 0.694,-0.736 0.094,-0.25 0.068,-0.5 -0.078,-0.752 -0.146,-0.255 -0.351,-0.404 -0.612,-0.45 -0.298,-0.051 -0.623,0.025 -0.974,0.228 m 0.197,0.373 c 0.245,-0.142 0.457,-0.202 0.634,-0.18 0.177,0.023 0.306,0.103 0.386,0.242 0.08,0.139 0.085,0.289 0.016,0.451 -0.069,0.163 -0.23,0.316 -0.484,0.462 -0.248,0.144 -0.457,0.205 -0.628,0.185 -0.169,-0.02 -0.296,-0.103 -0.379,-0.247 -0.083,-0.144 -0.091,-0.296 -0.024,-0.455 0.068,-0.161 0.227,-0.313 0.479,-0.458 m 1.994,1.133 -0.433,0.192 0.159,0.356 0.433,-0.193 -0.159,-0.355 z m 0.676,1.574 -2.332,0.757 0.126,0.388 1.936,-0.628 0.314,0.968 0.397,-0.129 -0.441,-1.356 z m 0.583,1.992 -2.001,0.462 -0.135,-0.586 -0.408,0.094 0.362,1.569 0.408,-0.094 -0.135,-0.585 2.001,-0.462 -0.092,-0.398 z m -2.154,1.612 0.078,0.743 c 0.02,0.187 0.056,0.327 0.108,0.418 0.051,0.092 0.132,0.172 0.24,0.242 0.107,0.07 0.244,0.12 0.407,0.149 0.164,0.029 0.363,0.032 0.599,0.007 0.213,-0.023 0.394,-0.066 0.547,-0.131 0.152,-0.064 0.27,-0.138 0.354,-0.222 0.084,-0.083 0.143,-0.18 0.179,-0.289 0.035,-0.11 0.044,-0.246 0.027,-0.411 l -0.081,-0.764 -2.458,0.258 z m 0.459,0.362 1.628,-0.171 0.032,0.305 c 0.014,0.131 0.012,0.227 -0.007,0.288 l -0.096,0.156 c -0.046,0.043 -0.121,0.082 -0.226,0.118 -0.105,0.036 -0.245,0.063 -0.42,0.081 -0.182,0.02 -0.328,0.022 -0.436,0.008 -0.107,-0.014 -0.194,-0.044 -0.26,-0.091 l -0.139,-0.181 c -0.021,-0.056 -0.039,-0.165 -0.056,-0.328 l -0.02,-0.185 z m 2.175,1.557 -0.473,0.008 0.006,0.389 0.474,-0.008 -0.007,-0.389 z"
             id="path3786"
             style="fill:#2e3192;fill-opacity:1;fill-rule:nonzero;stroke:none" /></g><g
           transform="translate(556.0014,781.3754)"
           id="g3788"><path
             d="m 0,0 -0.054,-0.218 1.365,-0.341 -0.105,-0.421 -1.365,0.341 -0.085,-0.34 -0.305,0.076 0.204,0.818 -0.095,-0.334 -0.109,-0.004 -0.154,0.023 c -0.182,0.052 -0.306,0.153 -0.372,0.304 -0.066,0.15 -0.068,0.332 -0.007,0.546 0.073,0.254 0.21,0.456 0.412,0.607 0.137,0.105 0.307,0.182 0.509,0.231 L 0.092,1.328 0.084,1.301 0.363,2.109 0.66,2.007 0.528,1.625 1.04,1.448 0.793,0.731 0.765,0.648 C 0.746,0.516 0.792,0.431 0.901,0.393 1.009,0.357 1.102,0.37 1.182,0.433 1.244,0.482 1.295,0.561 1.332,0.671 1.385,0.822 1.395,0.937 1.364,1.015 L 1.252,1.124 1.231,1.131 1.211,1.138 1.329,1.481 1.47,1.441 1.678,1.41 1.885,1.404 2.086,1.419 2.01,1.026 1.607,1.059 1.627,0.986 C 1.654,0.853 1.64,0.706 1.585,0.546 1.512,0.333 1.409,0.172 1.277,0.061 1.122,-0.071 0.942,-0.101 0.736,-0.03 0.557,0.031 0.465,0.161 0.461,0.36 0.459,0.399 0.474,0.492 0.507,0.639 L 0.685,1.156 0.4,1.254 -0.003,-0.007 -0.308,0.075 -0.052,0.905 C -0.174,0.933 -0.315,0.904 -0.475,0.819 -0.624,0.734 -0.726,0.598 -0.78,0.411 L -0.809,0.246 -0.773,0.119 c 0.037,-0.077 0.104,-0.13 0.2,-0.157 l 0.127,-0.024 0.112,0.019 0.03,0.119 L 0,0 z M 2.391,3.849 2.191,3.864 2.108,3.806 2.011,3.64 1.995,3.577 C 1.984,3.471 2.022,3.393 2.108,3.343 L 2.308,3.319 2.47,3.462 2.533,3.666 2.391,3.849 M 1.188,3.263 0.916,3.42 1.721,4.813 1.708,4.823 1.796,4.945 1.836,5.013 1.843,5.009 2.54,5.968 2.534,5.972 2.615,6.072 2.712,6.206 2.72,6.201 3.169,6.756 3.413,6.558 3.272,6.383 4.425,5.451 4.097,5.153 2.999,6.046 2.864,5.88 2.577,5.485 2.682,5.491 2.916,5.403 C 3.037,5.315 3.089,5.199 3.072,5.053 3.058,4.967 3.018,4.877 2.951,4.785 L 2.932,4.758 2.921,4.75 3.076,4.751 C 3.198,4.773 3.295,4.834 3.369,4.935 3.447,5.043 3.485,5.175 3.476,5.331 3.464,5.541 3.424,5.709 3.369,5.749 L 3.754,5.434 C 3.767,5.355 3.761,5.241 3.729,5.102 L 3.666,4.913 3.567,4.74 C 3.376,4.477 3.135,4.362 2.843,4.395 2.755,4.405 2.644,4.441 2.51,4.503 L 2.335,4.199 2.417,4.205 2.591,4.153 C 2.748,4.063 2.828,3.942 2.834,3.791 2.832,3.673 2.779,3.524 2.675,3.343 2.565,3.153 2.447,3.029 2.321,2.97 2.18,2.904 2.03,2.917 1.871,3.008 1.714,3.099 1.646,3.23 1.665,3.401 1.672,3.436 1.7,3.513 1.749,3.632 L 2.368,4.705 2.531,4.611 2.599,4.696 C 2.674,4.799 2.71,4.883 2.706,4.948 L 2.619,5.104 2.417,5.162 2.324,5.137 2.06,4.774 1.188,3.263 z M 5.503,5.299 5.26,5.019 C 5.126,5.135 4.97,5.207 4.794,5.233 4.617,5.26 4.475,5.211 4.368,5.087 L 4.259,4.883 4.32,4.692 4.442,4.655 4.555,4.726 4.629,4.844 4.659,4.917 4.922,4.859 4.856,4.718 4.762,4.59 C 4.631,4.439 4.497,4.347 4.362,4.313 4.249,4.289 4.151,4.314 4.067,4.387 3.937,4.5 3.89,4.638 3.926,4.802 3.957,4.938 4.042,5.086 4.183,5.248 4.332,5.42 4.522,5.513 4.754,5.525 4.89,5.533 5.063,5.496 5.274,5.416 L 5.503,5.299 z M 5.978,8.991 5.643,8.71 5.964,8.327 5.276,7.751 5.248,7.727 5.252,7.579 5.373,7.546 5.438,7.578 6.039,8.082 C 6.107,8.139 6.194,8.166 6.3,8.163 6.406,8.161 6.49,8.122 6.553,8.047 6.658,7.922 6.67,7.775 6.59,7.607 6.523,7.479 6.428,7.364 6.304,7.26 L 6.192,7.179 6.315,7.201 6.561,7.206 6.72,7.154 6.878,7.062 6.518,6.759 C 6.426,6.825 6.339,6.872 6.258,6.899 6.073,6.973 5.928,6.966 5.823,6.879 5.677,6.756 5.521,6.683 5.357,6.662 5.319,6.656 5.253,6.659 5.16,6.671 L 5.384,7.117 5.635,7.071 C 5.752,7.097 5.873,7.162 5.998,7.267 6.1,7.353 6.174,7.426 6.218,7.485 6.294,7.594 6.295,7.692 6.221,7.78 L 6.11,7.822 5.986,7.768 5.507,7.366 C 5.409,7.284 5.303,7.232 5.189,7.211 5.074,7.19 4.98,7.223 4.906,7.311 4.812,7.423 4.815,7.551 4.915,7.695 L 4.977,7.764 5.097,7.881 5.528,8.243 5.346,8.461 4.333,7.611 4.131,7.851 5.776,9.232 5.978,8.991 z M 5.475,9.679 5.534,9.488 5.448,9.314 5.252,9.259 5.074,9.365 5.018,9.562 5.111,9.744 5.298,9.786 5.475,9.679 M 6.882,9.689 6.697,9.56 7.504,8.408 7.149,8.158 6.342,9.311 6.055,9.11 5.875,9.367 6.264,9.64 6.187,9.698 6.081,9.813 c -0.108,0.155 -0.141,0.311 -0.097,0.47 0.043,0.158 0.077,0.338 0.259,0.465 0.217,0.152 0.319,0.343 1.196,0.566 0.168,0.042 0.904,0.156 1.2,0.117 L 9.25,11.35 8.838,11.131 C 8.573,11.16 7.831,11.151 7.452,11.047 7.095,10.95 6.426,10.609 6.385,10.387 L 6.353,10.26 6.41,10.012 6.495,9.913 6.581,9.862 6.702,9.946 6.882,9.689 z M 8.273,9.647 8.107,9.76 8.006,9.751 7.84,9.655 7.794,9.609 7.775,9.349 7.936,9.229 8.147,9.272 8.304,9.417 8.273,9.647 m -1.398,0.051 -0.194,0.246 1.392,0.872 0.107,0.059 1.95,0.869 0.128,-0.288 -0.396,-0.176 0.178,-0.401 -0.674,-0.3 -0.054,-0.024 -0.129,-0.083 -0.02,-0.124 0.096,-0.061 0.167,0.055 0.507,0.226 c 0.147,0.065 0.261,0.096 0.342,0.091 0.123,-0.002 0.215,-0.071 0.275,-0.207 C 10.62,10.295 10.575,10.14 10.415,9.987 10.31,9.893 10.134,9.791 9.885,9.68 9.517,9.516 9.219,9.456 8.993,9.499 L 8.843,9.55 9.046,9.872 9.359,9.785 c 0.159,-0.002 0.317,0.033 0.474,0.103 0.115,0.051 0.207,0.109 0.278,0.176 L 10.17,10.269 10.084,10.334 9.96,10.321 9.408,10.075 C 9.271,10.014 9.149,9.988 9.045,9.998 8.919,10.01 8.827,10.075 8.768,10.191 L 8.399,9.978 8.473,9.941 8.597,9.81 C 8.688,9.653 8.698,9.508 8.627,9.375 8.567,9.273 8.446,9.171 8.266,9.066 8.075,8.957 7.911,8.908 7.772,8.921 7.617,8.934 7.493,9.02 7.401,9.179 7.311,9.335 7.318,9.483 7.42,9.622 7.444,9.648 7.506,9.701 7.608,9.78 l 1.073,0.619 0.047,-0.08 0.021,0.134 c 0.033,0.073 0.132,0.146 0.297,0.219 l 0.552,0.246 -0.09,0.204 -0.99,-0.44 L 8.262,10.523 6.875,9.698 z m 4.426,2.091 0.089,-0.057 0.138,-0.209 c 0.046,-0.142 0.019,-0.266 -0.081,-0.374 -0.061,-0.063 -0.146,-0.111 -0.255,-0.146 l -0.031,-0.011 -0.014,10e-4 0.126,-0.091 c 0.111,-0.054 0.226,-0.062 0.345,-0.023 0.128,0.041 0.234,0.127 0.32,0.257 0.112,0.178 0.157,0.3 0.136,0.366 l 0.053,-0.164 -0.18,0.672 -0.019,-0.005 0.004,-0.011 -0.631,-0.205 z m 0.909,-0.758 c -0.038,-0.067 -0.106,-0.143 -0.202,-0.229 l -0.162,-0.116 -0.182,-0.082 c -0.309,-0.101 -0.572,-0.052 -0.789,0.146 -0.075,0.069 -0.155,0.185 -0.24,0.347 l 0.065,0.003 0.155,0.037 c 0.121,0.04 0.2,0.087 0.234,0.142 l 0.022,0.177 -0.129,0.166 -0.089,0.034 -0.624,-0.212 -0.145,0.288 0.716,0.247 0.687,0.244 0.868,0.233 -0.002,0.007 0.987,0.21 0.065,-0.307 -0.22,-0.047 0.293,-1.376 -0.425,-0.09 -0.292,1.376 -0.218,-0.047 0,-0.001 -0.217,-0.058 0.364,-1.359 -0.419,-0.112 -0.101,0.379 z m 4.355,1.545 -0.167,-0.003 0.013,-0.71 0.002,-0.094 -0.04,-0.121 -0.045,-0.078 -0.061,-0.083 -0.077,-0.092 -0.354,0.179 0.063,0.048 0.068,0.092 0.032,0.073 -0.001,0.057 -0.012,0.722 -0.593,-0.01 0.018,-1.024 0.002,-0.069 c 0.002,-0.126 0.025,-0.239 0.068,-0.339 0.069,-0.147 0.186,-0.22 0.352,-0.217 0.091,0.002 0.176,0.045 0.255,0.129 l 0.097,0.135 0.314,-0.3 -0.165,-0.132 c -0.146,-0.085 -0.32,-0.13 -0.523,-0.133 -0.339,-0.007 -0.58,0.144 -0.725,0.451 -0.038,0.094 -0.071,0.25 -0.1,0.468 l -0.018,1.023 -0.246,-0.004 -0.005,0.314 1.843,0.032 0.005,-0.314 z m 1.826,-0.33 c -0.015,-0.22 -0.12,-0.378 -0.313,-0.476 -0.046,-0.023 -0.143,-0.045 -0.289,-0.066 l -0.404,0.028 0.067,-0.18 c 0.041,-0.058 0.107,-0.091 0.198,-0.098 l 0.654,-0.045 -0.022,-0.305 -0.682,0.048 c -0.117,0.008 -0.217,0.03 -0.301,0.066 l -0.222,0.164 c -0.09,0.105 -0.147,0.232 -0.17,0.383 l -0.229,0.016 0.018,0.253 0.853,-0.059 c 0.119,-0.009 0.204,0.005 0.254,0.043 0.07,0.046 0.11,0.145 0.121,0.297 0.007,0.112 -0.035,0.202 -0.128,0.272 -0.092,0.07 -0.191,0.108 -0.297,0.116 l -0.176,-0.014 -0.112,-0.169 0.071,-0.121 0.131,-0.031 0.14,0.029 0.027,0.02 0.088,-0.17 -0.086,-0.033 -0.181,-0.026 c -0.158,0.011 -0.29,0.037 -0.396,0.079 -0.16,0.063 -0.235,0.162 -0.226,0.296 0.01,0.143 0.106,0.247 0.289,0.312 0.131,0.04 0.292,0.053 0.484,0.04 0.233,-0.017 0.429,-0.078 0.589,-0.183 0.181,-0.125 0.264,-0.287 0.25,-0.486 m 1.254,0.066 0.052,-0.092 0.024,-0.249 C 19.695,11.824 19.612,11.726 19.474,11.678 19.39,11.652 19.292,11.649 19.18,11.668 l -0.032,0.006 -0.012,0.006 0.069,-0.138 c 0.072,-0.101 0.17,-0.161 0.293,-0.183 0.132,-0.023 0.266,0.003 0.403,0.077 0.182,0.105 0.28,0.192 0.292,0.259 l -0.023,-0.128 0.134,0.579 -0.342,0.078 0.007,0.031 -0.324,0.057 z m 0.444,-1.098 c -0.065,-0.04 -0.16,-0.076 -0.284,-0.106 l -0.197,-0.026 -0.199,0.013 c -0.32,0.056 -0.529,0.223 -0.627,0.499 -0.034,0.097 -0.05,0.236 -0.049,0.42 l 0.059,-0.028 0.153,-0.04 c 0.126,-0.023 0.217,-0.018 0.274,0.015 l 0.102,0.146 -0.036,0.207 -0.063,0.072 -0.608,0.107 0.055,0.31 1.684,-0.297 -0.009,-0.048 0.672,-0.155 0.097,-0.021 0.87,-0.298 -0.103,-0.282 -0.333,0.095 -0.364,-1.359 -0.419,0.112 0.364,1.359 -0.338,0.091 0.008,0.031 -0.071,0.017 -0.317,-1.371 -0.422,0.098 0.101,0.439 z m 1.647,0.866 -0.215,0.07 c -0.068,0.167 -0.154,0.321 -0.257,0.463 l -0.151,0.169 c -0.056,0.053 -0.183,0.149 -0.38,0.289 l 0.319,0.294 c 0.175,-0.163 0.323,-0.348 0.443,-0.555 0.06,-0.11 0.114,-0.241 0.161,-0.392 l 0.08,-0.338 z m 2.019,-1.153 -0.43,0.221 0.028,-0.101 -0.028,-0.238 c -0.071,-0.183 -0.213,-0.287 -0.429,-0.312 -0.138,-0.011 -0.283,0.013 -0.437,0.072 l -0.066,0.025 0,-0.14 0.011,-0.075 0.06,-0.066 0.097,-0.037 0.518,-0.199 -0.117,-0.305 -0.588,0.226 -0.112,0.057 -0.147,0.162 -0.038,0.105 -0.031,0.143 -0.024,0.152 -0.01,0.123 -0.269,0.104 0.113,0.293 0.689,-0.265 0.158,-0.042 c 0.113,-0.007 0.189,0.041 0.229,0.142 0.043,0.113 0.042,0.207 -0.003,0.283 l -0.087,0.079 -0.961,0.369 0.113,0.293 1.544,-0.593 0.361,-0.193 -0.144,-0.283 z m 0.66,-1.157 0.001,0.2 -0.063,0.079 -0.173,0.084 -0.064,0.012 c -0.106,0.004 -0.181,-0.039 -0.225,-0.129 l -0.01,-0.201 0.153,-0.152 0.208,-0.049 c 0.072,0.013 0.129,0.065 0.173,0.156 m -0.668,1.158 0.137,0.283 1.079,-0.549 0.553,-0.301 L 26.824,9.445 27.07,9.237 27.66,8.777 27.466,8.529 27.289,8.668 26.423,7.559 26.081,7.826 26.947,8.935 26.671,9.151 26.68,9.163 26.2,9.499 26.218,9.423 26.229,9.352 C 26.236,9.235 26.204,9.127 26.133,9.026 26.054,8.913 25.95,8.854 25.82,8.848 25.691,8.842 25.566,8.881 25.448,8.964 L 25.43,8.902 25.41,8.836 25.404,8.781 25.451,8.684 25.498,8.635 25.976,8.3 25.803,8.054 25.196,8.48 25.154,8.508 25.053,8.595 24.994,8.73 C 24.97,8.817 24.986,8.943 25.04,9.108 l 0.046,0.11 -0.225,0.158 0.175,0.25 0.399,-0.28 0.052,-0.036 0.152,-0.059 0.198,0.116 c 0.046,0.066 0.05,0.16 0.011,0.285 l -0.083,0.151 -0.539,0.378 -0.371,0.225 -1.108,0.522 z M 25.169,9.65 24.761,9.85 24.772,9.768 24.732,9.591 C 24.653,9.429 24.538,9.339 24.388,9.323 c -0.117,-0.006 -0.27,0.036 -0.457,0.128 -0.198,0.096 -0.33,0.205 -0.397,0.327 -0.076,0.136 -0.074,0.287 0.006,0.452 0.079,0.162 0.205,0.24 0.378,0.232 0.035,-0.004 0.114,-0.027 0.236,-0.068 L 25.268,9.851 25.169,9.65 z M 26.47,8.319 25.941,8.708 26.121,8.966 26.677,8.583 26.47,8.319 z M 28.32,7.736 28.546,7.954 29.278,7.196 29.285,7.202 29.392,7.079 29.494,6.973 29.488,6.968 29.947,6.44 29.941,6.435 30.739,5.338 30.485,5.153 29.656,6.294 29.657,6.295 29.562,6.404 28.5,5.481 28.216,5.809 28.433,5.997 28.298,6.044 c -0.144,0.07 -0.256,0.147 -0.337,0.231 -0.122,0.126 -0.195,0.258 -0.221,0.396 -0.031,0.159 0.013,0.296 0.132,0.412 0.119,0.115 0.256,0.154 0.411,0.118 0.128,-0.035 0.261,-0.123 0.398,-0.265 L 28.765,6.849 28.859,6.708 28.903,6.606 28.749,6.457 28.723,6.514 28.635,6.642 28.398,6.817 28.193,6.766 28.113,6.545 28.236,6.35 c 0.071,-0.074 0.161,-0.129 0.267,-0.166 l 0.119,-0.023 0.656,0.571 -0.118,0.134 -0.84,0.87 z m 1.984,-0.972 -0.191,-0.063 -0.175,0.083 -0.058,0.195 0.103,0.18 0.196,0.059 0.184,-0.09 0.045,-0.186 -0.104,-0.178 M 29.226,6.127 C 29.253,6.119 29.417,6.002 29.515,5.918 29.609,5.836 29.682,5.753 29.74,5.674 29.851,5.521 29.91,5.367 29.918,5.213 29.925,5.059 29.865,4.935 29.737,4.843 29.596,4.74 29.453,4.717 29.309,4.774 29.19,4.821 29.075,4.92 28.966,5.07 28.896,5.167 28.849,5.263 28.824,5.36 L 28.806,5.48 28.977,5.604 29.01,5.5 29.081,5.366 c 0.14,-0.194 0.278,-0.242 0.413,-0.144 l 0.09,0.169 c 0,0.068 -0.038,0.154 -0.113,0.258 l -0.225,0.192 -0.24,0.127 0.22,0.159 z m 0.488,-1.858 c 0.067,0.044 0.145,0.06 0.235,0.048 0.091,-0.024 0.158,-0.068 0.2,-0.134 L 30.188,3.95 30.141,3.84 30.05,3.751 29.809,3.704 29.703,3.745 29.612,3.834 c -0.046,0.07 -0.058,0.15 -0.038,0.24 l 0.14,0.195 m 2.46,-2.162 -0.095,0.204 -1.275,-0.595 -0.183,0.393 1.275,0.595 -0.148,0.318 0.285,0.132 0.236,-0.508 0.07,0.059 0.136,0.077 C 32.65,2.853 32.81,2.849 32.955,2.771 33.099,2.693 33.213,2.551 33.297,2.345 33.396,2.1 33.412,1.856 33.346,1.614 33.302,1.446 33.216,1.281 33.087,1.118 L 32.923,0.942 33.11,0.399 33.06,0.38 l 0.195,-0.682 -0.301,-0.087 -0.063,0.217 -1.352,-0.388 -0.12,0.417 0.855,0.245 -0.029,0.087 -0.047,0.054 -0.16,0.087 -0.078,0.012 -0.203,-0.07 -0.087,0.252 0.199,0.069 0.132,0.145 -0.004,0.222 -0.161,0.197 -0.251,0.031 c -0.107,-0.037 -0.169,-0.11 -0.186,-0.219 -0.012,-0.074 0,-0.161 0.035,-0.261 L 31.451,0.657 31.466,0.613 31.239,0.535 31.223,0.578 31.199,0.649 c -0.066,0.192 -0.091,0.36 -0.073,0.504 0.026,0.23 0.153,0.384 0.378,0.461 0.149,0.052 0.294,0.029 0.437,-0.067 0.142,-0.097 0.243,-0.231 0.302,-0.401 0.055,-0.161 0.065,-0.309 0.03,-0.445 l -0.084,-0.165 0.075,-0.045 0.071,-0.05 0.075,-0.072 0.057,-0.086 0.047,-0.098 -0.237,-0.082 0.495,0.142 -0.097,0.337 0.036,0.01 -0.417,1.211 -0.12,0.316 0.282,0.132 0.152,-0.395 0.171,-0.497 c 0.107,0.056 0.196,0.163 0.266,0.322 0.066,0.159 0.063,0.328 -0.01,0.509 L 32.956,2.338 32.85,2.417 c -0.077,0.037 -0.162,0.037 -0.255,0 L 32.48,2.357 32.427,2.309 32.459,2.24 32.174,2.107 z m -0.272,-2.951 0.238,-0.035 0.142,-0.194 -0.043,-0.232 -0.082,-0.088 -0.116,-0.052 -0.243,0.038 -0.085,0.074 -0.056,0.116 0.047,0.238 0.198,0.135"
             id="path3790"
             style="fill:#2e3192;fill-opacity:1;fill-rule:nonzero;stroke:none" /></g><g
           transform="translate(572.4268,791.70309)"
           id="g3792"><path
             d="M 0,0 C 8.149,0 14.755,-6.606 14.755,-14.755 14.755,-22.904 8.149,-29.51 0,-29.51 c -8.149,0 -14.755,6.606 -14.755,14.755 C -14.755,-6.606 -8.149,0 0,0 m 0,-0.225 c 8.025,0 14.53,-6.505 14.53,-14.53 0,-8.025 -6.505,-14.531 -14.53,-14.531 -8.025,0 -14.531,6.506 -14.531,14.531 0,8.025 6.506,14.53 14.531,14.53"
             id="path3794"
             style="fill:#2e3192;fill-opacity:1;fill-rule:evenodd;stroke:none" /></g><g
           transform="translate(572.4268,797.7981)"
           id="g3796"><path
             d="M 0,0 C 11.515,0 20.85,-9.335 20.85,-20.85 20.85,-32.365 11.515,-41.7 0,-41.7 c -11.515,0 -20.85,9.335 -20.85,20.85 C -20.85,-9.335 -11.515,0 0,0 m 0,0.225 c 11.639,0 21.075,-9.436 21.075,-21.075 0,-11.639 -9.436,-21.075 -21.075,-21.075 -11.639,0 -21.075,9.436 -21.075,21.075 0,11.639 9.436,21.075 21.075,21.075"
             id="path3798"
             style="fill:#2e3192;fill-opacity:1;fill-rule:evenodd;stroke:none" /></g><g
           transform="translate(572.4268,796.4118)"
           id="g3800"><path
             d="m 0,0 c 10.749,0 19.464,-8.714 19.464,-19.464 0,-10.749 -8.715,-19.463 -19.464,-19.463 -10.75,0 -19.464,8.714 -19.464,19.463 C -19.464,-8.714 -10.75,0 0,0 m 0,0.724 c 11.149,0 20.187,-9.039 20.187,-20.188 0,-11.149 -9.038,-20.187 -20.187,-20.187 -11.149,0 -20.187,9.038 -20.187,20.187 0,11.149 9.038,20.188 20.187,20.188"
             id="path3802"
             style="fill:#2e3192;fill-opacity:1;fill-rule:evenodd;stroke:none" /></g><g
           transform="translate(572.4268,795.4761)"
           id="g3804"><path
             d="m 0,0 c 10.233,0 18.528,-8.295 18.528,-18.528 0,-10.233 -8.295,-18.528 -18.528,-18.528 -10.233,0 -18.528,8.295 -18.528,18.528 C -18.528,-8.295 -10.233,0 0,0 m 0,0.225 c 10.357,0 18.753,-8.396 18.753,-18.753 0,-10.357 -8.396,-18.753 -18.753,-18.753 -10.357,0 -18.753,8.396 -18.753,18.753 0,10.357 8.396,18.753 18.753,18.753"
             id="path3806"
             style="fill:#2e3192;fill-opacity:1;fill-rule:evenodd;stroke:none" /></g><g
           transform="translate(572.4268,790.0862)"
           id="g3808"><path
             d="m 0,0 c 7.256,0 13.138,-5.882 13.138,-13.138 0,-7.256 -5.882,-13.139 -13.138,-13.139 -7.256,0 -13.138,5.883 -13.138,13.139 C -13.138,-5.882 -7.256,0 0,0 m 0,0.711 c 7.649,0 13.849,-6.2 13.849,-13.849 0,-7.649 -6.2,-13.849 -13.849,-13.849 -7.649,0 -13.849,6.2 -13.849,13.849 0,7.649 6.2,13.849 13.849,13.849"
             id="path3810"
             style="fill:#2e3192;fill-opacity:1;fill-rule:evenodd;stroke:none" /></g><g
           transform="translate(572.4268,789.3205)"
           id="g3812"><path
             d="m 0,0 c 6.833,0 12.372,-5.539 12.372,-12.372 0,-6.834 -5.539,-12.373 -12.372,-12.373 -6.833,0 -12.373,5.539 -12.373,12.373 C -12.373,-5.539 -6.833,0 0,0 m -5.018,-1.545 -0.106,0 0,-0.105 -0.95,0 0,-0.106 -0.106,0 0,-0.106 -0.106,0 0,-0.633 0.106,0 0,-0.106 0.317,0 0,-0.106 0.211,0 0,-0.739 -0.105,0 0,-0.528 0.105,0 0,-0.423 0.106,0 0,-0.211 0.106,0 0,-0.106 0.211,0 0,-0.105 0.105,0 0,-0.106 0.212,0 0,-0.106 0.106,0 0,-0.105 0.105,0 0,-0.106 -0.105,0 0,-0.211 -0.106,0 0,-0.317 -0.106,0 0,-0.211 -0.106,0 0,-0.423 -0.105,0 0,-0.106 -0.106,0 0,-0.211 -0.105,0 0,-0.106 -0.106,0 0,-0.105 -0.106,0 0,-0.106 -0.105,0 0,-0.211 -0.106,0 0,-0.106 -0.106,0 0,-0.105 -0.105,0 0,-0.106 -0.106,0 0,-0.211 -0.106,0 0,-0.106 -0.105,0 0,-0.105 -0.106,0 0,-0.106 -0.105,0 0,-0.211 -0.106,0 0,-0.106 -0.105,0 0,-0.106 -1.163,0 0,-0.105 -0.105,0 0,-0.211 -0.106,0 0,-0.106 -0.105,0 0,-0.211 -0.106,0 0,-0.317 0.106,0 0,-0.212 0.105,0 0,-0.105 0.106,0 0,-0.106 0.105,0 0,-0.106 0.106,0 0,-0.422 0.106,0 0,-0.106 0.105,0 0,-0.106 0.106,0 0,-0.211 0.106,0 0,-0.211 -0.212,0 0,-0.106 -0.317,0 0,-0.105 -0.422,0 0,-0.106 -0.951,0 0,-0.211 0.105,0 0,-0.211 0.106,0 0,-0.317 0.106,0 0,-0.106 0.105,0 0,-0.106 0.212,0 0,-0.105 0.528,0 0,-0.106 -0.211,0 0,-0.105 -0.423,0 0,-0.423 0.106,0 0,-0.211 0.105,0 0,-0.106 0.212,0 0,-0.106 0.106,0 0,-0.105 0.105,0 0,-0.106 0.211,0 0,-0.105 0.106,0 0,-0.106 0.106,0 0,-0.106 0.105,0 0,-0.105 0.634,0 0,0.105 0.212,0 0,0.106 0.105,0 0,0.106 0.106,0 0,0.105 0.105,0 0,0.317 0.106,0 0,0.106 0.105,0 0,-2.219 0.106,0 0,-0.739 0.106,0 0,-0.212 0.105,0 0,-0.316 0.106,0 0,-0.423 0.106,0 0,-0.211 0.105,0 0,-0.423 0.106,0 0,-0.317 0.106,0 0,-0.211 0.105,0 0,-0.317 0.106,0 0,-0.317 0.105,0 0,-0.211 0.106,0 0,-0.317 0.106,0 0,-0.211 0.106,0 0,-0.317 0.105,0 0,-0.212 0.106,0 0,-0.316 0.105,0 0,-0.212 0.106,0 0,-0.211 0.106,0 0,-0.211 0.105,0 0,-0.106 0.106,0 0,-0.211 0.106,0 0,-0.106 0.105,0 0,-0.211 0.106,0 0,-0.211 0.106,0 0,-0.529 0.105,0 0,-0.211 0.106,0 0,-0.211 0.105,0 0,-0.211 0.106,0 0,-0.106 0.106,0 0,-0.211 0.105,0 0,-0.106 0.106,0 0,-0.211 0.106,0 0,-0.106 0.316,0 0,0.106 0.317,0 0,0.105 0.106,0 0,0.212 0.106,0 0,0.106 0.211,0 0,0.105 0.211,0 0,0.106 0.211,0 0,0.528 0.106,0 0,0.211 0.106,0 0,0.106 0.105,0 0,0.105 0.106,0 0,0.106 0.106,0 0,1.268 0.106,0 0,0.105 0.105,0 0,0.212 0.106,0 0,1.479 -0.106,0 0,1.162 0.106,0 0,0.105 0.211,0 0,0.106 0.211,0 0,0.106 0.106,0 0,0.105 0.106,0 0,0.106 0.211,0 0,0.105 0.105,0 0,0.106 0.106,0 0,0.106 0.211,0 0,0.105 0.106,0 0,0.106 0.106,0 0,0.106 0.105,0 0,0.105 0.106,0 0,0.106 0.105,0 0,0.105 0.106,0 0,0.106 0.106,0 0,0.106 0.105,0 0,0.105 0.106,0 0,0.106 0.106,0 0,0.106 0.105,0 0,0.105 0.106,0 0,0.106 0.105,0 0,0.106 0.106,0 0,0.211 0.106,0 0,0.105 0.105,0 0,0.106 0.106,0 0,0.211 0.106,0 0,0.106 0.105,0 0,0.211 0.106,0 0,0.106 0.211,0 0,0.106 0.212,0 0,0.105 0.211,0 0,0.106 0.105,0 0,0.106 0.106,0 0,0.105 0.106,0 0,0.212 0.106,0 0,0.316 0.105,0 0,0.212 0.106,0 0,0.105 0.106,0 0,0.106 0.105,0 0,0.106 0.106,0 0,0.105 0.211,0 0,-0.105 0.739,0 0,0.633 -0.106,0 0,0.317 -0.105,0 0,0.212 -0.106,0 0,0.105 -0.105,0 0,0.106 -0.106,0 0,0.634 -0.105,0 0,0.105 -0.106,0 0,0.106 -0.106,0 0,0.105 -0.105,0 0,0.212 0.105,0 0,0.105 0.106,0 0,0.106 0.106,0 0,0.211 -0.106,0 0,0.212 -0.106,0 0,0.105 -0.105,0 0,0.212 0.105,0 0,0.105 0.739,0 0,-0.105 0.106,0 0,-0.212 0.106,0 0,-0.211 0.105,0 0,-0.106 0.106,0 0,-0.105 1.373,0 0,-0.212 -0.105,0 0,-0.105 -0.106,0 0,-0.106 -0.105,0 0,-0.106 -0.106,0 0,-0.845 0.106,0 0,-0.211 0.105,0 0,-0.105 0.211,0 0,0.105 0.106,0 0,0.317 0.106,0 0,0.211 0.105,0 0,-0.528 0.106,0 0,-0.211 0.106,0 0,-0.211 0.105,0 0,-0.106 0.106,0 0,-0.106 0.211,0 0,0.212 0.106,0 0,0.211 0.105,0 0,0.951 -0.105,0 0,0.211 0.105,0 0,0.105 0.212,0 0,0.106 0.211,0 0,0.106 0.105,0 0,0.211 0.106,0 0,0.317 -0.106,0 0,0.423 0.106,0 0,0.105 0.106,0 0,0.212 0.105,0 0,0.211 0.106,0 0,0.739 0.106,0 0,0.106 0.211,0 0,0.106 0.106,0 0,0.105 0.211,0 0,0.106 0.211,0 0,0.105 0.106,0 0,0.106 0.106,0 0,0.106 0.105,0 0,0.422 -0.105,0 0,0.106 -0.634,0 0,0.528 -0.106,0 0,0.106 -0.106,0 0,0.105 -0.211,0 0,-0.105 -0.106,0 0,-0.106 -0.105,0 0,-0.106 -0.634,0 0,-0.105 -0.106,0 0,-0.106 -0.211,0 0,-0.106 -0.105,0 0,-0.105 -0.212,0 0,-0.106 -0.105,0 0,-0.105 -0.212,0 0,-0.106 -0.105,0 0,-0.106 -0.106,0 0,-0.211 -0.106,0 0,-0.211 -0.211,0 0,-0.106 -0.317,0 0,-0.105 -0.105,0 0,-0.212 0.105,0 0,-0.105 0.106,0 0,-0.317 -0.317,0 0,-0.106 -1.373,0 0,0.106 -0.106,0 0,0.105 -0.105,0 0,0.317 -0.106,0 0,0.212 -0.422,0 0,-0.106 -0.106,0 0,-0.106 -0.106,0 0,-0.95 -0.105,0 0,-0.106 -0.212,0 0,-0.106 -0.739,0 0,0.106 -0.634,0 0,0.106 -0.212,0 0,0.105 -0.316,0 0,0.106 -0.212,0 0,0.106 -0.633,0 0,0.105 -0.74,0 0,0.106 -0.317,0 0,0.105 -0.105,0 0,0.106 -0.212,0 0,0.106 -0.211,0 0,0.105 -0.105,0 0,0.106 -0.212,0 0,0.211 -0.106,0 0,0.106 -0.105,0 0,0.317 0.105,0 0,0.317 0.106,0 0,0.528 -0.106,0 0,0.105 -0.105,0 0,0.106 -0.423,0 0,0.106 -0.211,0 0,0.739 0.105,0 0,0.74 -0.105,0 0,0.105 -0.106,0 0,0.106 -0.105,0 0,0.634 0.105,0 0,0.106 0.106,0 0,0.105 0.105,0 0,0.211 0.106,0 0,0.317 0.106,0 0,0.212 0.105,0 0,0.422 -0.105,0 0,0.211 -0.106,0 0,0.106 -0.106,0 0,0.106 -0.422,0 0,-0.106 -0.211,0 0,-0.106 -0.212,0 0,-0.105 -0.105,0 0,-0.106 -0.211,0 0,-0.106 -0.317,0 0,0.106 -0.212,0 0,0.106 -0.105,0 0,0.105 -0.106,0 0,0.106 -0.105,0 0,0.106 -0.423,0 0,0.105 -0.106,0 0,0.106 -0.105,0 0,0.105 -0.106,0 0,0.106 -0.106,0 0,0.211 -0.105,0 0,0.106 -0.423,0 0,-0.106 z"
             id="path3814"
             style="fill:#2e3192;fill-opacity:1;fill-rule:evenodd;stroke:none" /></g><g
           transform="translate(555.14841,779.4122)"
           id="g3816"><path
             d="m 0,0 0.649,-0.423 0.645,0.428 -0.042,-0.773 0.693,-0.345 -0.69,-0.35 0.048,-0.773 -0.649,0.423 -0.645,-0.428 0.042,0.773 -0.693,0.345 0.69,0.35 L 0,0 z"
             id="path3818"
             style="fill:#2e3192;fill-opacity:1;fill-rule:evenodd;stroke:none" /></g><g
           transform="translate(588.3186,779.4122)"
           id="g3820"><path
             d="m 0,0 0.648,-0.423 0.646,0.428 -0.042,-0.773 0.693,-0.345 -0.69,-0.35 0.048,-0.773 -0.649,0.423 -0.645,-0.428 0.042,0.773 -0.694,0.345 0.691,0.35 L 0,0 z"
             id="path3822"
             style="fill:#2e3192;fill-opacity:1;fill-rule:evenodd;stroke:none" /></g><g
           transform="translate(572.4268,791.70309)"
           id="g3824"><path
             d="M 0,0 C 8.149,0 14.755,-6.606 14.755,-14.755 14.755,-22.904 8.149,-29.51 0,-29.51 c -8.149,0 -14.755,6.606 -14.755,14.755 C -14.755,-6.606 -8.149,0 0,0 m 0,-0.225 c 8.025,0 14.53,-6.505 14.53,-14.53 0,-8.025 -6.505,-14.531 -14.53,-14.531 -8.025,0 -14.531,6.506 -14.531,14.531 0,8.025 6.506,14.53 14.531,14.53"
             id="path3826"
             style="fill:#2e3192;fill-opacity:1;fill-rule:evenodd;stroke:none" /></g><g
           transform="translate(572.4268,791.70309)"
           id="g3828"><path
             d="M 0,0 C 8.149,0 14.755,-6.606 14.755,-14.755 14.755,-22.904 8.149,-29.51 0,-29.51 c -8.149,0 -14.755,6.606 -14.755,14.755 C -14.755,-6.606 -8.149,0 0,0 m 0,-0.225 c 8.025,0 14.53,-6.505 14.53,-14.53 0,-8.025 -6.505,-14.531 -14.53,-14.531 -8.025,0 -14.531,6.506 -14.531,14.531 0,8.025 6.506,14.53 14.531,14.53"
             id="path3830"
             style="fill:#2e3192;fill-opacity:1;fill-rule:evenodd;stroke:none" /></g></g></g></g></svg>