<?xml version="1.0" encoding="UTF-8" standalone="no"?>
<!-- Created with Inkscape (http://www.inkscape.org/) -->

<svg
   xmlns:dc="http://purl.org/dc/elements/1.1/"
   xmlns:cc="http://creativecommons.org/ns#"
   xmlns:rdf="http://www.w3.org/1999/02/22-rdf-syntax-ns#"
   xmlns:svg="http://www.w3.org/2000/svg"
   xmlns="http://www.w3.org/2000/svg"
   version="1.1"
   width="172.27"
   height="49.189999"
   id="svg2"
   xml:space="preserve"><metadata
     id="metadata8"><rdf:RDF><cc:Work
         rdf:about=""><dc:format>image/svg+xml</dc:format><dc:type
           rdf:resource="http://purl.org/dc/dcmitype/StillImage" /><dc:title></dc:title></cc:Work></rdf:RDF></metadata><defs
     id="defs6"><clipPath
       id="clipPath3063"><path
         d="m 48.638,632.058 173.452,0 0,69.942 -173.452,0 0,-69.942 z"
         id="path3065" /></clipPath><clipPath
       id="clipPath3049"><path
         d="m 48.638,632.058 173.452,0 0,69.942 -173.452,0 0,-69.942 z"
         id="path3051" /></clipPath></defs><g
     transform="matrix(1.25,0,0,-1.25,-51.724375,100.5271)"
     id="g10"><g
       transform="translate(139.25904,76.579863)"
       id="g14"
       style="fill:#29559b;fill-opacity:1"><path
         d="m 0,0 3.655,0 0,-17.401 c 0,-1.541 -1.459,-1.783 -1.945,-1.783 -0.799,0 -1.281,0.548 -1.554,0.855 l -10.047,12.786 0,-13.378 -3.642,0 0,17.685 c 0,0.778 0.657,1.73 2.007,1.73 0.964,0 1.382,-0.42 1.648,-0.71 L 0,-12.636 0,0"
         id="path16"
         style="fill:#29559b;fill-opacity:1;fill-rule:nonzero;stroke:none" /></g><g
       transform="translate(46.193045,73.207861)"
       id="g18"
       style="fill:#29559b;fill-opacity:1"><path
         d="m 0,0 0,-4.771 4.388,0 c 2.136,0 3.181,0.474 3.181,2.4 C 7.569,-0.421 6.524,0 4.388,0 L 0,0 z m 5.243,3.372 c 4.032,0 5.954,-1.711 5.954,-5.693 0,-2.926 -1.231,-4.796 -3.439,-5.323 l 4.246,-7.907 -4.032,0 -3.852,7.635 -4.12,0 0,-7.635 -3.582,0 0,18.923 8.825,0"
         id="path20"
         style="fill:#29559b;fill-opacity:1;fill-rule:nonzero;stroke:none" /></g><path
       d="m 94.000045,57.656861 3.746098,0 0,18.924002 -3.746098,0 0,-18.924002 z"
       id="path22"
       style="fill:#29559b;fill-opacity:1;fill-rule:nonzero;stroke:none" /><g
       transform="translate(148.77204,66.621861)"
       id="g24"
       style="fill:#29559b;fill-opacity:1"><path
         d="m 0,0 c 0,-4.246 1.145,-5.668 4.11,-5.668 l 7.158,0 0,-3.297 -7.322,0 c -2.031,0 -3.595,0.186 -5.228,1.663 -1.729,1.554 -2.57,4.034 -2.57,7.462 0,6.698 2.5,9.809 7.89,9.809 l 7.23,0 0,-3.244 -7.158,0 C 1.145,6.725 0,4.694 0,0"
         id="path26"
         style="fill:#29559b;fill-opacity:1;fill-rule:nonzero;stroke:none" /></g><g
       transform="translate(112.02104,74.966863)"
       id="g28"
       style="fill:#29559b;fill-opacity:1"><path
         d="M 0,0 C -0.22,0.452 -0.297,0.469 -0.439,0.469 -0.584,0.469 -0.667,0.452 -0.884,0 l -8.429,-17.311 -3.876,0 9.043,18.52 c 0.965,1.973 2.096,2.826 3.707,2.826 1.606,0 2.733,-0.857 3.696,-2.826 l 9.041,-18.52 -3.861,0 L 0,0"
         id="path30"
         style="fill:#29559b;fill-opacity:1;fill-rule:nonzero;stroke:none" /></g><g
       transform="translate(111.57104,69.597861)"
       id="g32"
       style="fill:#29559b;fill-opacity:1"><path
         d="m 0,0 -5.712,-11.941 11.432,0 L 0,0"
         id="path34"
         style="fill:#d72729;fill-opacity:1;fill-rule:nonzero;stroke:none" /></g><g
       transform="translate(92.172045,60.951861)"
       id="g36"
       style="fill:#29559b;fill-opacity:1"><path
         d="m 0,0 -9.51,0.001 c -0.468,0 -1.092,0 -1.092,0 0,0 0,0.584 0,1.092 l 0,14.535 -3.573,0 0,-15.813 c 0,-1.726 1.425,-3.113 3.129,-3.113 l 9.161,0 L 0,0"
         id="path38"
         style="fill:#29559b;fill-opacity:1;fill-rule:nonzero;stroke:none" /></g><g
       transform="translate(62.375045,68.436861)"
       id="g40"
       style="fill:#29559b;fill-opacity:1"><path
         d="M 0,0 C 0.472,3.095 2.098,4.96 5.113,4.96 8.806,4.96 9.863,1.995 9.873,0 L 0,0 z m 4.945,8.403 c -5.896,-0.008 -8.873,-4.271 -8.889,-9.732 0.014,-5.455 3.555,-9.616 9.457,-9.626 3.782,0 6.424,1.674 7.6,2.775 l -1.71,2.801 C 10.622,-6.124 9.217,-7.55 5.611,-7.55 c -2.648,0 -5.599,1.914 -5.599,4.219 l -0.007,0.186 13.402,0 0.004,0.022 C 14.452,4.416 11.063,8.403 4.945,8.403"
         id="path42"
         style="fill:#29559b;fill-opacity:1;fill-rule:nonzero;stroke:none" /></g><g
       transform="translate(164.64104,68.436861)"
       id="g44"
       style="fill:#29559b;fill-opacity:1"><path
         d="M 0,0 C 0.473,3.095 2.097,4.96 5.112,4.96 8.806,4.96 9.863,1.995 9.873,0 L 0,0 z m 4.946,8.403 c -5.898,-0.008 -8.873,-4.271 -8.887,-9.732 0.014,-5.455 3.551,-9.616 9.455,-9.626 3.783,0 6.424,1.674 7.6,2.775 l -1.713,2.801 c -0.78,-0.745 -2.184,-2.171 -5.79,-2.171 -2.648,0 -5.598,1.914 -5.598,4.219 l -0.009,0.186 13.402,0 0.004,0.022 C 14.453,4.416 11.064,8.403 4.946,8.403"
         id="path46"
         style="fill:#29559b;fill-opacity:1;fill-rule:nonzero;stroke:none" /></g><g
       transform="translate(-32.10169,25.895829)"
       id="g48"
       style="fill:#d72729;fill-opacity:1"><path
         d="m 0,0 c -2.652,0 -4.862,2.04 -4.862,6.341 0,4.299 2.21,6.34 4.862,6.34 1.087,0 2.073,-0.272 2.651,-0.646 L 2.022,10.487 c -0.373,0.273 -1.053,0.511 -1.818,0.511 -1.734,0 -3.078,-1.513 -3.078,-4.641 0,-3.128 1.344,-4.64 3.078,-4.64 0.765,0 1.445,0.221 1.818,0.493 L 2.651,0.646 C 2.073,0.272 1.122,0 0,0"
         id="path50"
         style="fill:#d72729;fill-opacity:1;fill-rule:nonzero;stroke:none" /></g><g
       transform="translate(-23.45069,30.689829)"
       id="g52"
       style="fill:#d72729;fill-opacity:1"><path
         d="m 0,0 c -1.87,-0.101 -3.739,-0.254 -3.739,-1.887 0,-0.968 0.747,-1.562 2.158,-1.562 0.594,0 1.291,0.1 1.581,0.237 L 0,0 z m -1.53,-4.793 c -2.635,0 -3.96,1.071 -3.96,2.873 0,2.549 2.719,3.008 5.49,3.161 l 0,0.577 c 0,1.157 -0.764,1.565 -1.938,1.565 -0.867,0 -1.921,-0.272 -2.532,-0.56 l -0.476,1.274 c 0.73,0.322 1.972,0.646 3.195,0.646 2.193,0 3.518,-0.851 3.518,-3.111 l 0,-5.779 C 1.105,-4.504 -0.238,-4.793 -1.53,-4.793"
         id="path54"
         style="fill:#d72729;fill-opacity:1;fill-rule:nonzero;stroke:none" /></g><g
       transform="translate(-17.07769,33.970829)"
       id="g56"
       style="fill:#d72729;fill-opacity:1"><path
         d="m 0,0 c -0.51,0 -1.071,-0.119 -1.326,-0.238 l 0,-6.102 c 0.239,-0.102 0.833,-0.205 1.326,-0.205 1.683,0 2.567,1.394 2.567,3.314 C 2.567,-1.241 1.665,0 0,0 z m 0.17,-7.99 c -0.561,0 -1.189,0.119 -1.496,0.222 l 0,-3.775 -1.852,0 0,12.359 c 0.646,0.34 1.886,0.645 3.144,0.645 2.856,0 4.454,-1.785 4.454,-4.692 0,-2.803 -1.479,-4.759 -4.25,-4.759"
         id="path58"
         style="fill:#d72729;fill-opacity:1;fill-rule:nonzero;stroke:none" /></g><g
       transform="translate(-11.50269,26.083829)"
       id="g60"
       style="fill:#d72729;fill-opacity:1"><path
         d="m 1.869,0 -1.8692,0 0,9.1612 1.8692,0 L 1.869,0 z M 0,0 z m 0.934,10.827 c -0.611,0 -1.105,0.477 -1.105,1.055 0,0.577 0.494,1.053 1.105,1.053 0.612,0 1.105,-0.476 1.105,-1.053 0,-0.578 -0.493,-1.055 -1.105,-1.055"
         id="path62"
         style="fill:#d72729;fill-opacity:1;fill-rule:nonzero;stroke:none" /></g><g
       transform="translate(-5.0096898,25.964829)"
       id="g64"
       style="fill:#d72729;fill-opacity:1"><path
         d="m 0,0 c -1.615,0 -2.515,0.901 -2.515,2.685 l 0,5.202 -1.241,0 0,1.393 1.241,0 0,2.125 1.819,0.561 0,-2.686 1.852,0 0,-1.393 -1.852,0 0,-5.1 c 0,-0.833 0.544,-1.155 1.223,-1.155 0.222,0 0.476,0.05 0.629,0.119 l 0,-1.547 C 0.936,0.101 0.476,0 0,0"
         id="path66"
         style="fill:#d72729;fill-opacity:1;fill-rule:nonzero;stroke:none" /></g><g
       transform="translate(2.1953102,30.689829)"
       id="g68"
       style="fill:#d72729;fill-opacity:1"><path
         d="m 0,0 c -1.87,-0.101 -3.739,-0.254 -3.739,-1.887 0,-0.968 0.747,-1.562 2.158,-1.562 0.594,0 1.291,0.1 1.581,0.237 L 0,0 z m -1.53,-4.793 c -2.635,0 -3.961,1.071 -3.961,2.873 0,2.549 2.72,3.008 5.491,3.161 l 0,0.577 c 0,1.157 -0.765,1.565 -1.939,1.565 -0.866,0 -1.92,-0.272 -2.532,-0.56 l -0.476,1.274 c 0.731,0.322 1.972,0.646 3.196,0.646 2.193,0 3.518,-0.851 3.518,-3.111 l 0,-5.779 C 1.104,-4.504 -0.238,-4.793 -1.53,-4.793"
         id="path70"
         style="fill:#d72729;fill-opacity:1;fill-rule:nonzero;stroke:none" /></g><path
       d="m 5.4403102,26.083829 1.869,0 0,13.343 -1.869,0 0,-13.343 z"
       id="path72"
       style="fill:#d72729;fill-opacity:1;fill-rule:nonzero;stroke:none" /><g
       transform="translate(15,781.346)"
       id="g82"><path
         d="M 0,0 -15,0"
         id="path84"
         style="fill:none;stroke:#ffffff;stroke-width:1.25;stroke-linecap:butt;stroke-linejoin:miter;stroke-miterlimit:10;stroke-opacity:1;stroke-dasharray:none" /><g
         transform="translate(596.693,0)"
         id="g86"><path
           d="M 0,0 15,0"
           id="path88"
           style="fill:none;stroke:#ffffff;stroke-width:1.25;stroke-linecap:butt;stroke-linejoin:miter;stroke-miterlimit:10;stroke-opacity:1;stroke-dasharray:none" /><g
           transform="translate(-596.693,-738)"
           id="g90"><path
             d="M 0,0 -15,0"
             id="path92"
             style="fill:none;stroke:#ffffff;stroke-width:1.25;stroke-linecap:butt;stroke-linejoin:miter;stroke-miterlimit:10;stroke-opacity:1;stroke-dasharray:none" /><g
             transform="translate(596.693,0)"
             id="g94"><path
               d="M 0,0 15,0"
               id="path96"
               style="fill:none;stroke:#ffffff;stroke-width:1.25;stroke-linecap:butt;stroke-linejoin:miter;stroke-miterlimit:10;stroke-opacity:1;stroke-dasharray:none" /><g
               transform="translate(-568.346,766.346)"
               id="g98"><path
                 d="M 0,0 0,15"
                 id="path100"
                 style="fill:none;stroke:#ffffff;stroke-width:1.25;stroke-linecap:butt;stroke-linejoin:miter;stroke-miterlimit:10;stroke-opacity:1;stroke-dasharray:none" /><g
                 transform="translate(0,-794.693)"
                 id="g102"><path
                   d="M 0,0 0,-15"
                   id="path104"
                   style="fill:none;stroke:#ffffff;stroke-width:1.25;stroke-linecap:butt;stroke-linejoin:miter;stroke-miterlimit:10;stroke-opacity:1;stroke-dasharray:none" /><g
                   transform="translate(540,794.693)"
                   id="g106"><path
                     d="M 0,0 0,15"
                     id="path108"
                     style="fill:none;stroke:#ffffff;stroke-width:1.25;stroke-linecap:butt;stroke-linejoin:miter;stroke-miterlimit:10;stroke-opacity:1;stroke-dasharray:none" /><g
                     transform="translate(0,-794.693)"
                     id="g110"><path
                       d="M 0,0 0,-15"
                       id="path112"
                       style="fill:none;stroke:#ffffff;stroke-width:1.25;stroke-linecap:butt;stroke-linejoin:miter;stroke-miterlimit:10;stroke-opacity:1;stroke-dasharray:none" /></g></g></g></g></g></g></g></g><g
       transform="translate(-295.42484,-369.47436)"
       id="g3045"
       style="fill:#d72729;fill-opacity:1"><g
         clip-path="url(#clipPath3049)"
         id="g3047"
         style="fill:#d72729;fill-opacity:1"><text
           transform="matrix(0.85593553,0,0,-1,66.2112,635.8194)"
           id="text3053"
           style="fill:#d72729;fill-opacity:1"><tspan
             x="0 10.111065 19.403696 33.197712 42.217533"
             y="0"
             id="tspan3055"
             style="font-size:17.05069923px;font-variant:normal;font-weight:bold;font-stretch:normal;writing-mode:lr-tb;fill:#d72729;fill-opacity:1;fill-rule:nonzero;stroke:none;font-family:Precious Sans;-inkscape-font-specification:PreciousSans-Bold">Power</tspan></text>
</g></g><g
       transform="translate(-295.71456,-382.51188)"
       id="g3059"
       style="fill:#29559b;fill-opacity:1"><g
         clip-path="url(#clipPath3063)"
         id="g3061"
         style="fill:#29559b;fill-opacity:1"><g
           transform="translate(164.205,687.7859)"
           id="g3067"
           style="fill:#29559b;fill-opacity:1"><path
             d="m 0,0 3.655,0 0,-17.401 c 0,-1.541 -1.459,-1.783 -1.945,-1.783 -0.799,0 -1.281,0.548 -1.554,0.855 l -10.047,12.786 0,-13.378 -3.642,0 0,17.685 c 0,0.778 0.657,1.73 2.007,1.73 0.964,0 1.382,-0.42 1.648,-0.71 L 0,-12.636 0,0 z"
             id="path3069"
             style="fill:#29559b;fill-opacity:1;fill-rule:nonzero;stroke:none" /></g><g
           transform="translate(71.1389,684.4139)"
           id="g3071"
           style="fill:#29559b;fill-opacity:1"><path
             d="m 0,0 0,-4.771 4.388,0 c 2.136,0 3.181,0.474 3.181,2.4 C 7.569,-0.421 6.524,0 4.388,0 L 0,0 z m 5.243,3.372 c 4.032,0 5.954,-1.711 5.954,-5.693 0,-2.926 -1.231,-4.796 -3.439,-5.323 l 4.246,-7.907 -4.032,0 -3.852,7.635 -4.12,0 0,-7.635 -3.582,0 0,18.923 8.825,0 z"
             id="path3073"
             style="fill:#29559b;fill-opacity:1;fill-rule:nonzero;stroke:none" /></g><path
           d="m 118.946,687.786 3.746,0 0,-18.923 -3.746,0 0,18.923 z"
           id="path3075"
           style="fill:#29559b;fill-opacity:1;fill-rule:nonzero;stroke:none" /><g
           transform="translate(173.7179,677.8279)"
           id="g3077"
           style="fill:#29559b;fill-opacity:1"><path
             d="m 0,0 c 0,-4.246 1.145,-5.668 4.11,-5.668 l 7.158,0 0,-3.297 -7.322,0 c -2.031,0 -3.595,0.186 -5.228,1.663 -1.729,1.554 -2.57,4.034 -2.57,7.462 0,6.698 2.5,9.809 7.89,9.809 l 7.23,0 0,-3.244 -7.158,0 C 1.145,6.725 0,4.694 0,0"
             id="path3079"
             style="fill:#29559b;fill-opacity:1;fill-rule:nonzero;stroke:none" /></g><g
           transform="translate(136.9662,686.1731)"
           id="g3081"
           style="fill:#29559b;fill-opacity:1"><path
             d="M 0,0 C -0.22,0.452 -0.297,0.469 -0.44,0.469 -0.584,0.469 -0.667,0.452 -0.884,0 l -8.429,-17.311 -3.876,0 9.043,18.52 c 0.965,1.973 2.096,2.826 3.706,2.826 1.607,0 2.734,-0.857 3.697,-2.826 l 9.041,-18.52 -3.861,0 L 0,0 z"
             id="path3083"
             style="fill:#29559b;fill-opacity:1;fill-rule:nonzero;stroke:none" /></g><g
           transform="translate(136.5164,680.8036)"
           id="g3085"
           style="fill:#29559b;fill-opacity:1"><path
             d="m 0,0 -5.712,-11.941 3.208,0 5.018,0 3.206,0 L 0,0 z"
             id="path3087"
             style="fill:#d72729;fill-opacity:1;fill-rule:nonzero;stroke:none" /></g><g
           transform="translate(117.1174,672.1581)"
           id="g3089"
           style="fill:#29559b;fill-opacity:1"><path
             d="m 0,0 -9.51,0.001 -1.092,0 0,1.092 0,14.535 -3.573,0 0,-15.813 c 0,-1.726 1.426,-3.113 3.129,-3.113 l 9.161,0 L 0,0 z"
             id="path3091"
             style="fill:#29559b;fill-opacity:1;fill-rule:nonzero;stroke:none" /></g><g
           transform="translate(87.3208,679.6426)"
           id="g3093"
           style="fill:#29559b;fill-opacity:1"><path
             d="M 0,0 C 0.472,3.095 2.098,4.96 5.113,4.96 8.806,4.96 9.863,1.995 9.873,0 L 0,0 z m 4.945,8.403 c -5.896,-0.008 -8.873,-4.271 -8.889,-9.732 0.014,-5.455 3.555,-9.616 9.457,-9.626 3.782,0 6.424,1.675 7.6,2.775 l -1.71,2.801 C 10.622,-6.124 9.217,-7.55 5.611,-7.55 c -2.648,0 -5.599,1.914 -5.599,4.219 l -0.007,0.186 13.402,0 0.004,0.022 C 14.452,4.417 11.063,8.403 4.945,8.403"
             id="path3095"
             style="fill:#29559b;fill-opacity:1;fill-rule:nonzero;stroke:none" /></g><g
           transform="translate(189.5864,679.6426)"
           id="g3097"
           style="fill:#29559b;fill-opacity:1"><path
             d="M 0,0 C 0.473,3.095 2.097,4.96 5.112,4.96 8.806,4.96 9.863,1.995 9.873,0 L 0,0 z m 4.946,8.403 c -5.898,-0.008 -8.873,-4.271 -8.887,-9.732 0.014,-5.455 3.551,-9.616 9.455,-9.626 3.783,0 6.424,1.675 7.6,2.775 l -1.713,2.801 c -0.78,-0.745 -2.184,-2.171 -5.79,-2.171 -2.648,0 -5.598,1.914 -5.598,4.219 l -0.009,0.186 13.402,0 0.004,0.022 C 14.453,4.417 11.064,8.403 4.946,8.403"
             id="path3099"
             style="fill:#29559b;fill-opacity:1;fill-rule:nonzero;stroke:none" /></g></g></g><path
       d="m 46.455843,41.715124 c -2.4636,0 -4.1919,1.7674 -4.1919,4.8112 0,3.0441 1.7923,4.8107 4.2953,4.8107 0.9406,0 1.8298,-0.2067 2.295,-0.491 l -0.4768,-1.1472 c -0.3742,0.2189 -0.9941,0.3997 -1.7674,0.3997 -1.5738,0 -2.8891,-1.1219 -2.8891,-3.5722 0,-2.4505 1.2764,-3.5861 2.6439,-3.5861 0.5686,0 1.0579,0.0916 1.2379,0.1942 l 0,2.9914 -1.7147,0 0,1.1228 3.0815,0 0,-5.0434 c -0.4895,-0.2704 -1.4057,-0.4901 -2.5137,-0.4901"
       id="path4223"
       style="fill:#d72729;fill-opacity:1;fill-rule:evenodd;stroke:none" /><path
       d="m 52.942043,47.919324 c -1.0834,0 -1.7923,-0.8258 -1.8181,-2.27 l 3.365,0.4643 c -0.0119,1.2126 -0.618,1.8057 -1.5469,1.8057 z m 2.8894,-2.5538 -4.6177,-0.6454 c 0.1423,-1.2507 0.9544,-1.8831 2.1283,-1.8831 0.6962,0 1.4454,0.1678 1.9216,0.4261 l 0.4121,-1.0579 c -0.5414,-0.2838 -1.4694,-0.4901 -2.4242,-0.4901 -2.192,0 -3.4171,1.4057 -3.4171,3.6241 0,2.1282 1.1863,3.6119 3.1334,3.6119 1.8062,0 2.876,-1.1872 2.876,-3.0569 0,-0.167 0,-0.3478 -0.0124,-0.5287"
       id="path4225"
       style="fill:#d72729;fill-opacity:1;fill-rule:evenodd;stroke:none" /><path
       d="m 60.809843,41.857124 0,4.6434 c 0,0.8127 -0.4901,1.3156 -1.4578,1.3156 -0.5165,0 -0.9924,-0.0902 -1.2773,-0.207 l 0,-5.752 -1.4054,0 0,6.6044 c 0.6967,0.2826 1.586,0.4896 2.6708,0.4896 1.946,0 2.8879,-0.8518 2.8879,-2.3219 l 0,-4.7721 -1.4182,0 z"
       id="path4227"
       style="fill:#d72729;fill-opacity:1;fill-rule:evenodd;stroke:none" /><path
       d="m 66.161143,47.919324 c -1.0834,0 -1.7929,-0.8258 -1.8187,-2.27 l 3.3661,0.4643 c -0.0127,1.2126 -0.6188,1.8057 -1.5474,1.8057 z m 2.8891,-2.5538 -4.6168,-0.6454 c 0.1414,-1.2507 0.9538,-1.8831 2.1274,-1.8831 0.6956,0 1.4448,0.1678 1.9216,0.4261 l 0.413,-1.0579 c -0.5423,-0.2838 -1.4709,-0.4901 -2.4253,-0.4901 -2.1921,0 -3.4175,1.4057 -3.4175,3.6241 0,2.1282 1.1869,3.6119 3.1343,3.6119 1.8054,0 2.8757,-1.1872 2.8757,-3.0569 3e-4,-0.167 0,-0.3478 -0.0124,-0.5287"
       id="path4229"
       style="fill:#d72729;fill-opacity:1;fill-rule:evenodd;stroke:none" /><path
       d="m 73.098643,47.725924 c -0.2064,0.0511 -0.4507,0.0774 -0.7095,0.0774 -0.3997,0 -0.8255,-0.0646 -1.0962,-0.1808 l 0,-5.7654 -1.4054,0 0,6.6044 c 0.6704,0.2826 1.6631,0.4896 2.6946,0.4896 0.3101,0 0.5811,-0.0139 0.7878,-0.0511 l -0.2713,-1.1741 z"
       id="path4231"
       style="fill:#d72729;fill-opacity:1;fill-rule:evenodd;stroke:none" /><path
       d="m 77.596943,45.353324 c -1.4182,-0.0779 -2.8372,-0.1941 -2.8372,-1.4332 0,-0.735 0.5672,-1.186 1.6376,-1.186 0.4513,0 0.9802,0.0777 1.1996,0.1812 l 0,2.438 z m -1.1602,-3.6382 c -1.999,0 -3.0056,0.8127 -3.0056,2.1804 0,1.9343 2.0645,2.2824 4.1658,2.3984 l 0,0.4382 c 0,0.877 -0.5805,1.1872 -1.4703,1.1872 -0.6574,0 -1.4565,-0.2073 -1.9216,-0.4255 l -0.3609,0.9677 c 0.5548,0.2447 1.4959,0.4896 2.4242,0.4896 1.6651,0 2.6694,-0.6449 2.6694,-2.3604 l 0,-4.3855 c -0.5032,-0.2704 -1.5208,-0.4901 -2.501,-0.4901"
       id="path4233"
       style="fill:#d72729;fill-opacity:1;fill-rule:evenodd;stroke:none" /><path
       d="m 80.060245,41.857124 0,10.1242 1.4182,0 0,-10.1242 -1.4182,0 z"
       id="path4235"
       style="fill:#d72729;fill-opacity:1;fill-rule:evenodd;stroke:none" /><path
       d="m 85.399345,41.857124 0,9.3376 1.4564,0 0,-9.3376 -1.4564,0 z"
       id="path4237"
       style="fill:#d72729;fill-opacity:1;fill-rule:evenodd;stroke:none" /><path
       d="m 92.171045,41.857124 0,4.6434 c 0,0.8127 -0.491,1.3156 -1.4588,1.3156 -0.5156,0 -0.9927,-0.0902 -1.2764,-0.207 l 0,-5.752 -1.4057,0 0,6.6044 c 0.6968,0.2826 1.586,0.4896 2.6697,0.4896 1.9471,0 2.889,-0.8518 2.889,-2.3219 l 0,-4.7721 -1.4178,0 z"
       id="path4239"
       style="fill:#d72729;fill-opacity:1;fill-rule:evenodd;stroke:none" /><path
       d="m 96.438545,41.715124 c -0.8127,0 -1.6631,0.2197 -2.1671,0.4901 l 0.4768,1.0839 c 0.3623,-0.2196 1.1225,-0.4521 1.6506,-0.4521 0.7623,0 1.2648,0.375 1.2648,0.955 0,0.6324 -0.5289,0.8768 -1.2384,1.1356 -0.9286,0.3478 -1.9729,0.7724 -1.9729,2.0761 3e-4,1.1471 0.8892,1.9474 2.4366,1.9474 0.8388,0 1.535,-0.207 2.0248,-0.4896 l -0.4376,-0.9805 c -0.309,0.1931 -0.9298,0.4119 -1.4315,0.4119 -0.7354,0 -1.1484,-0.3864 -1.1484,-0.8892 0,-0.633 0.5165,-0.8513 1.1997,-1.1095 0.9677,-0.3611 2.0381,-0.7614 2.0381,-2.1144 0,-1.252 -0.9545,-2.0647 -2.6955,-2.0647"
       id="path4241"
       style="fill:#d72729;fill-opacity:1;fill-rule:evenodd;stroke:none" /><path
       d="m 102.74455,41.715124 c -1.8312,0 -2.811703,0.7611 -2.811703,2.5021 l 0,4.5916 1.406503,0 0,-4.6168 c 0,-0.8907 0.4768,-1.3156 1.4052,-1.3156 0.5419,0 1.0054,0.091 1.239,0.1931 l 0,5.7393 1.4057,0 0,-6.6036 c -0.5681,-0.2838 -1.5866,-0.4901 -2.6447,-0.4901"
       id="path4243"
       style="fill:#d72729;fill-opacity:1;fill-rule:evenodd;stroke:none" /><path
       d="m 109.68345,47.725924 c -0.2064,0.0511 -0.4507,0.0774 -0.7104,0.0774 -0.3997,0 -0.8249,-0.0646 -1.0953,-0.1808 l 0,-5.7654 -1.4062,0 0,6.6044 c 0.6709,0.2826 1.6636,0.4896 2.6951,0.4896 0.3104,0 0.5803,-0.0139 0.7872,-0.0511 l -0.2704,-1.1741 z"
       id="path4245"
       style="fill:#d72729;fill-opacity:1;fill-rule:evenodd;stroke:none" /><path
       d="m 114.18205,45.353324 c -1.4188,-0.0779 -2.8378,-0.1941 -2.8378,-1.4332 3e-4,-0.735 0.5672,-1.186 1.6376,-1.186 0.4513,0 0.9802,0.0777 1.2002,0.1812 l 0,2.438 z m -1.1605,-3.6382 c -1.9999,0 -3.0059,0.8127 -3.0059,2.1804 0,1.9343 2.0636,2.2824 4.1664,2.3984 l 0,0.4382 c 0,0.877 -0.5811,1.1872 -1.4715,1.1872 -0.6576,0 -1.4564,-0.2073 -1.9207,-0.4255 l -0.3617,0.9677 c 0.5553,0.2447 1.4964,0.4896 2.4244,0.4896 1.664,0 2.67,-0.6449 2.67,-2.3604 l 0,-4.3855 c -0.5026,-0.2704 -1.5217,-0.4901 -2.501,-0.4901"
       id="path4247"
       style="fill:#d72729;fill-opacity:1;fill-rule:evenodd;stroke:none" /><path
       d="m 120.74535,41.857124 0,4.6434 c 0,0.8127 -0.4892,1.3156 -1.4576,1.3156 -0.5153,0 -0.9927,-0.0902 -1.2773,-0.207 l 0,-5.752 -1.4057,0 0,6.6044 c 0.6971,0.2826 1.5869,0.4896 2.6703,0.4896 1.9474,0 2.8885,-0.8518 2.8885,-2.3219 l 0,-4.7721 -1.4182,0 z"
       id="path4249"
       style="fill:#d72729;fill-opacity:1;fill-rule:evenodd;stroke:none" /><path
       d="m 126.04525,41.715124 c -1.5471,0 -3.0563,1.1089 -3.0563,3.6241 0,2.5151 1.5092,3.6119 3.0563,3.6119 0.7617,0 1.355,-0.1942 1.7799,-0.4774 l -0.4637,-1.0193 c -0.2832,0.2072 -0.7093,0.3356 -1.1356,0.3356 -0.928,0 -1.7799,-0.7353 -1.7799,-2.4367 0,-1.7025 0.8776,-2.4514 1.7799,-2.4514 0.4263,0 0.8524,0.1299 1.1356,0.3354 l 0.4637,-1.0443 c -0.4379,-0.2971 -1.0182,-0.4779 -1.7799,-0.4779"
       id="path4251"
       style="fill:#d72729;fill-opacity:1;fill-rule:evenodd;stroke:none" /><path
       d="m 131.10175,47.919324 c -1.0845,0 -1.7932,-0.8258 -1.8201,-2.27 l 3.3667,0.4643 c -0.0119,1.2126 -0.6194,1.8057 -1.5466,1.8057 z m 2.8882,-2.5538 -4.6182,-0.6454 c 0.1423,-1.2507 0.9544,-1.8831 2.1288,-1.8831 0.6971,0 1.4448,0.1678 1.9211,0.4261 l 0.4138,-1.0579 c -0.5417,-0.2838 -1.4712,-0.4901 -2.4242,-0.4901 -2.1937,0 -3.4197,1.4057 -3.4197,3.6241 3e-4,2.1282 1.1877,3.6119 3.1351,3.6119 1.8054,0 2.8758,-1.1872 2.8758,-3.0569 3e-4,-0.167 0,-0.3478 -0.0125,-0.5287"
       id="path4253"
       style="fill:#d72729;fill-opacity:1;fill-rule:evenodd;stroke:none" /></g></svg>