<?xml version="1.0" encoding="UTF-8" standalone="no"?>
<!-- Created with Inkscape (http://www.inkscape.org/) -->

<svg
   xmlns:dc="http://purl.org/dc/elements/1.1/"
   xmlns:cc="http://creativecommons.org/ns#"
   xmlns:rdf="http://www.w3.org/1999/02/22-rdf-syntax-ns#"
   xmlns:svg="http://www.w3.org/2000/svg"
   xmlns="http://www.w3.org/2000/svg"
   version="1.1"
   width="99"
   height="76"
   id="svg2"
   xml:space="preserve"><metadata
     id="metadata8"><rdf:RDF><cc:Work
         rdf:about=""><dc:format>image/svg+xml</dc:format><dc:type
           rdf:resource="http://purl.org/dc/dcmitype/StillImage" /><dc:title></dc:title></cc:Work></rdf:RDF></metadata><defs
     id="defs6"><clipPath
       id="clipPath18"><path
         d="m 0,792 611.995,0 0,-600.585 L 0,191.415 0,792 z"
         id="path20" /></clipPath><clipPath
       id="clipPath96"><path
         d="m 102.798,152.272 0,1.052 89.088,0 0,-1.052 -89.088,0"
         id="path98" /></clipPath><clipPath
       id="clipPath108"><path
         d="m 102.798,153.267 0,1.053 90.088,0 0,-1.053 -90.088,0"
         id="path110" /></clipPath><clipPath
       id="clipPath120"><path
         d="m 101.797,154.263 0,1.052 92.09,0 0,-1.052 -92.09,0"
         id="path122" /></clipPath><clipPath
       id="clipPath132"><path
         d="m 101.797,155.258 0,2.048 93.09,0 0,-2.048 -93.09,0"
         id="path134" /></clipPath><clipPath
       id="clipPath144"><path
         d="m 100.797,157.25 0,2.048 94.09,0 0,-2.048 -94.09,0"
         id="path146" /></clipPath><clipPath
       id="clipPath156"><path
         d="m 100.797,159.241 0,1.053 95.09,0 0,-1.053 -95.09,0"
         id="path158" /></clipPath><clipPath
       id="clipPath168"><path
         d="m 99.797,160.237 0,2.048 96.09,0 0,-2.048 -96.09,0"
         id="path170" /></clipPath><clipPath
       id="clipPath180"><path
         d="m 98.796,162.228 0,3.044 97.091,0 0,-3.044 -97.091,0"
         id="path182" /></clipPath><clipPath
       id="clipPath192"><path
         d="m 97.796,165.215 0,9.018 98.091,0 0,-9.018 -98.091,0"
         id="path194" /></clipPath><clipPath
       id="clipPath204"><path
         d="m 97.796,174.176 0,3.044 97.091,0 0,-3.044 -97.091,0"
         id="path206" /></clipPath><clipPath
       id="clipPath216"><path
         d="m 97.796,177.163 0,1.053 96.091,0 0,-1.053 -96.091,0"
         id="path218" /></clipPath><clipPath
       id="clipPath228"><path
         d="m 97.796,178.159 0,1.052 95.09,0 0,-1.052 -95.09,0"
         id="path230" /></clipPath><clipPath
       id="clipPath240"><path
         d="m 97.796,179.154 0,1.053 94.09,0 0,-1.053 -94.09,0"
         id="path242" /></clipPath><clipPath
       id="clipPath252"><path
         d="m 215.84,179.154 0,1.053 16.062,0 0,-1.053 -16.062,0"
         id="path254" /></clipPath><clipPath
       id="clipPath264"><path
         d="m 120.804,180.15 0,1.053 69.082,0 0,-1.053 -69.082,0"
         id="path266" /></clipPath><clipPath
       id="clipPath276"><path
         d="m 214.839,180.15 0,1.053 28.067,0 0,-1.053 -28.067,0"
         id="path278" /></clipPath><clipPath
       id="clipPath288"><path
         d="m 213.839,181.146 0,1.052 30.067,0 0,-1.052 -30.067,0"
         id="path290" /></clipPath><clipPath
       id="clipPath300"><path
         d="m 213.839,182.142 0,1.052 32.068,0 0,-1.052 -32.068,0"
         id="path302" /></clipPath><clipPath
       id="clipPath312"><path
         d="m 120.804,181.146 0,4.039 66.081,0 0,-4.039 -66.081,0"
         id="path314" /></clipPath><clipPath
       id="clipPath324"><path
         d="m 213.839,183.137 0,2.048 33.068,0 0,-2.048 -33.068,0"
         id="path326" /></clipPath><clipPath
       id="clipPath336"><path
         d="m 49.778,185.128 0,1.053 54.076,0 0,-1.053 -54.076,0"
         id="path338" /></clipPath><clipPath
       id="clipPath348"><path
         d="m 110.801,185.128 0,1.053 136.104,0 0,-1.053 -136.104,0"
         id="path350" /></clipPath><clipPath
       id="clipPath360"><path
         d="m 48.778,186.124 0,1.053 57.077,0 0,-1.053 -57.077,0"
         id="path362" /></clipPath><clipPath
       id="clipPath372"><path
         d="m 108.8,186.124 0,1.053 138.106,0 0,-1.053 -138.106,0"
         id="path374" /></clipPath><clipPath
       id="clipPath384"><path
         d="m 48.778,187.12 0,13 198.127,0 0,-13 -198.127,0"
         id="path386" /></clipPath><clipPath
       id="clipPath396"><path
         d="m 45.777,200.064 0,1.052 201.128,0 0,-1.052 -201.128,0"
         id="path398" /></clipPath><clipPath
       id="clipPath408"><path
         d="m 44.776,201.059 0,2.048 202.129,0 0,-2.048 -202.129,0"
         id="path410" /></clipPath><clipPath
       id="clipPath420"><path
         d="m 44.776,203.051 0,1.052 201.128,0 0,-1.052 -201.128,0"
         id="path422" /></clipPath><clipPath
       id="clipPath432"><path
         d="m 44.776,204.046 0,1.053 199.128,0 0,-1.053 -199.128,0"
         id="path434" /></clipPath><clipPath
       id="clipPath444"><path
         d="m 44.776,205.042 0,9.018 197.127,0 0,-9.018 -197.127,0"
         id="path446" /></clipPath><clipPath
       id="clipPath456"><path
         d="m 104.799,214.003 0,1.052 32.068,0 0,-1.052 -32.068,0"
         id="path458" /></clipPath><clipPath
       id="clipPath468"><path
         d="m 160.819,214.003 0,1.052 16.062,0 0,-1.052 -16.062,0"
         id="path470" /></clipPath><clipPath
       id="clipPath480"><path
         d="m 105.799,214.999 0,1.052 31.068,0 0,-1.052 -31.068,0"
         id="path482" /></clipPath><clipPath
       id="clipPath492"><path
         d="m 160.819,214.999 0,1.052 17.063,0 0,-1.052 -17.063,0"
         id="path494" /></clipPath><clipPath
       id="clipPath504"><path
         d="m 106.799,215.994 0,1.053 30.068,0 0,-1.053 -30.068,0"
         id="path506" /></clipPath><clipPath
       id="clipPath516"><path
         d="m 160.819,215.994 0,1.053 18.063,0 0,-1.053 -18.063,0"
         id="path518" /></clipPath><clipPath
       id="clipPath528"><path
         d="m 107.8,216.99 0,1.052 29.066,0 0,-1.052 -29.066,0"
         id="path530" /></clipPath><clipPath
       id="clipPath540"><path
         d="m 160.819,216.99 0,1.052 19.064,0 0,-1.052 -19.064,0"
         id="path542" /></clipPath><clipPath
       id="clipPath552"><path
         d="m 44.776,214.003 0,5.035 41.071,0 0,-5.035 -41.071,0"
         id="path554" /></clipPath><clipPath
       id="clipPath564"><path
         d="m 108.8,217.986 0,1.052 28.066,0 0,-1.052 -28.066,0"
         id="path566" /></clipPath><clipPath
       id="clipPath576"><path
         d="m 160.819,217.986 0,1.052 20.064,0 0,-1.052 -20.064,0"
         id="path578" /></clipPath><clipPath
       id="clipPath588"><path
         d="m 45.777,218.981 0,1.053 39.07,0 0,-1.053 -39.07,0"
         id="path590" /></clipPath><clipPath
       id="clipPath600"><path
         d="m 110.801,218.981 0,1.053 70.081,0 0,-1.053 -70.081,0"
         id="path602" /></clipPath><clipPath
       id="clipPath612"><path
         d="m 113.802,219.977 0,1.053 67.08,0 0,-1.053 -67.08,0"
         id="path614" /></clipPath><clipPath
       id="clipPath624"><path
         d="m 118.804,220.973 0,3.043 62.078,0 0,-3.043 -62.078,0"
         id="path626" /></clipPath><clipPath
       id="clipPath636"><path
         d="m 117.803,223.96 0,2.048 63.079,0 0,-2.048 -63.079,0"
         id="path638" /></clipPath><clipPath
       id="clipPath648"><path
         d="m 116.803,225.951 0,3.044 64.079,0 0,-3.044 -64.079,0"
         id="path650" /></clipPath><clipPath
       id="clipPath660"><path
         d="m 115.802,228.938 0,2.048 65.08,0 0,-2.048 -65.08,0"
         id="path662" /></clipPath><clipPath
       id="clipPath672"><path
         d="m 114.802,230.929 0,3.044 66.08,0 0,-3.044 -66.08,0"
         id="path674" /></clipPath><clipPath
       id="clipPath684"><path
         d="m 113.802,233.916 0,2.048 67.08,0 0,-2.048 -67.08,0"
         id="path686" /></clipPath><clipPath
       id="clipPath696"><path
         d="m 112.801,235.908 0,1.052 67.081,0 0,-1.052 -67.081,0"
         id="path698" /></clipPath><clipPath
       id="clipPath708"><path
         d="m 112.801,236.903 0,1.053 66.081,0 0,-1.053 -66.081,0"
         id="path710" /></clipPath><clipPath
       id="clipPath720"><path
         d="m 111.801,237.899 0,1.053 55.076,0 0,-1.053 -55.076,0"
         id="path722" /></clipPath><clipPath
       id="clipPath732"><path
         d="m 110.801,238.895 0,2.048 56.076,0 0,-2.048 -56.076,0"
         id="path734" /></clipPath><clipPath
       id="clipPath744"><path
         d="m 110.801,240.886 0,3.044 55.076,0 0,-3.044 -55.076,0"
         id="path746" /></clipPath><clipPath
       id="clipPath756"><path
         d="m 110.801,243.873 0,1.053 54.076,0 0,-1.053 -54.076,0"
         id="path758" /></clipPath><clipPath
       id="clipPath768"><path
         d="m 110.801,244.869 0,1.052 53.075,0 0,-1.052 -53.075,0"
         id="path770" /></clipPath><clipPath
       id="clipPath780"><path
         d="m 110.801,245.864 0,1.053 52.075,0 0,-1.053 -52.075,0"
         id="path782" /></clipPath><clipPath
       id="clipPath792"><path
         d="m 110.801,246.86 0,1.052 51.074,0 0,-1.052 -51.074,0"
         id="path794" /></clipPath><clipPath
       id="clipPath804"><path
         d="m 110.801,247.856 0,5.035 44.072,0 0,-5.035 -44.072,0"
         id="path806" /></clipPath><clipPath
       id="clipPath826"><path
         d="m 0,19.58 611.995,0 0,-19.52 L 0,0.06 0,19.58 z"
         id="path828" /></clipPath><clipPath
       id="clipPath840"><path
         d="m 182.182,92.8 c 0,-16.597 -17.413,-30.049 -38.894,-30.049 -21.481,0 -38.897,13.452 -38.897,30.049 0,16.594 17.416,30.05 38.897,30.05 21.481,0 38.894,-13.456 38.894,-30.05"
         id="path842" /></clipPath></defs><g
     transform="matrix(1.25,0,0,-1.25,0,76)"
     id="g10"><path
       d="m 78.50666,30.018822 c 0,-16.597 -17.413,-30.04899987 -38.894,-30.04899987 -21.481,0 -38.8969996,13.45199987 -38.8969996,30.04899987 0,16.594 17.4159996,30.05 38.8969996,30.05 21.481,0 38.894,-13.456 38.894,-30.05"
       id="path834"
       style="fill:#ffffff;fill-opacity:1;fill-rule:evenodd;stroke:none" /><g
       transform="translate(-103.67534,-62.781178)"
       id="g836"><g
         clip-path="url(#clipPath840)"
         id="g838"><path
           d="m 158.941,83.677 c -0.176,-0.229 -0.404,-0.364 -0.673,-0.41 0.044,-0.182 0.18,-0.317 0.314,-0.455 0.183,-0.092 0.359,-0.135 0.541,-0.135 l 0.044,0 c 0.179,0 0.268,0.043 0.445,0.135 0.181,0.089 0.314,0.225 0.452,0.412 l 0,1.865 -1.079,0 c 0.09,-0.138 0.138,-0.274 0.182,-0.365 0.043,-0.136 0.087,-0.228 0.087,-0.273 0,-0.184 -0.044,-0.319 -0.087,-0.456 -0.044,-0.088 -0.136,-0.227 -0.226,-0.318 z m 2.586,-6.22 c -0.366,0 -0.665,-0.269 -0.665,-0.595 l -0.009,0 0,-0.987 1.365,0 0,0.987 c 0,0.326 -0.325,0.595 -0.691,0.595 z m -6.544,0.059 c -0.035,0 -0.063,0 -0.09,-0.003 l -0.164,0 0,-2.433 0.29,0 0,0.007 c 0.648,0.018 1.172,0.553 1.172,1.213 0,0.672 -0.542,1.216 -1.208,1.216 z m -11.694,43.457 c -20.404,0 -37.046,-12.653 -37.046,-28.172 0,-15.518 16.642,-28.171 37.046,-28.171 20.404,0 37.041,12.653 37.041,28.171 0,15.519 -16.637,28.172 -37.041,28.172 z m -32.108,-31.245 16.282,23.405 12.947,0 -8.235,-11.777 2.331,0 8.234,11.777 12.053,0 -16.284,-23.405 -27.328,0 z m 15.604,-14.053 c -0.012,-0.89 -0.827,-1.614 -1.826,-1.614 -1,0 -1.816,0.724 -1.827,1.614 l 0,2.817 1.155,0 0,-2.802 0.007,0 c 0,-0.323 0.302,-0.593 0.665,-0.593 0.363,0 0.691,0.27 0.691,0.593 l 0,2.802 1.135,0 0,-2.817 z m 4.413,-1.614 -1.134,0 0,2.801 c 0,0.326 -0.326,0.595 -0.691,0.595 -0.365,0 -0.665,-0.269 -0.665,-0.595 l -0.007,0 0,-2.801 -1.154,0 0,2.818 c 0.011,0.891 0.825,1.613 1.826,1.613 1.001,0 1.814,-0.722 1.825,-1.613 l 0,-2.818 z m 1.814,0.05 -1.1347,0 0,4.3804 1.1347,0 0,-4.3804 z m 3.671,3.216 -0.885,0 0,-3.216 -1.135,0 0,3.216 -0.884,0 0,1.158 2.904,0 0,-1.158 z m 2.987,0.156 c -0.098,0.023 -0.203,0.033 -0.305,0.033 -0.576,0 -1.066,-0.342 -1.242,-0.82 l 1.547,0 0,-0.886 -1.506,0 c 0.204,-0.426 0.666,-0.723 1.201,-0.723 0.102,0 0.207,0.008 0.305,0.031 l 0,-1.025 c -0.102,-0.014 -0.203,-0.019 -0.305,-0.019 -1.323,0 -2.402,0.998 -2.402,2.226 0,1.229 1.079,2.23 2.402,2.23 0.102,0 0.203,-0.005 0.305,-0.022 l 0,-1.025 z m 2.355,-3.409 c -0.031,0 -0.063,0.005 -0.097,0.005 l 0,-0.018 -1.243,0 0,4.464 1.193,0 c 0.05,0.002 0.099,0.005 0.147,0.005 1.278,0 2.317,-1.001 2.317,-2.23 0,-1.228 -1.039,-2.226 -2.317,-2.226 z m 3.003,11.015 -0.716,0 0,-1.049 -1.658,0 c -0.048,0 -0.091,-0.045 -0.138,-0.045 -0.044,-0.043 -0.044,-0.043 -0.044,-0.088 0,-0.093 0.091,-0.187 0.223,-0.322 0.136,-0.137 0.269,-0.225 0.36,-0.225 0.093,0 0.179,0.041 0.359,0.088 0.135,0.047 0.268,0.092 0.358,0.092 0.223,0 0.449,-0.092 0.629,-0.227 0.179,-0.183 0.268,-0.363 0.268,-0.593 0,-0.409 -0.132,-0.684 -0.403,-0.956 -0.314,-0.273 -0.627,-0.363 -1.032,-0.363 -0.493,0 -0.986,0.182 -1.434,0.498 -0.449,0.368 -0.809,0.868 -1.124,1.461 l 0.631,0.273 c 0.179,-0.457 0.402,-0.866 0.762,-1.186 0.356,-0.273 0.762,-0.454 1.165,-0.454 0.18,0 0.359,0.089 0.538,0.227 0.134,0.139 0.223,0.274 0.223,0.5 0,0.047 -0.043,0.092 -0.089,0.14 -0.043,0 -0.134,0.041 -0.178,0.041 -0.089,0 -0.223,-0.041 -0.359,-0.089 -0.182,-0.045 -0.27,-0.045 -0.361,-0.045 -0.223,0 -0.492,0.134 -0.76,0.5 -0.314,0.318 -0.492,0.59 -0.492,0.865 0,0.093 0.085,0.231 0.178,0.319 0.135,0.089 0.27,0.137 0.449,0.137 l 1.256,0 0,0.501 -3.767,0 0,-1.275 -1.571,0 c -0.133,0 -0.312,-0.094 -0.402,-0.229 -0.136,-0.09 -0.225,-0.272 -0.225,-0.455 0,-0.318 0.133,-0.592 0.403,-0.771 0.224,-0.231 0.536,-0.323 0.898,-0.323 0.135,0 0.314,0.046 0.448,0.138 0.179,0.093 0.359,0.227 0.494,0.411 l 0.536,-0.411 c -0.179,-0.229 -0.403,-0.455 -0.628,-0.591 -0.267,-0.138 -0.583,-0.182 -0.85,-0.182 -0.539,0 -1.033,0.134 -1.39,0.498 C 137.18,82.22 137,82.677 137,83.13 c 0,0.365 0.136,0.684 0.405,0.91 0.269,0.276 0.584,0.411 0.942,0.411 l 0.851,0 0,0.638 -3.14,0 0,-1.049 -1.478,0 c -0.09,0 -0.136,-0.045 -0.179,-0.045 -0.046,-0.043 -0.046,-0.088 -0.046,-0.138 0,-0.089 0.046,-0.18 0.182,-0.317 0.087,-0.092 0.222,-0.139 0.31,-0.139 0.047,0 0.224,0 0.406,0.047 0.178,0.047 0.314,0.092 0.404,0.092 0.223,0 0.401,-0.092 0.581,-0.273 0.135,-0.137 0.224,-0.366 0.224,-0.59 0,-0.318 -0.089,-0.641 -0.313,-0.867 -0.178,-0.227 -0.403,-0.365 -0.718,-0.454 0.226,-0.184 0.494,-0.414 0.898,-0.641 l -0.358,-0.542 c -0.629,0.316 -1.032,0.681 -1.347,0.999 -0.269,0 -0.537,0.093 -0.76,0.229 -0.225,0.134 -0.316,0.27 -0.316,0.498 0,0.137 0.046,0.229 0.135,0.321 0.089,0.091 0.223,0.181 0.357,0.181 0.134,0 0.45,-0.181 0.854,-0.546 0.223,0 0.448,0.09 0.627,0.227 0.18,0.138 0.268,0.319 0.268,0.545 0,0.05 0,0.14 -0.043,0.185 -0.045,0.048 -0.089,0.089 -0.133,0.089 -0.136,0 -0.271,-0.041 -0.452,-0.089 -0.18,-0.045 -0.357,-0.045 -0.446,-0.045 -0.178,0 -0.403,0.134 -0.675,0.409 -0.268,0.272 -0.401,0.501 -0.401,0.681 0,0.228 0.089,0.368 0.267,0.549 0.181,0.134 0.406,0.182 0.674,0.182 l 0.762,0 0,0.501 -2.691,0 0,-3.777 -0.67,0 0,3.777 -1.213,0 0,-3.777 -0.718,0 0,2.228 -1.165,0 c -0.045,0 -0.09,0 -0.136,-0.045 -0.044,-0.047 -0.044,-0.094 -0.044,-0.135 l 0,-0.459 c 0,-0.089 -0.044,-0.134 -0.091,-0.181 -0.045,-0.093 -0.088,-0.093 -0.132,-0.093 -0.18,0 -0.403,0.14 -0.674,0.458 -0.268,0.316 -0.362,0.592 -0.362,0.822 0,0.088 0,0.133 0.094,0.178 0.041,0.047 0.132,0.093 0.222,0.093 l 2.288,0 0,0.911 -3.408,0 0,-3.7 c 0.157,-0.045 0.298,-0.109 0.405,-0.217 0.226,-0.23 0.314,-0.457 0.314,-0.683 0,-0.316 -0.088,-0.592 -0.36,-0.82 -0.223,-0.226 -0.538,-0.316 -0.852,-0.316 -0.404,0 -0.807,0.09 -1.21,0.273 -0.359,0.228 -0.719,0.499 -0.986,0.863 l 0.357,0.41 c 0.314,-0.318 0.629,-0.547 0.943,-0.726 0.312,-0.139 0.582,-0.229 0.896,-0.229 0.178,0 0.314,0.043 0.448,0.134 0.135,0.137 0.181,0.229 0.181,0.411 0,0.092 -0.046,0.183 -0.136,0.226 -0.09,0.093 -0.225,0.139 -0.315,0.139 -0.088,0 -0.134,-0.046 -0.222,-0.092 -0.09,-0.047 -0.179,-0.09 -0.27,-0.181 l -0.404,0.454 c 0.134,0.137 0.314,0.23 0.449,0.277 0.026,0.017 0.058,0.027 0.09,0.039 l 0,1.05 c -0.135,-0.134 -0.268,-0.227 -0.449,-0.273 -0.134,-0.092 -0.314,-0.092 -0.449,-0.092 -0.045,0 -0.045,0 -0.045,0 -0.494,0 -0.896,0.184 -1.21,0.502 -0.313,0.363 -0.494,0.822 -0.494,1.319 0.225,-0.043 0.359,-0.043 0.404,-0.043 0.18,0 0.357,0.043 0.493,0.181 0.135,0.09 0.177,0.272 0.177,0.456 0,0.089 0,0.226 -0.087,0.318 -0.044,0.137 -0.135,0.228 -0.226,0.32 l -0.986,0 0,0.636 16.191,0 -1.842,1.775 0.495,0.413 1.975,-2.188 5.111,0 0,-0.636 z m 3.365,-10.978 -1.1367,0 0,4.3804 1.1367,0 0,-4.3804 z m 4.506,-0.05 -1.139,0 0.002,2.801 c 0,0.326 -0.326,0.595 -0.692,0.595 -0.364,0 -0.664,-0.269 -0.664,-0.595 l -0.008,0 0,-2.801 -1.154,0 0,2.818 c 0.012,0.891 0.827,1.613 1.826,1.613 1.002,0 1.815,-0.722 1.827,-1.613 l 0.002,0 0,-2.818 z m 2.084,0.013 c -0.035,0 -0.063,0.005 -0.09,0.005 l 0,-0.018 -1.197,0 0,4.464 1.148,0 c 0.045,0.002 0.092,0.005 0.139,0.005 1.218,0 2.214,-1.001 2.214,-2.23 0,-1.228 -0.996,-2.226 -2.214,-2.226 z m 3.957,0.037 -1.1324,0 0,4.3804 1.1324,0 0,-4.3804 z m 4.411,-0.05 -1.136,0 0,1.026 -1.362,0 0,-1.026 -1.152,0 0,2.818 0.001,0 c 0.006,0.891 0.827,1.613 1.825,1.613 0.996,0 1.815,-0.722 1.824,-1.613 l 0,-2.818 z m 0.031,11.028 -0.674,0 0,-3.777 -0.717,0 0,3.777 -1.212,0 0,-3.777 -0.715,0 0,1.089 c -0.09,-0.134 -0.227,-0.227 -0.405,-0.273 -0.18,-0.092 -0.313,-0.092 -0.492,-0.092 l -0.044,0 c -0.449,0 -0.855,0.184 -1.168,0.502 -0.314,0.363 -0.493,0.822 -0.493,1.319 0.179,-0.043 0.314,-0.043 0.405,-0.043 0.179,0 0.357,0.043 0.493,0.181 0.088,0.09 0.177,0.272 0.177,0.456 0,0.089 -0.043,0.226 -0.089,0.318 -0.043,0.137 -0.136,0.228 -0.224,0.32 l -1.524,0 0,-1.049 -1.705,0 c -0.045,0 -0.045,-0.045 -0.09,-0.045 -0.046,-0.043 -0.046,-0.043 -0.046,-0.088 0,-0.093 0.046,-0.187 0.226,-0.322 0.136,-0.137 0.226,-0.225 0.312,-0.225 0.092,0 0.223,0.041 0.36,0.088 0.179,0.047 0.269,0.092 0.36,0.092 0.269,0 0.492,-0.092 0.627,-0.227 0.179,-0.183 0.269,-0.363 0.269,-0.593 0,-0.409 -0.135,-0.684 -0.404,-0.956 -0.268,-0.273 -0.628,-0.363 -0.989,-0.363 -0.535,0 -0.983,0.182 -1.43,0.498 -0.495,0.368 -0.855,0.868 -1.122,1.461 l 0.58,0.273 c 0.183,-0.457 0.45,-0.866 0.808,-1.186 0.36,-0.273 0.719,-0.454 1.164,-0.454 0.181,0 0.361,0.089 0.497,0.227 0.131,0.139 0.224,0.274 0.224,0.5 0,0.047 0,0.092 -0.093,0.14 -0.043,0 -0.088,0.041 -0.176,0.041 -0.091,0 -0.18,-0.041 -0.358,-0.089 -0.139,-0.045 -0.269,-0.045 -0.36,-0.045 -0.179,0 -0.449,0.134 -0.765,0.5 -0.311,0.318 -0.444,0.59 -0.444,0.865 0,0.093 0.045,0.231 0.178,0.319 0.09,0.089 0.226,0.137 0.404,0.137 l 1.254,0 0,0.501 -3.633,0 0,-3.777 -0.672,0 0,3.777 -1.346,0 0,-1.049 -1.479,0 c -0.09,0 -0.134,-0.045 -0.181,-0.045 -0.044,-0.043 -0.044,-0.088 -0.044,-0.138 0,-0.089 0.044,-0.18 0.179,-0.317 0.092,-0.092 0.182,-0.139 0.27,-0.139 0.092,0 0.226,0 0.449,0.047 0.135,0.047 0.314,0.092 0.406,0.092 0.221,0 0.4,-0.092 0.582,-0.273 0.13,-0.137 0.223,-0.366 0.223,-0.59 0,-0.318 -0.093,-0.641 -0.313,-0.867 -0.18,-0.227 -0.405,-0.365 -0.719,-0.454 0.227,-0.184 0.494,-0.414 0.854,-0.641 l -0.36,-0.542 c -0.584,0.316 -0.986,0.681 -1.3,0.999 -0.271,0 -0.538,0.093 -0.764,0.229 -0.223,0.134 -0.311,0.27 -0.311,0.498 0,0.137 0.042,0.229 0.132,0.321 0.089,0.091 0.225,0.181 0.359,0.181 0.135,0 0.404,-0.181 0.854,-0.546 0.222,0 0.446,0.09 0.628,0.227 0.178,0.138 0.267,0.319 0.267,0.545 0,0.05 -0.045,0.14 -0.045,0.185 -0.044,0.048 -0.087,0.089 -0.135,0.089 -0.134,0 -0.269,-0.041 -0.448,-0.089 -0.18,-0.045 -0.359,-0.045 -0.447,-0.045 -0.182,0 -0.404,0.134 -0.674,0.409 -0.314,0.272 -0.403,0.501 -0.403,0.681 0,0.228 0.089,0.368 0.269,0.549 0.18,0.134 0.404,0.182 0.672,0.182 l 0.762,0 0,0.501 -2.152,0 0,0.636 4.125,0 c -0.047,0.093 -0.047,0.14 -0.088,0.227 l 0,0.275 c 0,0.365 0.135,0.681 0.493,0.955 0.311,0.274 0.672,0.409 1.119,0.409 0.494,0 0.943,-0.181 1.346,-0.499 0.449,-0.365 0.765,-0.776 1.033,-1.318 l -0.719,0 c -0.181,0.363 -0.447,0.633 -0.717,0.863 -0.313,0.181 -0.629,0.271 -0.943,0.271 -0.222,0 -0.447,-0.043 -0.626,-0.181 -0.182,-0.135 -0.269,-0.32 -0.269,-0.5 0,-0.182 0,-0.362 0.087,-0.502 l 11.08,0 0,-0.636 z m -12.992,1.542 -0.65848,0 0,0.66702 0.65848,0 0,-0.66702 z m -0.658,0 z m 7.996,3.113 -8.616,10.986 8.412,12.417 17.543,-23.403 -17.339,0 z m -32.656,-5.067 c 0.046,-0.137 0.046,-0.181 0.046,-0.226 0,-0.184 0,-0.319 -0.046,-0.456 -0.045,-0.088 -0.133,-0.227 -0.225,-0.318 -0.178,-0.229 -0.45,-0.364 -0.716,-0.41 0.044,-0.182 0.179,-0.317 0.313,-0.455 0.18,-0.092 0.359,-0.135 0.583,-0.135 0,0 0,0 0.045,0 0.09,0 0.27,0.043 0.405,0.135 0.179,0.089 0.313,0.225 0.493,0.412 l 0,1.865 -1.123,0 c 0.092,-0.183 0.18,-0.32 0.225,-0.412 z m 16.953,-7.161 c -0.028,0 -0.062,0 -0.09,-0.003 l -0.179,0 0,-2.433 0.308,0 0,0.007 c 0.68,0.018 1.226,0.553 1.226,1.213 0,0.672 -0.568,1.216 -1.265,1.216"
           id="path844"
           style="fill:#034ea2;fill-opacity:1;fill-rule:evenodd;stroke:none" /></g></g></g></svg>