<svg width="290" height="63" viewBox="0 0 290 63" fill="none" xmlns="http://www.w3.org/2000/svg">
<path d="M290 0H0V63H290V0Z" fill="white"/>
<path d="M67.6226 15.4263V8.24609H71.3272V15.8633C71.3272 18.3452 71.9729 19.2427 73.4371 19.2427C74.9014 19.2427 75.5911 18.3452 75.5911 15.8633V8.23828H79.1669V15.4263C79.1669 20.1761 77.357 22.402 73.4371 22.402C69.5173 22.402 67.6226 20.1761 67.6226 15.4263Z" fill="#231F20"/>
<path d="M81.877 11.448H84.8919L85.1527 12.7311H85.2391C86.1 11.9178 87.1762 11.1904 88.6405 11.1904C91.0097 11.1904 92.001 12.9074 92.001 15.561V22.1496H88.2948V16.0308C88.2948 14.6619 87.9508 14.3138 87.2186 14.3138C86.5289 14.3138 86.1409 14.6135 85.5816 15.1255V22.1496H81.877V11.448Z" fill="#231F20"/>
<path d="M94.1943 8.28075C94.1943 7.21152 95.0553 6.44043 96.2619 6.44043C97.4685 6.44043 98.3294 7.21152 98.3294 8.28075C98.3294 9.34997 97.4685 10.1211 96.2619 10.1211C95.0553 10.1211 94.1943 9.35153 94.1943 8.28075ZM94.4096 11.4478H98.1142V22.1448H94.4096V11.4478Z" fill="#231F20"/>
<path d="M99.6208 11.4473H103.325L104.488 16.1113C104.746 17.18 105.004 18.2924 105.263 19.4485H105.349C105.609 18.2934 105.867 17.181 106.125 16.1113L107.288 11.4473H110.82L107.417 22.1442H103.153L99.6208 11.4473Z" fill="#231F20"/>
<path d="M111.547 16.7972C111.547 13.3304 114.089 11.1904 116.716 11.1904C119.904 11.1904 121.41 13.5021 121.41 16.3695C121.41 16.8865 121.358 17.4022 121.253 17.9086H115.126C115.47 19.1932 116.417 19.6256 117.624 19.6256C118.356 19.6256 119.038 19.4118 119.823 18.9841L121.03 21.1693C119.87 21.954 118.506 22.3878 117.102 22.4181C113.963 22.4025 111.547 20.3483 111.547 16.7972ZM118.267 15.5126C118.267 14.6994 117.922 13.972 116.802 13.972C115.984 13.972 115.294 14.4402 115.074 15.5126H118.267Z" fill="#231F20"/>
<path d="M123.437 11.448H126.452L126.711 13.2883H126.797C127.594 11.8335 128.799 11.1904 129.855 11.1904C130.522 11.1904 130.889 11.2763 131.19 11.4043L130.587 14.5714C130.193 14.4662 129.788 14.4085 129.38 14.3997C128.606 14.3997 127.652 14.8679 127.142 16.1978V22.1449H123.437V11.448Z" fill="#231F20"/>
<path d="M131.361 20.904L132.998 18.636C133.99 19.3649 134.873 19.7068 135.625 19.7068C136.401 19.7068 136.703 19.4929 136.703 19.0652C136.703 18.508 135.712 18.252 134.635 17.8165C133.379 17.3232 131.922 16.4117 131.922 14.6494C131.922 12.5531 133.65 11.1826 136.186 11.1826C137.952 11.1826 139.201 11.8897 140.148 12.5874L138.511 14.7727C137.737 14.217 136.983 13.8752 136.312 13.8752C135.683 13.8752 135.369 14.0453 135.369 14.473C135.369 15.0303 136.312 15.2441 137.393 15.6281C138.686 16.0964 140.15 16.9127 140.15 18.8389C140.15 20.8494 138.555 22.39 135.54 22.39C134.161 22.4025 132.482 21.8031 131.361 20.904Z" fill="#231F20"/>
<path d="M141.526 19.1074C141.526 16.8815 143.255 15.6406 147.383 15.2051C147.297 14.4356 146.824 14.0937 145.877 14.0937C145.101 14.0937 144.282 14.3919 143.162 14.9913L141.869 12.6031C143.377 11.704 144.926 11.1982 146.607 11.1982C149.407 11.1982 151.086 12.6967 151.086 16.2057V22.1527H148.073L147.814 21.1256H147.727C146.866 21.8967 145.919 22.4103 144.757 22.4103C142.731 22.4025 141.526 20.8619 141.526 19.1074ZM147.383 18.8514V17.3951C145.617 17.6526 145.058 18.2083 145.058 18.7999C145.058 19.2916 145.402 19.571 146.048 19.571C146.651 19.5788 146.995 19.2791 147.383 18.8514Z" fill="#231F20"/>
<path d="M153.495 18.3801V7.25391H157.198V18.5081C157.198 19.2355 157.542 19.4446 157.801 19.4446C157.932 19.4493 158.063 19.4351 158.189 19.4025L158.62 22.0982C158.232 22.2699 157.628 22.3979 156.81 22.3979C154.316 22.4026 153.495 20.7761 153.495 18.3801Z" fill="#231F20"/>
<path d="M163.663 20.4116L165.773 17.8876C166.764 18.679 168.013 19.2347 169.047 19.2347C170.166 19.2347 170.64 18.871 170.64 18.2513C170.64 17.5879 169.93 17.374 168.745 16.9026L167.006 16.1753C165.499 15.5759 164.178 14.3147 164.178 12.3026C164.178 9.92849 166.331 7.98047 169.389 7.98047C171.124 7.98256 172.79 8.64965 174.041 9.84264L172.191 12.1528C171.248 11.4894 170.425 11.1476 169.391 11.1476C168.486 11.1476 167.927 11.4691 167.927 12.0841C167.927 12.7475 168.723 12.9832 169.994 13.4749L171.696 14.1383C173.44 14.8235 174.429 16.0207 174.429 17.9469C174.429 20.3008 172.448 22.3971 168.961 22.3971C167.012 22.3898 165.131 21.6849 163.663 20.4116V20.4116Z" fill="#231F20"/>
<path d="M176.023 16.7972C176.023 13.2446 178.607 11.1904 181.364 11.1904C184.122 11.1904 186.706 13.2446 186.706 16.7972C186.706 20.3499 184.122 22.4025 181.364 22.4025C178.607 22.4025 176.023 20.3483 176.023 16.7972ZM182.915 16.7972C182.915 15.1708 182.483 14.1437 181.364 14.1437C180.246 14.1437 179.814 15.1708 179.814 16.7972C179.814 18.4237 180.244 19.4508 181.364 19.4508C182.484 19.4508 182.915 18.419 182.915 16.7972Z" fill="#231F20"/>
<path d="M188.857 11.4474H191.872L192.131 12.7523H192.217C193.078 11.9172 193.983 11.1914 195.448 11.1914C196.912 11.1914 197.837 11.7908 198.418 12.9084C199.301 12.0093 200.271 11.1914 201.735 11.1914C204.104 11.1914 205.138 12.9084 205.138 15.562V22.1506H201.433V16.0318C201.433 14.6629 201.089 14.3148 200.357 14.3148C199.927 14.3148 199.415 14.5708 198.849 15.1265V22.1506H195.146V16.0318C195.146 14.6629 194.8 14.3148 194.068 14.3148C193.638 14.3148 193.125 14.5708 192.561 15.1265V22.1506H188.857V11.4474Z" fill="#231F20"/>
<path d="M207.765 11.448H210.78L211.037 12.4313H211.124C211.92 11.704 212.976 11.1826 214.052 11.1826C216.593 11.1826 218.23 13.3226 218.23 16.6177C218.23 20.2983 216.03 22.3931 213.751 22.3931C212.847 22.3931 212.022 22.0075 211.339 21.3239L211.468 22.9488V25.9114H207.765V11.448ZM214.44 16.6677C214.44 14.9132 213.923 14.1858 212.932 14.1858C212.373 14.1858 211.942 14.3997 211.468 14.9569V18.8873C211.844 19.2287 212.338 19.4126 212.847 19.4008C213.708 19.4071 214.44 18.7218 214.44 16.6677Z" fill="#231F20"/>
<path d="M219.909 16.7972C219.909 13.2446 222.494 11.1904 225.251 11.1904C228.008 11.1904 230.593 13.2446 230.593 16.7972C230.593 20.3499 228.008 22.4025 225.251 22.4025C222.494 22.4025 219.909 20.3483 219.909 16.7972ZM226.8 16.7972C226.8 15.1708 226.369 14.1437 225.249 14.1437C224.129 14.1437 223.699 15.1708 223.699 16.7972C223.699 18.4237 224.129 19.4508 225.249 19.4508C226.369 19.4508 226.8 18.419 226.8 16.7972Z" fill="#231F20"/>
<path d="M67.2424 33.9435C67.2424 29.5355 70.295 27.0271 73.841 27.0271C74.6409 27.0148 75.4352 27.1624 76.1766 27.4612C76.918 27.7599 77.5913 28.2036 78.1568 28.7659L76.3249 30.9902C75.6729 30.4252 75.0224 30.0209 73.9682 30.0209C72.1772 30.0209 70.8339 31.4351 70.8339 33.8217C70.8339 36.2895 71.9337 37.6631 74.2903 37.6631C74.6454 37.6746 74.997 37.5911 75.3084 37.4212V35.6012H73.3477V32.7697H78.3971V39.0383C77.4545 39.928 75.7923 40.657 73.9195 40.657C70.2134 40.657 67.2424 38.4327 67.2424 33.9435Z" fill="#231F20"/>
<path d="M80.1456 35.3589C80.1456 32.081 82.5462 30.0596 85.0301 30.0596C88.0419 30.0596 89.4669 32.2448 89.4669 34.9546C89.469 35.4431 89.4211 35.9305 89.3239 36.4094H83.5235C83.8487 37.6238 84.7442 38.028 85.8801 38.028C86.5714 38.028 87.2234 37.8251 87.9555 37.4208L89.1008 39.4906C88.0059 40.229 86.7192 40.6367 85.3962 40.6644C82.4253 40.6566 80.1456 38.7101 80.1456 35.3589ZM86.4959 34.1445C86.4959 33.3765 86.1692 32.6897 85.1118 32.6897C84.3373 32.6897 83.6869 33.1346 83.4826 34.1445H86.4959Z" fill="#231F20"/>
<path d="M91.3789 30.3031H94.2289L94.4724 31.5159H94.5541C95.3679 30.7479 96.3859 30.0596 97.7701 30.0596C100.009 30.0596 100.945 31.6782 100.945 34.1851V40.4131H97.4449V34.6299C97.4449 33.3359 97.1181 33.0128 96.4268 33.0128C95.7748 33.0128 95.4087 33.2953 94.8793 33.7808V40.4131H91.3789V30.3031Z" fill="#231F20"/>
<path d="M102.694 35.3589C102.694 32.081 105.096 30.0596 107.578 30.0596C110.592 30.0596 112.017 32.2448 112.017 34.9546C112.019 35.4431 111.971 35.9305 111.874 36.4094H106.073C106.399 37.6238 107.294 38.028 108.43 38.028C109.121 38.028 109.773 37.8251 110.505 37.4208L111.649 39.4906C110.555 40.2292 109.269 40.6369 107.946 40.6644C104.974 40.6566 102.694 38.7101 102.694 35.3589ZM109.044 34.1445C109.044 33.3765 108.719 32.6897 107.66 32.6897C106.887 32.6897 106.235 33.1346 106.033 34.1445H109.044Z" fill="#231F20"/>
<path d="M113.929 30.3031H116.777L117.022 32.0419H117.104C117.856 30.6668 118.989 30.0596 119.993 30.0596C120.622 30.0596 120.97 30.1407 121.25 30.2625L120.681 33.2548C120.309 33.1582 119.926 33.1058 119.541 33.0987C118.808 33.0987 117.913 33.5435 117.424 34.7969V40.4162H113.929V30.3031Z" fill="#231F20"/>
<path d="M121.418 37.5426C121.418 35.4385 123.046 34.2647 126.954 33.862C126.873 33.1346 126.425 32.8099 125.529 32.8099C124.796 32.8099 124.023 33.094 122.964 33.659L121.743 31.3957C123.168 30.545 124.634 30.0596 126.221 30.0596C128.866 30.0596 130.463 31.4753 130.463 34.7923V40.4115H127.605L127.361 39.4407H127.28C126.466 40.1696 125.57 40.655 124.471 40.655C122.557 40.6566 121.418 39.2003 121.418 37.5426ZM126.954 37.3053V35.9302C125.284 36.1737 124.755 36.6997 124.755 37.2647C124.755 37.733 125.082 37.9937 125.698 37.9937C126.262 37.9874 126.587 37.7034 126.954 37.3053Z" fill="#231F20"/>
<path d="M132.733 36.8551V26.3408H136.233V36.9769C136.233 37.6637 136.56 37.8666 136.804 37.8666C136.927 37.8712 137.05 37.8575 137.17 37.826L137.577 40.3734C137.032 40.5821 136.451 40.6788 135.867 40.6575C133.508 40.6575 132.733 39.12 132.733 36.8551Z" fill="#231F20"/>
<path d="M143.154 27.2705H146.654V40.4134H143.154V27.2705Z" fill="#231F20"/>
<path d="M149.3 30.3031H152.149L152.394 31.5159H152.474C153.289 30.7479 154.306 30.0596 155.69 30.0596C157.929 30.0596 158.865 31.6782 158.865 34.1851V40.4131H155.365V34.6299C155.365 33.3359 155.039 33.0128 154.346 33.0128C153.696 33.0128 153.33 33.2953 152.801 33.7808V40.4131H149.3V30.3031Z" fill="#231F20"/>
<path d="M160.329 39.2414L161.877 37.0983C162.819 37.7851 163.647 38.1082 164.361 38.1082C165.074 38.1082 165.377 37.9069 165.377 37.5026C165.377 36.9766 164.434 36.7346 163.424 36.3288C162.243 35.8605 160.859 34.9942 160.859 33.3365C160.859 31.3557 162.488 30.0586 164.888 30.0586C166.558 30.0586 167.738 30.7267 168.634 31.3947L167.086 33.4567C166.354 32.9307 165.643 32.6076 165.011 32.6076C164.42 32.6076 164.115 32.7637 164.115 33.1742C164.115 33.6986 165.011 33.9016 166.029 34.2668C167.25 34.7117 168.634 35.4796 168.634 37.2997C168.634 39.2009 167.127 40.6572 164.279 40.6572C162.976 40.6572 161.388 40.0906 160.329 39.2414Z" fill="#231F20"/>
<path d="M170.261 36.5259V30.2979H173.762V36.081C173.762 37.375 174.087 37.6981 174.78 37.6981C175.43 37.6981 175.798 37.4562 176.246 36.8084V30.3041H179.746V40.4141H176.904L176.66 39.0795H176.579C175.765 40.0504 174.829 40.6576 173.437 40.6576C171.198 40.6576 170.261 39.039 170.261 36.5259Z" fill="#231F20"/>
<path d="M182.106 30.3031H184.956L185.199 32.0419H185.281C186.033 30.6668 187.166 30.0596 188.172 30.0596C188.8 30.0596 189.147 30.1407 189.429 30.2625L188.858 33.2548C188.486 33.1582 188.104 33.1058 187.719 33.0987C186.986 33.0987 186.09 33.5435 185.601 34.7969V40.4162H182.101L182.106 30.3031Z" fill="#231F20"/>
<path d="M189.595 37.5426C189.595 35.4385 191.224 34.2647 195.132 33.862C195.05 33.1346 194.602 32.8099 193.707 32.8099C192.975 32.8099 192.2 33.094 191.143 33.659L189.92 31.3957C191.345 30.545 192.811 30.0596 194.4 30.0596C197.045 30.0596 198.632 31.4753 198.632 34.7923V40.4115H195.782L195.539 39.4407H195.457C194.643 40.1696 193.748 40.655 192.648 40.655C190.73 40.6566 189.595 39.2003 189.595 37.5426ZM195.129 37.3053V35.9302C193.46 36.1737 192.929 36.6997 192.929 37.2647C192.929 37.733 193.254 37.9937 193.872 37.9937C194.439 37.9874 194.766 37.7034 195.129 37.3053Z" fill="#231F20"/>
<path d="M200.912 30.3031H203.76L204.005 31.5159H204.085C204.901 30.7479 205.917 30.0596 207.301 30.0596C209.54 30.0596 210.476 31.6782 210.476 34.1851V40.4131H206.976V34.6299C206.976 33.3359 206.651 33.0128 205.958 33.0128C205.308 33.0128 204.942 33.2953 204.412 33.7808V40.4131H200.912V30.3031Z" fill="#231F20"/>
<path d="M212.227 35.3595C212.227 32.002 214.791 30.0602 217.681 30.0602C218.767 30.0415 219.823 30.4154 220.652 31.1123L219.025 33.3366C218.577 32.9729 218.25 32.8512 217.884 32.8512C216.582 32.8512 215.809 33.822 215.809 35.3595C215.809 36.897 216.663 37.8664 217.762 37.8664C218.332 37.8664 218.902 37.5838 219.391 37.2186L220.737 39.4913C219.719 40.381 218.417 40.6651 217.358 40.6651C214.465 40.6573 212.227 38.7108 212.227 35.3595Z" fill="#231F20"/>
<path d="M221.221 35.3589C221.221 32.081 223.623 30.0596 226.106 30.0596C229.119 30.0596 230.544 32.2448 230.544 34.9546C230.546 35.4431 230.498 35.9305 230.401 36.4094H224.6C224.926 37.6238 225.821 38.028 226.957 38.028C227.648 38.028 228.299 37.8251 229.033 37.4208L230.172 39.4828C229.077 40.2214 227.791 40.6291 226.468 40.6566C223.501 40.6566 221.221 38.7101 221.221 35.3589ZM227.571 34.1445C227.571 33.3765 227.246 32.6897 226.187 32.6897C225.414 32.6897 224.762 33.1346 224.56 34.1445H227.571Z" fill="#231F20"/>
<path d="M97.8877 9.93491C98.876 9.10013 98.9961 7.62742 98.1558 6.64552C97.3156 5.66362 95.8333 5.54435 94.845 6.37912C93.8567 7.2139 93.7367 8.68661 94.5769 9.66852C95.4171 10.6504 96.8994 10.7697 97.8877 9.93491Z" fill="#D1133E"/>
<path d="M70.1897 55.5774C69.7743 55.4538 69.3903 55.2436 69.0632 54.9608L69.423 54.2053C69.7164 54.4569 70.0563 54.6494 70.4238 54.7719C70.8268 54.9168 71.2521 54.9908 71.6807 54.9905C72.2462 54.9905 72.6689 54.8952 72.9485 54.7048C73.0786 54.6246 73.1857 54.5123 73.2592 54.3788C73.3327 54.2453 73.3702 54.0952 73.368 53.9431C73.3719 53.8379 73.3534 53.7332 73.3139 53.6356C73.2744 53.5379 73.2147 53.4497 73.1386 53.3765C72.977 53.2253 72.7839 53.1113 72.573 53.0424C72.3478 52.9644 72.031 52.877 71.6225 52.7802C71.1998 52.6857 70.7841 52.5627 70.3782 52.4118C70.0653 52.292 69.7868 52.0974 69.5675 51.8452C69.3318 51.554 69.2121 51.1867 69.2313 50.8135C69.2272 50.4656 69.3273 50.1244 69.5188 49.8332C69.7365 49.5221 70.0398 49.2799 70.3924 49.1355C70.853 48.948 71.3481 48.8592 71.8456 48.8748C72.2477 48.875 72.6481 48.9275 73.0365 49.0309C73.3955 49.1197 73.7359 49.2709 74.042 49.4773L73.7199 50.2578C73.435 50.0789 73.1261 49.9407 72.8024 49.8472C72.4918 49.7552 72.1697 49.7074 71.8456 49.7052C71.2926 49.7052 70.8794 49.8067 70.6029 50.0065C70.4734 50.0915 70.3676 50.2076 70.2951 50.344C70.2226 50.4804 70.1858 50.6327 70.1881 50.7869C70.184 50.8925 70.2027 50.9978 70.2431 51.0955C70.2835 51.1933 70.3446 51.2813 70.4222 51.3535C70.5891 51.5059 70.7867 51.6214 71.0019 51.6922C71.3112 51.7951 71.6259 51.8811 71.9446 51.9498C72.3651 52.0449 72.7787 52.1679 73.1826 52.3182C73.492 52.439 73.7679 52.6317 73.987 52.8801C74.2236 53.1655 74.3441 53.5286 74.3248 53.8978C74.3281 54.2445 74.2257 54.5841 74.031 54.8718C73.8115 55.1869 73.5024 55.4298 73.1433 55.5696C72.6786 55.7539 72.1808 55.8415 71.6807 55.8271C71.1734 55.8245 70.6698 55.7402 70.1897 55.5774V55.5774Z" fill="#231F20"/>
<path d="M80.3311 50.5986V55.7356H79.4434V54.9551C79.2531 55.2218 78.9958 55.4344 78.6971 55.5717C78.3809 55.7181 78.0358 55.7922 77.6869 55.7887C76.9967 55.7887 76.4536 55.5998 76.0577 55.2221C75.6618 54.8443 75.4633 54.2871 75.4623 53.5503V50.5986H76.4049V53.4489C76.4049 53.9452 76.5259 54.323 76.7663 54.5774C76.9016 54.7101 77.0637 54.8128 77.2419 54.8788C77.4201 54.9447 77.6103 54.9723 77.8001 54.9598C78.0156 54.9711 78.2312 54.9374 78.4328 54.8608C78.6344 54.7841 78.8176 54.6663 78.9705 54.515C79.2585 54.2163 79.402 53.7959 79.401 53.2537V50.6002L80.3311 50.5986Z" fill="#231F20"/>
<path d="M83.6382 50.7824C84.0023 50.6182 84.3994 50.5386 84.7992 50.5499V51.4505C84.7277 51.4434 84.6558 51.4402 84.5839 51.4412C84.364 51.4288 84.1438 51.4627 83.9379 51.5404C83.7319 51.6181 83.5447 51.738 83.3884 51.8923C83.0993 52.192 82.9547 52.6212 82.9547 53.1769V55.7352H82.0121V50.5983H82.9092V51.4614C83.0728 51.1634 83.3283 50.9254 83.6382 50.7824V50.7824Z" fill="#231F20"/>
<path d="M89.3694 51.0732C89.7496 51.4229 89.9397 51.9432 89.9397 52.6341V55.7357H89.052V55.0567C88.8902 55.3021 88.6575 55.4931 88.3843 55.6045C88.0581 55.7375 87.7078 55.8018 87.3553 55.7934C86.7761 55.7934 86.3126 55.6545 85.9649 55.3766C85.7973 55.2484 85.6627 55.0825 85.572 54.8926C85.4813 54.7026 85.4372 54.4941 85.4433 54.284C85.4357 54.0762 85.4766 53.8695 85.5628 53.6799C85.6489 53.4904 85.7779 53.3232 85.9397 53.1914C86.2707 52.9166 86.7975 52.7793 87.5202 52.7793H89.0033V52.6029C89.0145 52.4334 88.989 52.2636 88.9286 52.1047C88.8681 51.9459 88.7742 51.8017 88.653 51.682C88.4173 51.4697 88.0733 51.362 87.6176 51.362C87.3119 51.3632 87.0085 51.416 86.7206 51.5181C86.4508 51.6057 86.1995 51.7417 85.979 51.9192L85.5894 51.2215C85.8734 50.9995 86.1977 50.8336 86.5446 50.7329C86.9276 50.6175 87.3259 50.5601 87.7261 50.5628C88.4404 50.5545 88.9882 50.7246 89.3694 51.0732ZM88.4377 54.8397C88.6958 54.6829 88.8946 54.4459 89.0033 54.1654V53.4489H87.5595C86.7656 53.4489 86.3686 53.7138 86.3686 54.2434C86.3647 54.3621 86.3903 54.4799 86.4432 54.5864C86.4961 54.6928 86.5746 54.7847 86.6719 54.8537C86.9201 55.0158 87.2143 55.094 87.5108 55.077C87.836 55.0851 88.157 55.003 88.4377 54.8397Z" fill="#231F20"/>
<path d="M93.5894 53.3416L92.5164 54.3312V55.736H91.5737V48.5449H92.5164V53.1574L95.3349 50.5991H96.4645L94.2901 52.7219L96.6797 55.736H95.5281L93.5894 53.3416Z" fill="#231F20"/>
<path d="M97.5894 55.6243C97.2586 55.5395 96.9472 55.3928 96.6719 55.192L97.0615 54.4552C97.3145 54.6295 97.5948 54.7608 97.891 54.8439C98.2105 54.9398 98.5424 54.9887 98.8761 54.989C99.6962 54.989 100.106 54.7565 100.106 54.2913C100.109 54.2213 100.095 54.1517 100.066 54.0878C100.037 54.0239 99.9941 53.9675 99.9397 53.9229C99.8181 53.827 99.6763 53.7593 99.525 53.7247C99.3595 53.6831 99.1238 53.6362 98.818 53.5842C98.473 53.535 98.1322 53.4604 97.7983 53.361C97.5386 53.2793 97.3047 53.1319 97.1196 52.9333C96.9189 52.6994 96.8175 52.3972 96.8368 52.0904C96.8326 51.8701 96.8841 51.6522 96.9864 51.4567C97.0888 51.2612 97.2388 51.0943 97.4228 50.9712C97.8125 50.6903 98.3362 50.5498 98.9939 50.5498C99.3424 50.5503 99.6895 50.5927 100.028 50.6762C100.327 50.7422 100.614 50.8566 100.876 51.015L100.477 51.7517C100.03 51.4736 99.5114 51.332 98.9845 51.3443C98.6697 51.3258 98.3558 51.3927 98.0764 51.5379C97.9822 51.5872 97.9032 51.6611 97.8479 51.7515C97.7926 51.8419 97.763 51.9456 97.7622 52.0514C97.759 52.1267 97.7732 52.2017 97.8037 52.2707C97.8342 52.3397 97.8802 52.4009 97.9382 52.4494C98.0654 52.5511 98.2133 52.6241 98.3718 52.6633C98.5446 52.7085 98.7866 52.7601 99.0992 52.8194C99.4406 52.8735 99.778 52.9496 100.109 53.0473C100.361 53.1255 100.588 53.2675 100.768 53.4593C100.961 53.6851 101.059 53.9766 101.041 54.2726C101.046 54.4933 100.993 54.7114 100.888 54.9058C100.783 55.1003 100.629 55.2644 100.441 55.3824C100.04 55.6571 99.4951 55.7945 98.807 55.7945C98.3951 55.7953 97.9851 55.738 97.5894 55.6243V55.6243Z" fill="#231F20"/>
<path d="M106.442 51.1173C106.829 51.495 107.022 52.0492 107.022 52.7797V55.736H106.08V52.8858C106.08 52.3895 105.96 52.0148 105.718 51.762C105.582 51.6307 105.42 51.5293 105.242 51.4642C105.064 51.3992 104.874 51.3719 104.684 51.3842C104.465 51.3725 104.245 51.4055 104.039 51.4812C103.832 51.5569 103.643 51.6737 103.484 51.8244C103.192 52.1189 103.046 52.5409 103.046 53.0903V55.736H102.103V48.5449H103.046V51.3265C103.248 51.0747 103.511 50.8777 103.811 50.7536C104.146 50.6143 104.507 50.5453 104.87 50.5507C105.531 50.5507 106.055 50.7396 106.442 51.1173Z" fill="#231F20"/>
<path d="M112.188 51.0728C112.569 51.4224 112.76 51.9427 112.76 52.6337V55.7352H111.872V55.0562C111.709 55.3014 111.476 55.4922 111.203 55.6041C110.877 55.7374 110.526 55.8017 110.174 55.793C109.676 55.8179 109.184 55.6706 108.783 55.3762C108.616 55.2477 108.482 55.0817 108.391 54.8919C108.3 54.702 108.256 54.4936 108.262 54.2836C108.254 54.0757 108.296 53.8688 108.382 53.6793C108.468 53.4898 108.598 53.3226 108.76 53.191C109.091 52.9162 109.618 52.7789 110.34 52.7789H111.823V52.6025C111.834 52.4329 111.809 52.263 111.748 52.1041C111.687 51.9453 111.593 51.8012 111.472 51.6816C111.237 51.4693 110.892 51.3616 110.438 51.3616C110.131 51.3628 109.828 51.4156 109.539 51.5177C109.269 51.6056 109.018 51.7415 108.798 51.9188L108.405 51.2086C108.69 50.9867 109.014 50.8209 109.362 50.72C109.744 50.6046 110.142 50.5473 110.541 50.5499C111.259 50.5499 111.808 50.7242 112.188 51.0728ZM111.256 54.8393C111.515 54.6825 111.714 54.4456 111.823 54.165V53.4485H110.378C109.585 53.4485 109.189 53.7133 109.189 54.243C109.185 54.3616 109.21 54.4793 109.262 54.5858C109.315 54.6923 109.393 54.7842 109.49 54.8533C109.739 55.0149 110.033 55.0932 110.329 55.0765C110.655 55.085 110.976 55.0028 111.256 54.8393V54.8393Z" fill="#231F20"/>
<path d="M115.087 54.6548C115.207 54.7811 115.271 54.9494 115.267 55.1231C115.267 55.2178 115.255 55.3121 115.233 55.404C115.209 55.4946 115.165 55.6335 115.101 55.8208L114.642 57.1679H114.028L114.389 55.724C114.268 55.6807 114.164 55.601 114.09 55.4961C114.006 55.3667 113.968 55.2132 113.981 55.0598C113.995 54.9064 114.059 54.7617 114.164 54.6486C114.226 54.587 114.299 54.5389 114.38 54.5072C114.462 54.4755 114.548 54.4609 114.636 54.4644C114.72 54.4627 114.804 54.4788 114.882 54.5116C114.959 54.5445 115.029 54.5933 115.087 54.6548V54.6548Z" fill="#231F20"/>
<path d="M125.058 48.9492V55.7345H124.083V52.711H120.155V55.7345H119.179V48.9492H120.155V51.8666H124.083V48.9492H125.058Z" fill="#231F20"/>
<path d="M130.4 51.0735C130.78 51.4232 130.97 51.9435 130.97 52.6344V55.736H130.082V55.057C129.92 55.3024 129.687 55.4934 129.413 55.6049C129.087 55.7381 128.737 55.8025 128.384 55.7937C127.886 55.8187 127.395 55.6714 126.994 55.377C126.826 55.2484 126.692 55.0825 126.601 54.8926C126.511 54.7028 126.466 54.4944 126.472 54.2843C126.465 54.0764 126.506 53.8696 126.592 53.68C126.679 53.4905 126.808 53.3234 126.97 53.1917C127.302 52.917 127.829 52.7796 128.551 52.7796H130.034V52.6032C130.045 52.4337 130.019 52.2637 129.958 52.1049C129.898 51.946 129.803 51.8019 129.682 51.6823C129.448 51.47 129.104 51.3623 128.648 51.3623C128.342 51.3634 128.039 51.4162 127.751 51.5184C127.481 51.6057 127.23 51.7417 127.009 51.9195L126.618 51.2218C126.903 50.9999 127.228 50.8341 127.575 50.7332C127.957 50.6178 128.355 50.5605 128.755 50.5631C129.465 50.5506 130.012 50.7301 130.4 51.0735ZM129.457 54.84C129.715 54.6827 129.913 54.4458 130.023 54.1657V53.4492H128.579C127.785 53.4492 127.388 53.7141 127.388 54.2437C127.384 54.3625 127.409 54.4804 127.462 54.5869C127.515 54.6934 127.594 54.7852 127.691 54.8541C127.94 55.0161 128.234 55.0943 128.53 55.0773C128.855 55.0853 129.176 55.0031 129.457 54.84V54.84Z" fill="#231F20"/>
<path d="M140.612 51.1122C140.992 51.4868 141.183 52.0425 141.184 52.7792V55.7356H140.241V52.8853C140.241 52.389 140.126 52.0144 139.896 51.7615C139.768 51.6315 139.613 51.5305 139.442 51.4653C139.271 51.4001 139.088 51.3723 138.906 51.3838C138.698 51.3749 138.491 51.4093 138.298 51.4849C138.105 51.5604 137.93 51.6754 137.784 51.8224C137.504 52.1169 137.365 52.5388 137.365 53.0883V55.734H136.422V52.8853C136.422 52.389 136.307 52.0144 136.076 51.7615C135.948 51.6315 135.794 51.5305 135.623 51.4653C135.452 51.4001 135.269 51.3723 135.086 51.3838C134.877 51.3735 134.668 51.4074 134.473 51.4833C134.277 51.5592 134.101 51.6753 133.954 51.8239C133.674 52.1184 133.534 52.5404 133.534 53.0898V55.7356H132.592V50.5986H133.489V51.365C133.677 51.1007 133.933 50.8911 134.23 50.7578C134.559 50.6145 134.916 50.5436 135.275 50.5502C135.647 50.5436 136.015 50.6266 136.348 50.7922C136.655 50.9497 136.907 51.1963 137.069 51.4993C137.271 51.1965 137.553 50.955 137.885 50.8015C138.252 50.6301 138.654 50.5442 139.06 50.5502C139.717 50.5502 140.235 50.7375 140.612 51.1122Z" fill="#231F20"/>
<path d="M147.5 53.4775H143.305C143.327 53.69 143.392 53.8961 143.495 54.0836C143.598 54.2712 143.737 54.4366 143.905 54.5702C144.267 54.852 144.718 54.998 145.178 54.9822C145.457 54.9927 145.736 54.9422 145.993 54.8343C146.251 54.7265 146.482 54.5639 146.67 54.3579L147.187 54.9588C146.951 55.2335 146.652 55.4476 146.315 55.5832C145.893 55.742 145.443 55.8132 144.992 55.7922C144.541 55.7713 144.1 55.6587 143.694 55.4614C143.284 55.2497 142.943 54.9245 142.714 54.5249C142.48 54.1111 142.361 53.643 142.369 53.1685C142.361 52.6976 142.477 52.233 142.705 51.8198C142.92 51.4284 143.241 51.1042 143.632 50.8833C144.038 50.6569 144.498 50.5416 144.964 50.5492C145.427 50.541 145.883 50.6564 146.285 50.8833C146.67 51.105 146.985 51.4295 147.193 51.8198C147.418 52.244 147.532 52.7173 147.525 53.1965C147.521 53.2906 147.513 53.3843 147.5 53.4775V53.4775ZM143.836 51.7433C143.531 52.0203 143.342 52.4006 143.305 52.8094H146.621C146.583 52.4025 146.394 52.0244 146.09 51.748C145.775 51.4835 145.376 51.3384 144.963 51.3384C144.55 51.3384 144.151 51.4835 143.836 51.748V51.7433Z" fill="#231F20"/>
<path d="M148.983 55.6243C148.652 55.5392 148.341 55.3925 148.065 55.192L148.456 54.4552C148.709 54.6295 148.99 54.7608 149.286 54.8439C149.605 54.9398 149.937 54.9887 150.271 54.989C151.09 54.989 151.5 54.7565 151.5 54.2913C151.503 54.2221 151.491 54.1529 151.464 54.089C151.437 54.0252 151.395 53.9683 151.342 53.9229C151.22 53.8276 151.079 53.7599 150.928 53.7247C150.761 53.6831 150.526 53.6362 150.221 53.5842C149.876 53.5352 149.535 53.4606 149.201 53.361C148.941 53.2793 148.707 53.1319 148.522 52.9333C148.322 52.6994 148.22 52.3972 148.24 52.0904C148.235 51.87 148.286 51.652 148.389 51.4564C148.491 51.2608 148.641 51.094 148.826 50.9712C149.215 50.6903 149.739 50.5498 150.397 50.5498C150.746 50.5503 151.093 50.5927 151.432 50.6762C151.732 50.7422 152.018 50.8566 152.28 51.015L151.88 51.7517C151.433 51.4735 150.914 51.3318 150.387 51.3443C150.073 51.3256 149.76 51.3925 149.481 51.5379C149.387 51.5872 149.308 51.6611 149.252 51.7515C149.197 51.8419 149.167 51.9456 149.167 52.0514C149.163 52.1267 149.177 52.2019 149.207 52.2709C149.238 52.34 149.284 52.4011 149.342 52.4494C149.469 52.5518 149.617 52.6249 149.776 52.6633C149.949 52.7085 150.191 52.7601 150.504 52.8194C150.844 52.8733 151.181 52.9494 151.512 53.0473C151.764 53.1251 151.992 53.2672 152.172 53.4593C152.364 53.6856 152.462 53.9769 152.444 54.2726C152.448 54.4931 152.396 54.711 152.291 54.9054C152.186 55.0998 152.033 55.2641 151.845 55.3824C151.444 55.6571 150.899 55.7945 150.21 55.7945C149.795 55.7961 149.381 55.7388 148.983 55.6243V55.6243Z" fill="#231F20"/>
<path d="M157.836 51.1173C158.224 51.495 158.418 52.0492 158.417 52.7797V55.736H157.474V52.8858C157.474 52.3895 157.354 52.0148 157.113 51.762C156.977 51.6309 156.814 51.5296 156.636 51.4645C156.458 51.3995 156.269 51.3721 156.079 51.3842C155.86 51.3724 155.64 51.4054 155.433 51.4811C155.227 51.5568 155.038 51.6736 154.879 51.8244C154.587 52.1189 154.441 52.5409 154.441 53.0903V55.736H153.498V48.5449H154.441V51.3265C154.643 51.0743 154.906 50.8773 155.206 50.7536C155.541 50.6142 155.901 50.5451 156.265 50.5507C156.926 50.5507 157.449 50.7396 157.836 51.1173Z" fill="#231F20"/>
<path d="M163.583 51.0732C163.963 51.4229 164.153 51.9432 164.153 52.6341V55.7357H163.265V55.0567C163.104 55.3021 162.871 55.4931 162.598 55.6045C162.271 55.7375 161.921 55.8018 161.569 55.7934C160.988 55.7934 160.525 55.6545 160.178 55.3766C160.01 55.2484 159.876 55.0826 159.785 54.8927C159.694 54.7028 159.649 54.4942 159.655 54.284C159.648 54.0761 159.689 53.8693 159.775 53.6797C159.862 53.4902 159.991 53.3231 160.153 53.1914C160.485 52.9166 161.012 52.7793 161.734 52.7793H163.217V52.6029C163.228 52.4334 163.202 52.2636 163.142 52.1047C163.081 51.9459 162.987 51.8017 162.866 51.682C162.632 51.4697 162.287 51.362 161.831 51.362C161.525 51.3632 161.222 51.416 160.934 51.5181C160.664 51.6057 160.413 51.7417 160.192 51.9192L159.803 51.2215C160.087 50.9995 160.411 50.8336 160.758 50.7329C161.141 50.6175 161.539 50.5601 161.939 50.5628C162.654 50.5545 163.201 50.7246 163.583 51.0732ZM162.651 54.8397C162.909 54.6829 163.108 54.4459 163.217 54.1654V53.4489H161.773C160.98 53.4489 160.583 53.7138 160.582 54.2434C160.578 54.3621 160.604 54.4799 160.657 54.5864C160.709 54.6928 160.788 54.7847 160.885 54.8537C161.133 55.0158 161.428 55.094 161.724 55.077C162.049 55.0851 162.37 55.003 162.651 54.8397V54.8397Z" fill="#231F20"/>
<path d="M172.807 54.0378H169.177L168.42 55.7345H167.415L170.508 48.9492H171.474L174.576 55.7345H173.551L172.807 54.0378ZM172.466 53.2573L170.992 49.9326L169.518 53.2573H172.466Z" fill="#231F20"/>
<path d="M178.89 51.0732C179.27 51.4229 179.46 51.9432 179.46 52.6341V55.7357H178.572V55.0567C178.411 55.3021 178.178 55.4931 177.905 55.6045C177.579 55.7375 177.228 55.8018 176.876 55.7934C176.296 55.7934 175.833 55.6545 175.485 55.3766C175.318 55.2484 175.183 55.0826 175.092 54.8927C175.001 54.7028 174.956 54.4942 174.962 54.284C174.955 54.0761 174.996 53.8693 175.082 53.6797C175.169 53.4902 175.298 53.3231 175.46 53.1914C175.792 52.9166 176.319 52.7793 177.041 52.7793H178.524V52.6029C178.535 52.4333 178.509 52.2633 178.449 52.1044C178.388 51.9455 178.294 51.8014 178.172 51.682C177.938 51.4697 177.594 51.362 177.138 51.362C176.832 51.3632 176.529 51.416 176.241 51.5181C175.971 51.6057 175.72 51.7417 175.499 51.9192L175.11 51.2215C175.394 50.9995 175.718 50.8336 176.065 50.7329C176.448 50.6175 176.846 50.5601 177.246 50.5628C177.961 50.5545 178.509 50.7246 178.89 51.0732ZM177.958 54.8397C178.216 54.6829 178.415 54.4459 178.524 54.1654V53.4489H177.08C176.287 53.4489 175.89 53.7138 175.889 54.2434C175.885 54.3621 175.911 54.4799 175.964 54.5864C176.017 54.6928 176.095 54.7847 176.192 54.8537C176.441 55.0158 176.735 55.094 177.031 55.077C177.356 55.0851 177.677 55.003 177.958 54.8397Z" fill="#231F20"/>
<path d="M185.187 50.886C185.578 51.0996 185.901 51.4189 186.118 51.807C186.34 52.2297 186.455 52.6993 186.455 53.1759C186.455 53.6525 186.34 54.122 186.118 54.5448C185.903 54.9351 185.58 55.2562 185.187 55.4704C184.774 55.6943 184.31 55.8078 183.84 55.7998C183.489 55.8041 183.141 55.7316 182.821 55.5875C182.512 55.4451 182.243 55.2309 182.035 54.9631V57.6167H181.093V50.5926H181.991V51.4074C182.192 51.1277 182.462 50.9054 182.777 50.7627C183.107 50.6148 183.467 50.5402 183.829 50.5442C184.304 50.538 184.772 50.6559 185.187 50.886ZM184.656 54.7586C184.921 54.6077 185.139 54.386 185.284 54.1187C185.435 53.8261 185.513 53.5022 185.513 53.1735C185.513 52.8449 185.435 52.521 185.284 52.2284C185.139 51.9621 184.921 51.7418 184.656 51.5931C184.383 51.4428 184.075 51.3663 183.763 51.3715C183.454 51.367 183.149 51.4452 182.88 51.5978C182.616 51.7484 182.399 51.9682 182.252 52.2331C182.096 52.5205 182.017 52.8431 182.023 53.1696C182.017 53.4982 182.094 53.8229 182.247 54.114C182.391 54.3826 182.609 54.6046 182.876 54.754C183.148 54.9035 183.454 54.9819 183.766 54.9819C184.077 54.9819 184.383 54.9035 184.656 54.754V54.7586Z" fill="#231F20"/>
<path d="M189.664 53.3416L188.591 54.3312V55.736H187.649V48.5449H188.591V53.1574L191.411 50.5991H192.543L190.368 52.7219L192.758 55.736H191.606L189.664 53.3416Z" fill="#231F20"/>
<path d="M198.007 53.4775H193.812C193.834 53.6901 193.898 53.8962 194.001 54.0838C194.104 54.2714 194.244 54.4367 194.412 54.5701C194.774 54.852 195.225 54.998 195.685 54.9822C195.964 54.9926 196.243 54.9421 196.501 54.8342C196.758 54.7263 196.989 54.5638 197.177 54.3579L197.694 54.9588C197.458 55.2338 197.158 55.4481 196.821 55.5832C196.399 55.7418 195.949 55.8128 195.498 55.7919C195.048 55.7709 194.607 55.6585 194.202 55.4614C193.791 55.2497 193.45 54.9245 193.221 54.5249C192.987 54.1111 192.868 53.643 192.876 53.1684C192.868 52.6976 192.984 52.233 193.212 51.8198C193.427 51.428 193.748 51.1037 194.139 50.8833C194.545 50.6571 195.004 50.5418 195.469 50.5492C195.933 50.541 196.389 50.6564 196.792 50.8833C197.177 51.1046 197.491 51.4292 197.699 51.8198C197.923 52.2441 198.035 52.7176 198.026 53.1965C198.024 53.2905 198.018 53.3842 198.007 53.4775ZM194.343 51.7433C194.038 52.0203 193.849 52.4006 193.812 52.8094H197.128C197.09 52.4025 196.901 52.0243 196.597 51.748C196.282 51.4835 195.883 51.3384 195.47 51.3384C195.058 51.3384 194.658 51.4835 194.343 51.748V51.7433Z" fill="#231F20"/>
<path d="M202.392 55.5764C201.977 55.4525 201.593 55.2423 201.265 54.9598L201.627 54.2044C201.919 54.4562 202.259 54.6487 202.626 54.771C203.029 54.9159 203.454 54.9898 203.883 54.9895C204.448 54.9895 204.871 54.8943 205.151 54.7039C205.281 54.6236 205.388 54.5113 205.461 54.3778C205.535 54.2444 205.572 54.0943 205.57 53.9421C205.573 53.8383 205.554 53.735 205.514 53.6388C205.475 53.5426 205.416 53.4556 205.341 53.3833C205.178 53.2324 204.985 53.1185 204.773 53.0493C204.549 52.9712 204.233 52.8838 203.823 52.7871C203.4 52.6924 202.985 52.5693 202.579 52.4187C202.266 52.2986 201.988 52.104 201.77 51.8521C201.533 51.5612 201.413 51.1937 201.433 50.8203C201.429 50.4725 201.529 50.1313 201.721 49.8401C201.938 49.529 202.241 49.2868 202.593 49.1423C203.054 48.9548 203.55 48.8659 204.048 48.8817C204.449 48.882 204.849 48.9345 205.237 49.0377C205.596 49.1262 205.937 49.2774 206.242 49.4842L205.928 50.2646C205.643 50.0855 205.335 49.9473 205.011 49.8541C204.701 49.7622 204.379 49.7144 204.055 49.7121C203.502 49.7121 203.088 49.8135 202.811 50.0133C202.682 50.0984 202.576 50.2145 202.503 50.3509C202.431 50.4873 202.394 50.6396 202.396 50.7938C202.393 50.8993 202.412 51.0045 202.452 51.1022C202.492 51.1999 202.553 51.2879 202.631 51.3604C202.798 51.5128 202.996 51.6282 203.212 51.6991C203.521 51.8022 203.836 51.8882 204.154 51.9567C204.575 52.0513 204.989 52.1744 205.392 52.325C205.702 52.4463 205.978 52.6389 206.198 52.887C206.435 53.1725 206.555 53.5356 206.535 53.9047C206.538 54.2511 206.436 54.5904 206.242 54.8787C206.022 55.193 205.713 55.4357 205.355 55.5764C204.89 55.7607 204.391 55.8484 203.891 55.834C203.38 55.8297 202.874 55.7427 202.392 55.5764V55.5764Z" fill="#231F20"/>
<path d="M211.24 51.0732C211.62 51.4229 211.811 51.9432 211.812 52.6341V55.7357H210.923V55.0567C210.761 55.3021 210.528 55.4931 210.255 55.6045C209.929 55.7377 209.578 55.802 209.226 55.7934C208.728 55.8186 208.236 55.6713 207.835 55.3766C207.674 55.244 207.544 55.078 207.454 54.8902C207.364 54.7025 207.316 54.4974 207.314 54.2894C207.311 54.0814 207.355 53.8754 207.441 53.6858C207.527 53.4962 207.653 53.3274 207.812 53.1914C208.143 52.9166 208.67 52.7793 209.392 52.7793H210.874V52.6029C210.885 52.4334 210.86 52.2636 210.799 52.1047C210.739 51.9459 210.645 51.8017 210.524 51.682C210.289 51.4697 209.944 51.362 209.49 51.362C209.184 51.3632 208.88 51.416 208.591 51.5181C208.321 51.606 208.07 51.742 207.85 51.9192L207.46 51.2215C207.745 50.9996 208.069 50.8338 208.417 50.7329C208.799 50.6175 209.197 50.5602 209.597 50.5628C210.312 50.5545 210.86 50.7246 211.24 51.0732ZM210.308 54.8397C210.567 54.6833 210.766 54.4462 210.874 54.1654V53.4489H209.425C208.631 53.4489 208.235 53.7138 208.236 54.2434C208.232 54.362 208.257 54.4797 208.31 54.5862C208.362 54.6927 208.441 54.7846 208.538 54.8537C208.786 55.0153 209.08 55.0936 209.377 55.077C209.703 55.0863 210.026 55.0041 210.308 54.8397Z" fill="#231F20"/>
<path d="M216.978 51.0735C217.358 51.4232 217.548 51.9435 217.548 52.6344V55.736H216.66V55.057C216.498 55.3024 216.265 55.4934 215.991 55.6049C215.665 55.7381 215.314 55.8025 214.962 55.7937C214.464 55.8187 213.973 55.6714 213.572 55.377C213.404 55.2484 213.27 55.0825 213.179 54.8926C213.089 54.7028 213.044 54.4944 213.05 54.2843C213.043 54.0764 213.084 53.8696 213.17 53.68C213.256 53.4905 213.386 53.3234 213.548 53.1917C213.879 52.917 214.406 52.7796 215.128 52.7796H216.612V52.6032C216.623 52.4337 216.597 52.2637 216.536 52.1049C216.475 51.946 216.381 51.8019 216.26 51.6823C216.026 51.47 215.681 51.3623 215.226 51.3623C214.92 51.3634 214.617 51.4162 214.329 51.5184C214.059 51.6057 213.807 51.7417 213.587 51.9195L213.196 51.2218C213.481 50.9999 213.805 50.8341 214.153 50.7332C214.535 50.6178 214.933 50.5605 215.333 50.5631C216.049 50.5506 216.596 50.7301 216.978 51.0735ZM216.046 54.84C216.304 54.6827 216.502 54.4458 216.612 54.1657V53.4492H215.168C214.373 53.4492 213.976 53.7141 213.977 54.2437C213.973 54.3625 213.998 54.4804 214.051 54.5869C214.104 54.6934 214.183 54.7852 214.28 54.8541C214.528 55.0161 214.823 55.0943 215.119 55.0773C215.444 55.0853 215.765 55.0031 216.046 54.84V54.84Z" fill="#231F20"/>
<path d="M222.095 55.4363C221.946 55.5583 221.773 55.6486 221.587 55.7017C221.384 55.764 221.172 55.795 220.959 55.7938C220.435 55.7938 220.032 55.6549 219.749 55.377C219.466 55.0992 219.323 54.7022 219.32 54.186V51.3655H218.442V50.5991H219.323V49.4814H220.266V50.6053H221.749V51.3717H220.266V54.1533C220.251 54.3855 220.326 54.6147 220.476 54.7932C220.555 54.87 220.649 54.9294 220.753 54.9676C220.856 55.0058 220.967 55.0219 221.077 55.0149C221.341 55.0225 221.6 54.9368 221.807 54.7729L222.095 55.4363Z" fill="#231F20"/>
<path d="M227.455 51.1173C227.842 51.495 228.035 52.0492 228.035 52.7797V55.736H227.092V52.8858C227.092 52.3895 226.972 52.0148 226.731 51.762C226.595 51.6307 226.432 51.5293 226.254 51.4642C226.076 51.3992 225.886 51.3719 225.697 51.3842C225.479 51.3738 225.262 51.4073 225.057 51.4827C224.853 51.558 224.666 51.6738 224.508 51.8228C224.216 52.1173 224.069 52.5393 224.069 53.0887V55.7345H223.127V48.5449H224.069V51.3265C224.272 51.0743 224.535 50.8773 224.835 50.7536C225.17 50.6143 225.53 50.5453 225.894 50.5507C226.547 50.5507 227.068 50.7396 227.455 51.1173Z" fill="#231F20"/>
<path d="M229.85 45.1611H68.0264V46.0555H229.85V45.1611Z" fill="#0E0E10"/>
<path d="M256.22 16.2246C260.14 16.2246 263.971 17.3793 267.23 19.5428C270.489 21.7062 273.029 24.7811 274.529 28.3788C276.029 31.9765 276.422 35.9353 275.657 39.7546C274.893 43.5739 273.005 47.0822 270.234 49.8359C267.463 52.5896 263.932 54.4649 260.087 55.2248C256.243 55.9847 252.259 55.595 248.637 54.105C245.016 52.615 241.921 50.0916 239.743 46.8539C237.565 43.6162 236.403 39.8096 236.403 35.9155C236.402 33.3298 236.915 30.7693 237.911 28.3803C238.907 25.9913 240.366 23.8205 242.206 21.992C244.047 20.1635 246.232 18.7131 248.636 17.7235C251.04 16.7339 253.618 16.2246 256.22 16.2246V16.2246Z" fill="url(#paint0_linear_5336)"/>
<g style="mix-blend-mode:multiply">
<path d="M271.398 48.5771C272.865 46.8438 274.02 44.872 274.812 42.7486C273.067 44.1073 271.062 45.0977 268.918 45.6589C266.774 46.2201 264.538 46.3403 262.346 46.0123C260.154 45.6842 258.052 44.9147 256.17 43.751C254.288 42.5873 252.665 41.0539 251.4 39.2448C250.136 37.4358 249.256 35.3892 248.816 33.2305C248.376 31.0718 248.385 28.8466 248.841 26.6912C249.297 24.5359 250.192 22.4958 251.47 20.6962C252.748 18.8966 254.383 17.3753 256.273 16.2256H256.222C253.969 16.2239 251.734 16.6046 249.61 17.351C246.816 20.66 245.194 24.7899 244.994 29.1048C244.794 33.4197 246.028 37.6802 248.505 41.2301C250.982 44.7799 254.565 47.4223 258.702 48.7502C262.839 50.078 267.301 50.0178 271.4 48.5786L271.398 48.5771Z" fill="#B3B3B3"/>
</g>
<path d="M244.53 27.8397C244.53 31.7339 245.692 35.5407 247.87 38.7786C250.047 42.0165 253.142 44.5401 256.763 46.0303C260.385 47.5206 264.369 47.9105 268.214 47.1508C272.058 46.3911 275.589 44.5158 278.36 41.7622C281.132 39.0086 283.019 35.5003 283.784 31.6809C284.549 27.8616 284.156 23.9027 282.656 20.305C281.156 16.7072 278.616 13.6321 275.357 11.4686C272.098 9.30515 268.267 8.15039 264.347 8.15039C259.091 8.1508 254.051 10.2253 250.335 13.9177C246.618 17.6101 244.53 22.6179 244.53 27.8397ZM281.822 27.8397C281.823 31.2737 280.798 34.6306 278.878 37.486C276.958 40.3414 274.229 42.567 271.036 43.8813C267.843 45.1956 264.329 45.5397 260.939 44.8699C257.549 44.2002 254.435 42.5467 251.991 40.1187C249.547 37.6906 247.882 34.597 247.208 31.229C246.534 27.8611 246.88 24.3701 248.202 21.1975C249.525 18.0249 251.765 15.3132 254.638 13.4054C257.512 11.4976 260.891 10.4793 264.347 10.4793C268.982 10.4797 273.426 12.3088 276.703 15.5644C279.98 18.82 281.822 23.2354 281.822 27.8397V27.8397Z" fill="url(#paint1_linear_5336)"/>
<path d="M246.336 27.8404C246.336 31.3797 247.392 34.8397 249.37 37.7828C251.349 40.7259 254.162 43.02 257.453 44.3748C260.744 45.7297 264.365 46.0845 267.859 45.3944C271.353 44.7043 274.563 43.0003 277.082 40.4978C279.601 37.9954 281.317 34.8069 282.012 31.3357C282.707 27.8644 282.351 24.2663 280.988 20.9964C279.624 17.7265 277.316 14.9316 274.354 12.9652C271.392 10.9988 267.91 9.94922 264.347 9.94922C259.571 9.94922 254.99 11.8341 251.613 15.1892C248.235 18.5444 246.337 23.0951 246.336 27.8404V27.8404ZM280.622 27.8404C280.622 31.0389 279.668 34.1656 277.88 36.8251C276.091 39.4847 273.549 41.5576 270.575 42.7818C267.601 44.0059 264.328 44.3263 261.171 43.7024C258.013 43.0785 255.113 41.5383 252.837 39.2766C250.56 37.015 249.01 34.1334 248.382 30.9964C247.754 27.8594 248.076 24.6078 249.309 21.6528C250.541 18.6979 252.627 16.1723 255.304 14.3956C257.981 12.6188 261.128 11.6706 264.347 11.6709C266.485 11.6709 268.601 12.0891 270.575 12.9017C272.55 13.7143 274.344 14.9054 275.855 16.4068C277.367 17.9083 278.565 19.6908 279.383 21.6526C280.201 23.6144 280.622 25.717 280.622 27.8404V27.8404Z" fill="url(#paint2_linear_5336)"/>
<path d="M56.2526 55.6778C50.9894 55.6778 45.6509 55.6668 40.3108 55.6871C39.1388 55.6871 39.1545 54.9348 39.1561 54.1262C39.1561 51.8161 39.1561 49.509 39.1561 46.5964C37.9102 49.4809 36.6549 51.6662 34.4349 53.2412C28.9362 57.1279 21.794 55.926 17.7815 52.6465C15.1168 50.4658 13.1389 47.5705 12.0831 44.305C11.2552 41.8075 10.1727 40.2372 7.23792 41.1831C6.91585 41.2862 6.51522 41.1504 5.83337 41.102C8.67389 36.4067 11.3903 31.9254 14.091 27.4346C14.6534 26.4981 15.2096 26.9819 15.8192 27.3534C17.4657 28.3524 19.1185 29.3327 20.7854 30.3192C21.1137 29.6948 20.9425 29.2125 20.6534 28.7161C15.7736 20.4948 21.5568 10.7328 31.7531 10.0117C34.6423 9.80878 37.508 9.96487 40.3328 10.6673C43.7892 11.5289 43.7892 11.5227 45.156 8.2666C46.4427 9.50441 47.0413 11.095 47.8928 12.4951C49.6697 15.4062 51.3241 18.3876 53.1026 21.294C53.775 22.3866 53.753 23.011 52.4348 23.5198C50.4883 24.266 48.5983 25.1572 46.2338 26.1734C48.306 26.2655 49.973 26.1328 51.5519 26.4434C59.3712 27.9841 63.3759 35.7761 60.4112 43.5307C59.3728 46.2452 57.8692 48.7161 55.698 50.636C54.1458 52.0034 54.0436 53.0024 55.7074 54.2261C56.0358 54.4665 56.493 54.7787 56.2573 55.67L56.2526 55.6778ZM39.918 38.9682C40.757 39.8845 41.6132 40.7476 42.3831 41.6795C43.3571 42.8595 43.9463 42.3741 44.6816 41.3845C46.2526 39.2757 45.3697 37.5322 44.1992 35.6247C43.3571 34.248 42.2589 33.7875 40.7837 33.6502C39.3084 33.5128 37.9432 34.0341 36.2543 34.1668C37.3854 31.8255 39.376 30.5502 40.9785 28.7239C39.3603 28.585 38.3705 30.0569 36.8261 29.6808C37.1843 28.6396 37.442 27.5891 37.9008 26.6354C38.4821 25.4288 38.0579 25.0402 36.8748 24.753C33.3745 23.8976 30.4695 26.7962 31.398 30.3082C31.9039 32.2266 33.1985 33.633 34.8151 34.941C32.5449 35.6497 30.5622 34.248 28.4821 34.785C28.8655 35.6122 29.9794 35.5155 30.0988 36.452C29.4892 36.6237 28.9 36.8329 28.2936 36.9499C27.2677 37.145 25.6432 36.9812 25.4923 37.963C25.2944 39.3194 26.3941 40.5432 27.5725 41.3798C29.5929 42.8112 32.2857 42.193 33.9322 40.0265C34.8953 38.7668 35.1419 37.1966 35.7641 35.6154C37.431 37.4369 38.0689 39.5254 39.0052 41.4594C39.7374 40.8179 39.0696 39.8829 39.9212 38.9791" fill="#F2B355"/>
<defs>
<linearGradient id="paint0_linear_5336" x1="256.22" y1="55.6033" x2="256.22" y2="16.2262" gradientUnits="userSpaceOnUse">
<stop stop-color="#72000F"/>
<stop offset="1" stop-color="#E2183D"/>
</linearGradient>
<linearGradient id="paint1_linear_5336" x1="264.346" y1="47.5307" x2="264.346" y2="8.15195" gradientUnits="userSpaceOnUse">
<stop stop-color="#CCCCCC"/>
<stop offset="0.09" stop-color="#A6A6A6"/>
<stop offset="0.4" stop-color="#262626"/>
<stop offset="0.5" stop-color="#E6E6E6"/>
<stop offset="1" stop-color="#BFBFBF"/>
</linearGradient>
<linearGradient id="paint2_linear_5336" x1="264.346" y1="45.7347" x2="264.346" y2="9.94922" gradientUnits="userSpaceOnUse">
<stop stop-color="#404040"/>
<stop offset="0.27" stop-color="#999999"/>
<stop offset="0.5" stop-color="#E6E6E6"/>
<stop offset="0.86" stop-color="#999999"/>
<stop offset="1" stop-color="#262626"/>
</linearGradient>
</defs>
</svg>
